<?xml version="1.0" encoding="UTF-8" standalone="no"?>
<!-- Created with Inkscape (http://www.inkscape.org/) -->
<svg
   xmlns:dc="http://purl.org/dc/elements/1.1/"
   xmlns:cc="http://web.resource.org/cc/"
   xmlns:rdf="http://www.w3.org/1999/02/22-rdf-syntax-ns#"
   xmlns:svg="http://www.w3.org/2000/svg"
   xmlns="http://www.w3.org/2000/svg"
   xmlns:sodipodi="http://sodipodi.sourceforge.net/DTD/sodipodi-0.dtd"
   xmlns:inkscape="http://www.inkscape.org/namespaces/inkscape"
   id="svg6685"
   sodipodi:version="0.32"
   inkscape:version="0.44"
   width="210mm"
   height="297mm"
   sodipodi:docbase="/home/carlo/Desktop"
   sodipodi:docname="pindora.svg">
  <metadata
     id="metadata6690">
    <rdf:RDF>
      <cc:Work
         rdf:about="">
        <dc:format>image/svg+xml</dc:format>
        <dc:type
           rdf:resource="http://purl.org/dc/dcmitype/StillImage" />
      </cc:Work>
    </rdf:RDF>
  </metadata>
  <defs
     id="defs6688" />
  <sodipodi:namedview
     inkscape:cy="524.78908"
     inkscape:cx="531.20842"
     inkscape:zoom="0.35919193"
     inkscape:window-height="626"
     inkscape:window-width="949"
     inkscape:pageshadow="2"
     inkscape:pageopacity="0.0"
     borderopacity="1.0"
     bordercolor="#666666"
     pagecolor="#ffffff"
     id="base"
     showguides="true"
     inkscape:guide-bbox="true"
     inkscape:window-x="10"
     inkscape:window-y="72"
     inkscape:current-layer="svg6685">
    <sodipodi:guide
       orientation="vertical"
       position="-267.18361"
       id="guide7587" />
  </sodipodi:namedview>
  <path
     style="opacity:1;color:#000000;fill:#d49400;fill-opacity:1;fill-rule:nonzero;stroke:#b84300;stroke-width:2.4000001;stroke-linecap:butt;stroke-linejoin:miter;marker:none;marker-start:none;marker-mid:none;marker-end:none;stroke-miterlimit:4;stroke-dasharray:none;stroke-dashoffset:0;stroke-opacity:1"
     d="M 1203.6833,419.32779 C 1201.8943,419.33617 1200.0976,419.35488 1198.3083,419.35904 C 1193.904,419.36927 1189.4937,419.3998 1185.0896,419.42154 C 1184.7714,431.00065 1184.3455,442.58877 1184.7146,454.17154 C 1206.3161,460.46489 1225.1205,474.58108 1238.277,492.76529 L 1238.8708,492.76529 C 1244.7449,492.7653 1250.3734,491.70305 1255.5583,489.76529 C 1255.5583,466.29654 1255.5583,442.82779 1255.5583,419.35904 C 1241.2443,419.37188 1226.9331,419.32557 1212.6208,419.32779 C 1210.2354,419.32816 1207.8498,419.32145 1205.4646,419.32779 C 1204.8682,419.32937 1204.2796,419.325 1203.6833,419.32779 z M 1304.902,419.35904 C 1304.9021,441.27571 1304.9021,463.19238 1304.902,485.10904 C 1308.0209,487.14136 1311.3888,488.82039 1314.9646,490.07779 C 1328.1649,472.51837 1346.5976,458.8335 1367.8708,452.95279 C 1367.4863,441.7576 1367.9792,430.55681 1367.9333,419.35904 C 1346.9229,419.35905 1325.9125,419.35904 1304.902,419.35904 z "
     id="path7593" />
  <path
     style="opacity:1;color:#000000;fill:#ffe4a3;fill-opacity:1;fill-rule:nonzero;stroke:#d27700;stroke-width:6;stroke-linecap:butt;stroke-linejoin:miter;marker:none;marker-start:none;marker-mid:none;marker-end:none;stroke-miterlimit:4;stroke-dasharray:none;stroke-dashoffset:0;stroke-opacity:1"
     d="M 281,260.75 C 208.25028,261.49159 133.29709,282.08253 77.46875,330.09375 C 44.036974,359.00551 19.392879,401.83209 21.398539,447.21867 C 21.345657,509.47549 20.826913,571.75984 21.75,634 C 25.667996,680.27799 55.207576,720.85719 91.934152,747.4001 C 150.99714,790.86737 226.12387,807.07632 298.59375,805.15625 C 348.30718,804.90513 398.06914,806.18956 447.75,804.21875 C 516.00994,799.34018 585.43431,776.22822 635.5,728.28125 C 665.46025,699.38346 685.83198,658.45003 683.5,616.03125 C 683.24933,554.30623 684.18379,492.54789 682.96875,430.84375 C 678.64667,384.89464 649.24559,344.84199 612.7558,318.40904 C 554.25036,275.52952 480.12461,259.13238 408.40625,260.71875 C 365.9375,260.72617 323.46873,260.69687 281,260.75 z "
     id="rect6695" />
  <path
     style="opacity:1;color:black;fill:#d49400;fill-opacity:1;fill-rule:nonzero;stroke:#b84300;stroke-width:2.4000001;stroke-linecap:butt;stroke-linejoin:miter;marker:none;marker-start:none;marker-mid:none;marker-end:none;stroke-miterlimit:4;stroke-dasharray:none;stroke-dashoffset:0;stroke-opacity:1"
     d="M 303.34375,282.46875 C 267.89089,282.94625 231.99551,284.22012 197.625,293.28125 C 220.04988,298.20596 240.74162,311.7701 252.34375,331.71875 C 271.10381,307.93725 311.59919,304.22745 332.96875,326.625 C 334.76144,328.2954 336.44133,330.19208 338.03125,332.125 C 337.56785,320.10574 339.20845,305.61955 350.59375,298.9375 C 361.92384,291.33407 378.38863,291.4839 388.78125,300.53125 C 401.87418,297.42143 415.76151,300.9937 428.21875,304.65625 C 450.74367,312.76462 469.80868,329.52924 480.5,351 C 496.62897,326.66094 524.63115,310.62942 553.9375,309.625 C 501.90887,286.22596 443.89249,280.47854 387.25023,282.8863 C 359.28068,283.10235 331.31341,282.29081 303.34375,282.46875 z M 170.25,352.0625 C 167.91292,352.22071 162.34413,352.4596 161.75,353.1875 C 174.70716,359.08925 180.80594,373.8434 179.8125,387.5 C 179.84194,395.48648 178.33008,404.05198 179.1875,411.6875 C 186.72886,407.20587 196.63766,404.81753 200.09375,395.8125 C 207.99146,381.49397 202.48562,360.2393 186.3125,354.78125 C 181.23764,352.60189 175.74029,351.84607 170.25,352.0625 z M 399.0625,366.3125 C 399.31208,384.39203 398.62913,402.825 399.625,420.6875 C 420.35581,420.36346 436.16882,393.1018 423.0625,375.78125 C 417.8031,367.71814 408.61588,362.46341 399.09375,361.59375 C 399.08333,363.16667 399.07292,364.73958 399.0625,366.3125 z M 70.125,369.5 C 50.280136,395.20806 39.808149,428.1739 43.427754,460.74988 C 44.269116,522.7425 40.568844,584.95016 45.96875,646.78125 C 49.998753,664.14925 58.192611,680.41766 68.96875,694.625 C 69.4322,590.04553 67.874041,485.44305 69.646882,380.8786 C 69.908014,376.85112 70.19004,372.82177 70.65625,368.8125 L 70.125,369.5 z M 554.375,372.21875 C 531.6377,372.73687 518.92862,405.28724 535.5,421.0625 C 546.64026,433.62216 570.46511,432.8869 578.5625,417.28125 C 588.81224,401.70965 580.87792,377.1845 562.21875,373.125 C 559.67885,372.43927 557.02366,372.04508 554.375,372.21875 z M 643.78125,384.03125 C 646.77589,399.48838 645.6767,415.8101 640.5625,430.71875 C 663.36072,474.10991 643.71501,534.18425 599.0625,554.75 C 587.8911,560.16427 574.87682,560.66244 563.84375,566.03125 C 551.17026,574.3627 550.42976,591.54196 551.62583,605.18441 C 552.34396,611.45116 551.30365,618.27243 552.0625,624.3125 C 584.98139,635.4137 611.22572,664.29515 621.03125,697.65625 C 622.16195,701.42268 623.08069,705.25076 623.78125,709.125 C 651.44117,681.11651 666.09972,640.92336 661.49829,601.56277 C 660.32512,541.13475 664.26768,480.4922 659,420.21875 C 656.12063,406.83644 650.63483,394.16353 643.46875,382.46875 L 643.66487,383.44933 L 643.78125,384.03125 z M 474.59375,441.375 C 468.84177,450.19299 461.60422,458.10112 453.21875,464.5 C 465.91679,464.49941 478.61494,464.54308 491.3125,464.65625 C 484.70504,457.62064 479.17618,449.4847 475.03125,440.71875 L 474.59375,441.375 z M 239.875,445.5 C 228.12988,457.48057 213.00683,467.3011 196.0625,469.625 C 190.2061,468.71514 184.47921,466.88417 179.46875,463.6875 C 179.48061,476.18267 179.12181,488.74042 177.21875,501.09375 C 193.67873,500.01561 211.4136,503.69553 226.90625,497.125 C 242.93006,485.05619 240.32226,463.30268 240.21875,445.53125 L 240.21875,445.15625 L 239.875,445.5 z M 579.5625,489.125 C 576.80404,489.87343 572.56394,490.60722 570.75,491.0625 C 574.20178,491.28292 577.6567,490.57007 580.6875,488.8125 L 579.72398,489.08014 L 579.5625,489.125 z M 159.5625,562.96875 C 149.83085,563.48137 140.08352,563.28757 130.34375,563.25 C 130.3285,582.7914 129.95649,602.3383 130.5625,621.875 C 148.54923,618.19141 169.45156,626.67983 185.21875,614.46875 C 200.97538,601.34094 196.52714,570.67017 175.84375,565.0625 C 170.62288,563.30285 165.04459,562.84046 159.5625,562.96875 z M 256.84375,586.90625 C 257.47722,601.02015 254.89416,615.22749 249.53125,628.25 C 252.98341,626.42952 259.30998,626.42298 257.59375,621.09375 C 257.54811,609.53999 259.59449,597.75787 256.8125,586.375 L 256.84375,586.90625 z M 319.65625,600.28125 C 318.87364,605.65646 319.70973,611.60048 319.15625,617.15625 C 319.26098,621.10398 317.83487,626.30872 323.1875,626.59375 C 346.33902,635.60687 365.80699,653.05162 378.15625,674.5 C 378.15625,649.90625 378.15625,625.3125 378.15625,600.71875 C 358.66067,600.46899 339.11419,601.38241 319.65625,600.28125 z M 439.5,660.90625 C 452.44104,644.0633 470.11725,630.56985 490.375,623.96875 C 490.20541,616.2292 490.49123,608.48972 490.5,600.75 C 473.5,600.75 456.5,600.75 439.5,600.75 C 439.5,620.80208 439.5,640.85417 439.5,660.90625 z M 196.21875,678.59375 C 192.23558,680.43157 184.39435,679.86376 186.1875,686.15625 C 186.27116,691.67969 186.51193,697.19899 186.71875,702.71875 C 189.00381,694.40321 192.44162,686.12137 196.21875,678.59375 z M 391.59375,712.96875 C 394.16289,725.18091 392.89731,740.00872 381.90625,747.8125 C 369.05604,758.57242 346.37246,756.33333 338.1875,740.84375 C 336.3164,738.80457 336.65397,731.74948 333.125,735.65625 C 317.64954,745.02666 298.71325,738.66832 281.71875,740.6875 C 268.17206,741.54092 252.95638,741.52151 242.03125,732.46875 C 237.86446,750.34086 215.04812,760.69246 199.0625,751.0625 C 192.01493,747.31512 187.15302,740.20874 184.875,732.65625 C 182.64461,749.65383 162.4552,757.44205 147.375,753.09375 C 138.64887,750.9358 130.75689,744.51734 128,735.8125 C 127.39164,738.19124 123.42579,740.8094 124.46875,742.5625 C 182.61369,777.23849 252.01984,786.32044 318.81248,782.9589 C 386.25727,782.40202 455.71387,788.79071 521.00187,768.61951 C 539.90844,762.81624 558.24941,755.21053 575.46875,745.40625 C 572.14017,742.62678 570.14158,737.66021 568,734.78125 C 554.02477,744.48111 535.97801,739.68252 520.12625,740.39369 C 504.75278,741.17229 486.41746,742.98225 474.5625,731.3125 C 470.64812,750.71147 445.19899,759.72103 429.25,748.6875 C 417.21568,740.71056 414.07868,724.31042 417,710.875 C 408.40625,710.875 399.8125,710.875 391.21875,710.875 C 391.34375,711.57292 391.46875,712.27083 391.59375,712.96875 z "
     id="rect6693" />
  <path
     d="M 157.22215,308.55464 L 156.28465,308.58589 C 119.05148,309.30648 89.030798,341.10561 87.159648,380.92965 L 87.003398,380.92965 L 87.003398,518.99215 L 86.503398,518.99215 L 86.503398,545.2734 L 87.003398,545.2734 L 87.003398,722.86715 L 87.253398,722.86715 C 87.513728,729.96225 93.129448,735.64845 100.03465,735.64845 C 107.10558,735.64845 112.84715,729.69985 112.84715,722.36715 L 112.84715,722.11715 C 112.82666,720.9281 112.6485,719.8029 112.34715,718.711 L 112.34715,545.2734 L 166.72215,545.2734 L 166.72215,545.3359 C 191.92799,545.44223 212.42757,565.89136 212.8784,591.4609 L 212.90965,592.30465 C 212.90968,617.58289 193.1949,638.2118 168.5034,639.2422 L 168.5034,639.0234 L 143.15965,639.0234 L 143.15965,722.86715 L 143.40965,722.86715 C 143.40407,723.02805 143.40965,723.20485 143.40965,723.36715 C 143.40965,730.69985 149.15122,736.64845 156.22215,736.64845 C 163.29308,736.64845 169.00341,730.69985 169.0034,723.36715 L 169.0034,723.11715 C 168.98233,721.89485 168.82066,720.705 168.5034,719.586 L 168.5034,665.6797 C 207.57748,664.6265 238.97213,632.16262 238.97215,592.30465 L 238.9409,590.99215 C 238.63632,573.71757 232.4857,557.92053 222.40965,545.55465 C 222.93688,545.46923 223.48002,545.37028 224.0034,545.2734 L 229.78465,545.2734 L 229.78465,546.30465 C 254.99047,546.41098 275.49007,566.86011 275.9409,592.42965 L 275.9409,607.1484 L 275.9409,639.0547 C 237.12139,645.1397 206.43348,679.5582 201.3159,722.86715 L 201.5034,722.86715 C 201.49824,723.02805 201.5034,723.20485 201.5034,723.36715 C 201.5034,730.69985 206.7997,736.64845 213.34715,736.64845 C 219.8946,736.64845 225.22215,730.69985 225.22215,723.36715 L 225.22215,723.11715 C 225.20752,722.20025 225.11252,721.2914 224.9409,720.4297 C 231.15703,688.4106 256.5087,664.2625 287.0034,663.6172 C 287.42058,663.6084 287.83434,663.6172 288.2534,663.6172 C 319.2663,663.6172 345.23034,687.8177 351.5659,720.3047 C 351.36006,721.2844 351.28465,722.31745 351.28465,723.36715 C 351.28465,730.69985 356.58095,736.64845 363.1284,736.64845 C 369.67585,736.64845 375.00341,730.69985 375.0034,723.36715 L 375.0034,723.11715 C 375.00203,723.03145 374.97495,722.95245 374.97215,722.86715 L 375.1909,722.86715 C 370.10757,679.695 339.75936,645.5522 301.28465,639.1797 L 301.28465,607.1484 L 301.28465,593.7734 L 302.03465,593.7734 C 302.03564,593.61556 302.03465,593.43144 302.03465,593.2734 L 302.0034,591.9609 C 301.94831,588.83653 301.71123,585.75758 301.28465,582.74215 L 396.15965,582.74215 L 396.15965,692.8672 L 421.5034,692.8672 L 421.5034,582.74215 L 508.47215,582.74215 L 508.47215,638.0859 C 469.35656,644.218 438.51532,679.0961 433.7534,722.86715 L 434.0659,722.86715 C 434.30696,729.96225 439.51566,735.64845 445.90965,735.64845 C 452.4571,735.64845 457.75339,729.69985 457.7534,722.36715 L 457.7534,722.11715 C 457.73804,721.1546 457.62887,720.2373 457.4409,719.336 C 463.68523,687.3561 489.06495,663.2619 519.53465,662.6172 C 519.95182,662.6084 520.36559,662.6172 520.78465,662.6172 C 551.84274,662.6172 577.81125,686.9016 584.09715,719.461 C 583.91133,720.3945 583.8159,721.37125 583.8159,722.36715 C 583.8159,729.69985 589.14348,735.64845 595.6909,735.64845 C 602.08489,735.64845 607.29359,729.96225 607.53464,722.86715 L 607.84714,722.86715 C 603.12296,679.2133 572.60349,644.6197 533.8159,638.2109 L 533.8159,617.99215 L 533.84715,617.99215 L 533.84715,588.17965 C 533.85254,587.98527 533.83948,587.77968 533.84715,587.5859 C 534.63495,567.69114 547.42626,551.01831 564.9409,545.30465 C 564.94802,545.3046 564.97073,545.30447 564.97215,545.30465 C 602.48651,542.55802 632.12837,510.80598 632.12839,472.0859 L 632.09714,470.7734 C 631.84591,456.52483 627.60263,443.28682 620.47214,432.1484 C 620.47205,432.14129 620.47183,432.11862 620.47214,432.11715 C 624.80332,422.70649 627.22213,412.21128 627.22214,401.1484 L 627.19089,399.8359 C 626.49366,360.29047 595.11727,328.57356 556.28465,327.77339 L 556.28465,327.74214 C 556.1614,327.74245 556.03275,327.74121 555.90965,327.74214 C 555.87893,327.74167 555.84663,327.74257 555.8159,327.74214 C 555.69284,327.74323 555.56382,327.74043 555.4409,327.74214 C 555.41013,327.74187 555.37793,327.74237 555.34715,327.74214 C 555.22427,327.74401 555.09488,327.73966 554.97215,327.74214 C 554.94147,327.74276 554.90907,327.74148 554.8784,327.74214 C 554.72683,327.7454 554.56099,327.73794 554.40965,327.74214 C 515.81742,328.81344 484.76005,360.46706 484.0659,399.8359 L 484.03465,401.1484 C 484.03467,441.16441 515.68245,473.71654 554.97215,474.5234 L 554.97215,474.55465 C 555.18916,474.55409 555.41184,474.55715 555.6284,474.55465 C 555.69033,474.55536 555.75394,474.55409 555.8159,474.55465 C 555.82621,474.5545 555.83684,474.5548 555.84715,474.55465 C 555.99239,474.55589 556.13921,474.55428 556.28465,474.55465 C 574.2929,474.18582 590.67126,467.11488 603.15965,455.74215 C 604.93053,460.57991 605.93858,465.79333 606.03465,471.24215 L 606.0659,472.0859 C 606.06591,481.33066 603.43161,489.97011 598.8784,497.24215 C 598.8731,497.24791 598.85523,497.26532 598.84715,497.2734 C 598.82145,497.30478 598.7792,497.36712 598.7534,497.3984 C 598.74667,497.40614 598.72926,497.42202 598.72215,497.42965 C 598.72206,497.43675 598.72186,497.45941 598.72215,497.4609 C 592.06266,504.59637 582.55719,509.0234 572.03465,509.0234 C 559.94338,509.0234 549.23107,503.12645 542.59715,494.05465 C 542.59165,494.04873 542.57096,494.02826 542.5659,494.0234 C 542.56161,494.01813 542.53955,493.99738 542.53465,493.99215 C 542.52932,493.98696 542.50899,493.96607 542.5034,493.9609 C 542.49228,493.9557 542.45184,493.93487 542.4409,493.92965 C 542.44119,493.92803 542.44099,493.90546 542.4409,493.8984 C 542.44119,493.89675 542.44099,493.8742 542.4409,493.86715 C 535.78931,486.81734 526.32674,482.42966 515.8784,482.42965 C 515.64257,482.42965 515.39443,482.42518 515.15965,482.42965 C 515.00498,482.43259 514.84511,482.42478 514.6909,482.42965 C 514.62397,482.43177 514.53697,482.4287 514.47215,482.42965 C 514.00152,482.44744 513.53205,482.48754 513.0659,482.5234 L 512.78465,482.5234 L 283.53465,482.5234 L 283.53465,471.8984 L 283.53465,367.11715 L 283.9409,367.11715 C 283.94091,361.13355 288.6564,356.22952 294.5659,355.92965 C 294.75653,355.92 294.93538,355.92965 295.1284,355.92965 C 301.23478,355.9297 306.20679,360.82427 306.3159,366.92965 L 306.3159,367.11715 L 307.47215,367.11715 L 307.47215,432.17965 L 306.9409,432.17965 C 306.9409,452.36568 322.97053,468.85845 342.97215,469.61715 C 343.05059,469.62011 343.11231,469.61463 343.1909,469.61715 C 343.59152,469.62983 343.97465,469.61713 344.3784,469.61715 C 364.81213,469.61713 381.45071,453.26635 381.8159,432.8359 L 381.84715,432.17965 L 381.09715,432.17965 L 381.09715,323.92964 C 381.09715,316.91147 375.4278,311.27339 368.40965,311.27339 C 368.16292,311.2734 367.93406,311.25961 367.6909,311.27339 C 361.01738,311.65159 355.7534,317.15817 355.7534,323.92964 L 355.7534,432.17965 L 355.5659,432.17965 L 355.5659,432.36715 C 355.45679,438.47254 350.48472,443.3671 344.3784,443.36715 C 344.18538,443.36713 344.00647,443.3768 343.8159,443.36715 C 337.9064,443.06726 333.19085,438.16325 333.1909,432.17965 L 332.8159,432.17965 L 332.8159,365.17965 L 332.53465,365.17965 C 331.50823,345.35623 315.12951,329.67964 295.1284,329.67964 C 294.72471,329.67966 294.34152,329.66694 293.9409,329.67964 C 293.86237,329.68216 293.80059,329.67666 293.72215,329.67964 C 273.72059,330.43834 257.6909,346.93113 257.6909,367.11715 L 258.1909,367.11715 L 258.1909,471.8984 L 258.1909,472.55465 L 257.2534,472.55465 C 257.25501,472.71598 257.2534,472.8929 257.2534,473.05465 L 257.22215,473.8984 C 256.83022,496.12721 241.2755,514.50441 220.65965,518.99215 L 170.40965,518.99215 L 169.9409,518.99215 C 168.87401,518.9422 167.80054,518.90113 166.72215,518.8984 L 166.72215,518.99215 L 112.34715,518.99215 L 112.34715,384.67965 L 112.4409,384.67965 C 112.54299,358.11754 132.17317,336.52973 156.72215,336.05464 L 157.22215,336.02339 L 157.22215,334.42964 L 175.59715,334.42964 L 175.59715,334.46089 C 200.803,334.56721 221.30257,355.01636 221.7534,380.5859 L 221.78465,381.42965 C 221.78468,400.83391 210.14075,417.51106 193.5659,424.67965 C 193.5402,424.68616 193.49779,424.70423 193.47215,424.7109 C 193.46683,424.71635 193.44598,424.73652 193.4409,424.74215 C 193.43766,424.74184 193.41244,424.74224 193.40965,424.74215 C 193.30735,424.76947 193.19844,424.80604 193.09715,424.8359 C 187.72857,426.41822 183.78466,431.51354 183.78465,437.5859 C 183.78465,444.91857 189.52622,450.89843 196.59715,450.8984 C 197.9119,450.8984 199.18409,450.65552 200.3784,450.2734 C 200.37804,450.28487 200.37787,450.32381 200.3784,450.3359 C 200.37844,450.33984 200.37852,450.36333 200.3784,450.36715 C 228.07564,440.05349 247.84713,413.06313 247.84715,381.42965 L 247.8159,380.11715 C 247.11078,340.12525 219.96235,309.12329 175.59715,309.02339 L 157.22215,309.02339 L 157.22215,308.55464 z M 553.84715,354.17965 C 553.94157,354.17429 554.03383,354.18443 554.1284,354.17965 C 554.22334,354.17485 554.31456,354.18387 554.40965,354.17965 C 554.50511,354.17541 554.59529,354.1833 554.6909,354.17965 C 554.78688,354.17598 554.87602,354.18272 554.97215,354.17965 C 555.07061,354.18007 555.15508,354.17861 555.2534,354.17965 C 555.29694,354.17852 555.33484,354.18066 555.3784,354.17965 C 555.43735,354.18042 555.507,354.17866 555.5659,354.17965 C 555.60514,354.17889 555.65163,354.18031 555.6909,354.17965 C 555.7454,354.18072 555.79269,354.17839 555.84715,354.17965 C 555.89082,354.17907 555.92845,354.18011 555.97215,354.17965 C 580.71777,354.81449 600.68355,375.07431 601.1284,400.30465 L 601.15965,401.1484 C 601.15971,426.68657 581.01884,447.51668 555.97215,448.1484 C 555.9426,448.1481 555.90794,448.14876 555.8784,448.1484 C 530.55182,447.83989 510.09712,426.89197 510.09715,401.1484 L 510.1284,400.30465 C 510.56461,375.56456 529.77029,355.54524 553.84715,354.17965 z M 283.40965,507.86715 L 283.78465,507.86715 L 490.7534,507.86715 L 524.3784,507.86715 L 524.3784,518.9609 L 490.7534,518.9609 L 490.7534,518.99215 L 283.78465,518.99215 C 283.78492,518.98365 283.78445,518.96938 283.78465,518.9609 L 283.40965,518.9609 L 283.40965,507.86715 z M 301.28465,545.2734 L 508.5034,545.2734 L 508.5034,557.3984 L 301.28465,557.3984 L 301.28465,545.2734 z M 148.68505,368.43194 C 155.70323,368.43194 161.35324,374.08195 161.35324,381.10013 L 161.35324,491.02652 C 161.35324,498.0447 155.70323,503.69471 148.68505,503.69471 C 141.66687,503.69471 136.01686,498.0447 136.01686,491.02652 L 136.01686,381.10013 C 136.01686,374.08195 141.66687,368.43194 148.68505,368.43194 z M 250.57756,709.9928 C 250.57756,717.0109 256.22757,722.66085 263.24575,722.66085 L 316.44077,722.66085 C 323.45895,722.66085 329.10896,717.0109 329.10896,709.9928 C 329.10896,702.9746 323.45895,697.3246 316.44077,697.3246 L 263.24575,697.3246 C 256.22757,697.3246 250.57756,702.9746 250.57756,709.9928 z M 484.10738,709.9928 C 484.10738,717.0109 489.75739,722.66085 496.77557,722.66085 L 549.97059,722.66085 C 556.98877,722.66085 562.63878,717.0109 562.63878,709.9928 C 562.63878,702.9746 556.98877,697.3246 549.97059,697.3246 L 496.77557,697.3246 C 489.75739,697.3246 484.10738,702.9746 484.10738,709.9928 z M 399.27923,317.87873 L 399.27923,344.31624 C 424.48507,344.42257 444.98465,364.8717 445.43548,390.44124 L 445.46673,391.28499 C 445.46676,417.15966 424.78405,438.18657 399.27923,438.28499 L 399.27923,464.69124 C 439.17119,464.5887 471.52921,431.74352 471.52923,391.28499 L 471.49798,389.97249 C 470.79285,349.98061 438.71764,317.97863 399.27923,317.87873 z "
     style="color:#000000;fill:#ffb60d;fill-opacity:1;fill-rule:nonzero;stroke:#f68b00;stroke-width:2.4000001;stroke-linecap:butt;stroke-linejoin:miter;marker:none;marker-start:none;marker-mid:none;marker-end:none;stroke-miterlimit:4;stroke-dasharray:none;stroke-dashoffset:0;stroke-opacity:1"
     id="path6697" />
  <path
     style="opacity:1;color:#000000;fill:#d49400;fill-opacity:1;fill-rule:nonzero;stroke:#b84300;stroke-width:2.4000001;stroke-linecap:butt;stroke-linejoin:miter;marker:none;marker-start:none;marker-mid:none;marker-end:none;stroke-miterlimit:4;stroke-dasharray:none;stroke-dashoffset:0;stroke-opacity:1"
     d="M 1074.5 852.65625 C 1074.2342 852.6572 1073.9847 852.68168 1073.7188 852.6875 C 1073.6287 852.68945 1073.5563 852.68095 1073.4688 852.6875 C 1073.4633 852.6879 1073.4426 852.68766 1073.4375 852.6875 C 1073.4325 852.68721 1073.4115 852.68749 1073.4062 852.6875 C 1073.3535 852.69423 1073.2733 852.71174 1073.2188 852.71875 C 1073.2099 852.71953 1073.196 852.71846 1073.1875 852.71875 C 1062.4109 853.14522 1051.0436 857.82994 1043.4375 864.65625 C 1056.5772 861.72671 1070.1146 864.89099 1083.4062 863.34375 C 1090.4848 863.07543 1098.7422 863.42161 1105.0938 863.78125 C 1096.5335 856.80617 1085.5768 852.61659 1074.5 852.65625 z M 841.25 853.6875 C 841.20305 853.69209 841.17282 853.71716 841.125 853.71875 C 840.9523 853.72445 840.76653 853.74205 840.59375 853.75 C 830.54193 854.17067 820.93218 857.93196 812.96875 864.03125 C 824.94437 862.31515 837.11064 864.70149 849.15625 863.40625 C 856.57354 863.23201 864.0155 863.16586 871.40625 863.90625 C 862.92057 857.56594 852.49202 853.53651 841.875 853.6875 C 841.74761 853.68929 841.62377 853.6812 841.5 853.6875 C 841.42265 853.69142 841.32825 853.67985 841.25 853.6875 z M 938.1875 864.59375 C 936.48432 865.72228 934.72264 866.72751 932.875 867.59375 C 938.13202 880.13059 940.92572 893.6734 940.59375 907.375 C 937.95635 924.10562 914.6738 933.43787 902 921.3125 C 895.47511 916.04353 893.8398 906.88433 892.6875 899.40625 C 886.52051 912.00248 870.5406 914.59197 857.875 912.71875 C 841.59602 911.25798 824.74426 915.5074 808.84375 911.0625 C 800.4275 908.73273 794.10587 901.10648 793.15625 892.46875 C 791.3428 898.53762 791.47873 905.4141 789.46875 911.375 L 789.46875 964.09375 C 814.4656 967.49008 839.86417 968.34682 864.90625 967.21875 C 925.28341 966.33553 986.46171 971.57212 1046.125 960.28125 C 1075.8742 954.27802 1105.0625 944.24535 1131.5312 929.34375 L 1131.5312 916.84375 C 1128.0478 912.29104 1125.9934 906.55813 1125.4688 900.875 C 1118.6594 912.18352 1104.0734 914.28732 1092 912.90625 C 1075.9438 911.08103 1059.4848 915.21203 1043.6875 911.46875 C 1033.4339 909.24203 1026.1602 899.32033 1026.375 888.96875 C 1023.2401 895.91883 1023.6201 903.73943 1022.0312 910.9375 C 1016.2109 926.38222 992.01215 931.46439 982.09375 917.375 C 973.97785 907.90315 975.33265 894.18224 978.65625 883.0625 C 965.16677 883.06249 951.6771 883.0625 938.1875 883.0625 C 938.1875 876.90625 938.1875 870.75 938.1875 864.59375 z "
     id="path7612" />
</svg>
