<?xml version="1.0" encoding="UTF-8" standalone="no"?>
<!-- Created with Inkscape (http://www.inkscape.org/) -->
<svg
   xmlns:dc="http://purl.org/dc/elements/1.1/"
   xmlns:cc="http://web.resource.org/cc/"
   xmlns:rdf="http://www.w3.org/1999/02/22-rdf-syntax-ns#"
   xmlns:svg="http://www.w3.org/2000/svg"
   xmlns="http://www.w3.org/2000/svg"
   xmlns:sodipodi="http://inkscape.sourceforge.net/DTD/sodipodi-0.dtd"
   xmlns:inkscape="http://www.inkscape.org/namespaces/inkscape"
   id="svg2206"
   sodipodi:version="0.32"
   inkscape:version="0.43"
   width="210mm"
   height="297mm"
   sodipodi:docbase="/home/carlo"
   sodipodi:docname="pindo.svg">
  <metadata
     id="metadata2211">
    <rdf:RDF>
      <cc:Work
         rdf:about="">
        <dc:format>image/svg+xml</dc:format>
        <dc:type
           rdf:resource="http://purl.org/dc/dcmitype/StillImage" />
      </cc:Work>
    </rdf:RDF>
  </metadata>
  <defs
     id="defs2209" />
  <sodipodi:namedview
     inkscape:cy="398.83642"
     inkscape:cx="372.04724"
     inkscape:zoom="0.35919193"
     inkscape:window-height="539"
     inkscape:window-width="776"
     inkscape:pageshadow="2"
     inkscape:pageopacity="0.0"
     borderopacity="1.0"
     bordercolor="#666666"
     pagecolor="#ffffff"
     id="base"
     inkscape:window-x="5"
     inkscape:window-y="48"
     inkscape:current-layer="svg2206" />
  <path
     id="path2218"
     style="color:#000000;fill:#ffb60d;fill-opacity:1;fill-rule:nonzero;stroke:#f68b00;stroke-width:2.4;stroke-linecap:butt;stroke-linejoin:miter;stroke-miterlimit:4;stroke-dashoffset:0;stroke-opacity:1;marker:none;marker-start:none;marker-mid:none;marker-end:none;stroke-dasharray:none"
     d="M 182.55853,149.62651 L 181.62103,149.65776 C 144.38786,150.37835 114.36718,182.17747 112.49603,222.00151 L 112.33978,222.00151 L 112.33978,360.06401 L 111.83978,360.06401 L 111.83978,386.34526 L 112.33978,386.34526 L 112.33978,563.93901 L 112.58978,563.93901 C 112.85011,571.03413 118.46583,576.72029 125.37103,576.72026 C 132.44196,576.72026 138.18353,570.77169 138.18353,563.43901 L 138.18353,563.18901 C 138.16304,561.99987 137.98488,560.87465 137.68353,559.78276 L 137.68353,386.34526 L 192.05853,386.34526 L 192.05853,386.40776 C 217.26437,386.51409 237.76395,406.96322 238.21478,432.53276 L 238.24603,433.37651 C 238.24606,458.65475 218.53128,479.28361 193.83978,480.31401 L 193.83978,480.09526 L 168.49603,480.09526 L 168.49603,563.93901 L 168.74603,563.93901 C 168.74045,564.09992 168.74603,564.2767 168.74603,564.43901 C 168.74603,571.77168 174.4876,577.72027 181.55853,577.72026 C 188.62946,577.72026 194.33979,571.77168 194.33978,564.43901 L 194.33978,564.18901 C 194.31871,562.96667 194.15704,561.77678 193.83978,560.65776 L 193.83978,506.75151 C 232.91386,505.69833 264.30851,473.23448 264.30853,433.37651 L 264.27728,432.06401 C 263.9727,414.78943 257.82208,398.99239 247.74603,386.62651 C 248.27326,386.54109 248.8164,386.44214 249.33978,386.34526 L 255.12103,386.34526 L 255.12103,387.37651 C 280.32685,387.48284 300.82645,407.93197 301.27728,433.50151 L 301.27728,448.22026 L 301.27728,480.12651 C 262.45777,486.21146 231.76986,520.63005 226.65228,563.93901 L 226.83978,563.93901 C 226.83462,564.09992 226.83978,564.2767 226.83978,564.43901 C 226.83978,571.77168 232.13608,577.72027 238.68353,577.72026 C 245.23098,577.72026 250.55853,571.77168 250.55853,564.43901 L 250.55853,564.18901 C 250.5439,563.27211 250.4489,562.36321 250.27728,561.50151 C 256.49341,529.48237 281.84508,505.33426 312.33978,504.68901 C 312.75696,504.68018 313.17072,504.68901 313.58978,504.68901 C 344.60268,504.68899 370.56672,528.88947 376.90228,561.37651 C 376.69644,562.35621 376.62103,563.38927 376.62103,564.43901 C 376.62103,571.77168 381.91733,577.72027 388.46478,577.72026 C 395.01223,577.72026 400.33979,571.77168 400.33978,564.43901 L 400.33978,564.18901 C 400.33841,564.10331 400.31133,564.0243 400.30853,563.93901 L 400.52728,563.93901 C 395.44395,520.76682 365.09574,486.62404 326.62103,480.25151 L 326.62103,448.22026 L 326.62103,434.84526 L 327.37103,434.84526 C 327.37202,434.68742 327.37103,434.5033 327.37103,434.34526 L 327.33978,433.03276 C 327.28469,429.90839 327.04761,426.82944 326.62103,423.81401 L 421.49603,423.81401 L 421.49603,533.93901 L 446.83978,533.93901 L 446.83978,423.81401 L 533.80853,423.81401 L 533.80853,479.15776 C 494.69294,485.28983 463.8517,520.16787 459.08978,563.93901 L 459.40228,563.93901 C 459.64334,571.03413 464.85204,576.72029 471.24603,576.72026 C 477.79348,576.72026 483.08977,570.77169 483.08978,563.43901 L 483.08978,563.18901 C 483.07442,562.22637 482.96525,561.30907 482.77728,560.40776 C 489.02161,528.42795 514.40133,504.33372 544.87103,503.68901 C 545.2882,503.68017 545.70197,503.68901 546.12103,503.68901 C 577.17912,503.68898 603.14763,527.97336 609.43353,560.53276 C 609.24771,561.46625 609.15228,562.44311 609.15228,563.43901 C 609.15228,570.77168 614.47986,576.72029 621.02728,576.72026 C 627.42127,576.72026 632.62997,571.03414 632.87102,563.93901 L 633.18352,563.93901 C 628.45934,520.28511 597.93987,485.6915 559.15228,479.28276 L 559.15228,459.06401 L 559.18353,459.06401 L 559.18353,429.25151 C 559.18892,429.05713 559.17586,428.85154 559.18353,428.65776 C 559.97133,408.763 572.76264,392.09017 590.27728,386.37651 C 590.2844,386.37646 590.30711,386.37633 590.30853,386.37651 C 627.82289,383.62988 657.46475,351.87784 657.46477,313.15776 L 657.43352,311.84526 C 657.18229,297.59669 652.93901,284.35868 645.80852,273.22026 C 645.80843,273.21315 645.80821,273.19048 645.80852,273.18901 C 650.1397,263.77835 652.55851,253.28314 652.55852,242.22026 L 652.52727,240.90776 C 651.83004,201.36233 620.45365,169.64543 581.62103,168.84526 L 581.62103,168.81401 C 581.49778,168.81432 581.36913,168.81308 581.24603,168.81401 C 581.21531,168.81354 581.18301,168.81444 581.15228,168.81401 C 581.02922,168.8151 580.9002,168.8123 580.77728,168.81401 C 580.74651,168.81374 580.71431,168.81424 580.68353,168.81401 C 580.56065,168.81588 580.43126,168.81153 580.30853,168.81401 C 580.27785,168.81463 580.24545,168.81335 580.21478,168.81401 C 580.06321,168.81727 579.89737,168.80981 579.74603,168.81401 C 541.1538,169.88531 510.09643,201.53892 509.40228,240.90776 L 509.37103,242.22026 C 509.37105,282.23627 541.01883,314.7884 580.30853,315.59526 L 580.30853,315.62651 C 580.52554,315.62595 580.74822,315.62901 580.96478,315.62651 C 581.02671,315.62722 581.09032,315.62595 581.15228,315.62651 C 581.16259,315.62636 581.17322,315.62666 581.18353,315.62651 C 581.32877,315.62775 581.47559,315.62614 581.62103,315.62651 C 599.62928,315.25768 616.00764,308.18674 628.49603,296.81401 C 630.26691,301.65177 631.27496,306.86519 631.37103,312.31401 L 631.40228,313.15776 C 631.40229,322.40252 628.76799,331.04197 624.21478,338.31401 C 624.20948,338.31977 624.19161,338.33718 624.18353,338.34526 C 624.15783,338.37664 624.11558,338.43898 624.08978,338.47026 C 624.08305,338.478 624.06564,338.49388 624.05853,338.50151 C 624.05844,338.50861 624.05824,338.53127 624.05853,338.53276 C 617.39904,345.66823 607.89357,350.09526 597.37103,350.09526 C 585.27976,350.09526 574.56745,344.19831 567.93353,335.12651 C 567.92803,335.12059 567.90734,335.10012 567.90228,335.09526 C 567.89799,335.08999 567.87593,335.06924 567.87103,335.06401 C 567.8657,335.05882 567.84537,335.03793 567.83978,335.03276 C 567.82866,335.02756 567.78822,335.00673 567.77728,335.00151 C 567.77757,334.99989 567.77737,334.97732 567.77728,334.97026 C 567.77757,334.96861 567.77737,334.94606 567.77728,334.93901 C 561.12569,327.8892 551.66312,323.50152 541.21478,323.50151 C 540.97895,323.50151 540.73081,323.49704 540.49603,323.50151 C 540.34136,323.50445 540.18149,323.49664 540.02728,323.50151 C 539.96035,323.50363 539.87335,323.50056 539.80853,323.50151 C 539.3379,323.5193 538.86843,323.5594 538.40228,323.59526 L 538.12103,323.59526 L 308.87103,323.59526 L 308.87103,312.97026 L 308.87103,208.18901 L 309.27728,208.18901 C 309.27729,202.20541 313.99278,197.30138 319.90228,197.00151 C 320.09291,196.99186 320.27176,197.00151 320.46478,197.00151 C 326.57116,197.00156 331.54317,201.89613 331.65228,208.00151 L 331.65228,208.18901 L 332.80853,208.18901 L 332.80853,273.25151 L 332.27728,273.25151 C 332.27728,293.43754 348.30691,309.93031 368.30853,310.68901 C 368.38697,310.69197 368.44869,310.68649 368.52728,310.68901 C 368.9279,310.70169 369.31103,310.68899 369.71478,310.68901 C 390.14851,310.68899 406.78709,294.33821 407.15228,273.90776 L 407.18353,273.25151 L 406.43353,273.25151 L 406.43353,165.00151 C 406.43353,157.98334 400.76418,152.34526 393.74603,152.34526 C 393.4993,152.34527 393.27044,152.33148 393.02728,152.34526 C 386.35376,152.72346 381.08978,158.23004 381.08978,165.00151 L 381.08978,273.25151 L 380.90228,273.25151 L 380.90228,273.43901 C 380.79317,279.5444 375.8211,284.43896 369.71478,284.43901 C 369.52176,284.43899 369.34285,284.44866 369.15228,284.43901 C 363.24278,284.13912 358.52723,279.23511 358.52728,273.25151 L 358.15228,273.25151 L 358.15228,206.25151 L 357.87103,206.25151 C 356.84461,186.42809 340.46589,170.75151 320.46478,170.75151 C 320.06109,170.75153 319.6779,170.73881 319.27728,170.75151 C 319.19875,170.75403 319.13697,170.74853 319.05853,170.75151 C 299.05697,171.51021 283.02728,188.00299 283.02728,208.18901 L 283.52728,208.18901 L 283.52728,312.97026 L 283.52728,313.62651 L 282.58978,313.62651 C 282.59139,313.78784 282.58978,313.96476 282.58978,314.12651 L 282.55853,314.97026 C 282.1666,337.19907 266.61188,355.57627 245.99603,360.06401 L 195.74603,360.06401 L 195.27728,360.06401 C 194.21039,360.01406 193.13692,359.97299 192.05853,359.97026 L 192.05853,360.06401 L 137.68353,360.06401 L 137.68353,225.75151 L 137.77728,225.75151 C 137.87937,199.1894 157.50955,177.6016 182.05853,177.12651 L 182.55853,177.09526 L 182.55853,175.50151 L 200.93353,175.50151 L 200.93353,175.53276 C 226.13938,175.63908 246.63895,196.08822 247.08978,221.65776 L 247.12103,222.50151 C 247.12106,241.90577 235.47713,258.58292 218.90228,265.75151 C 218.87658,265.75802 218.83417,265.77609 218.80853,265.78276 C 218.80321,265.78821 218.78236,265.80838 218.77728,265.81401 C 218.77404,265.8137 218.74882,265.8141 218.74603,265.81401 C 218.64373,265.84133 218.53482,265.8779 218.43353,265.90776 C 213.06495,267.49008 209.12104,272.5854 209.12103,278.65776 C 209.12103,285.99043 214.8626,291.97029 221.93353,291.97026 C 223.24828,291.97026 224.52047,291.72738 225.71478,291.34526 C 225.71442,291.35673 225.71425,291.39567 225.71478,291.40776 C 225.71482,291.4117 225.7149,291.43519 225.71478,291.43901 C 253.41202,281.12535 273.18351,254.13499 273.18353,222.50151 L 273.15228,221.18901 C 272.44716,181.19712 245.29873,150.19516 200.93353,150.09526 L 182.55853,150.09526 L 182.55853,149.62651 z M 579.18353,195.25151 C 579.27795,195.24615 579.37021,195.25629 579.46478,195.25151 C 579.55972,195.24671 579.65094,195.25573 579.74603,195.25151 C 579.84149,195.24727 579.93167,195.25516 580.02728,195.25151 C 580.12326,195.24784 580.2124,195.25458 580.30853,195.25151 C 580.40699,195.25193 580.49146,195.25047 580.58978,195.25151 C 580.63332,195.25038 580.67122,195.25252 580.71478,195.25151 C 580.77373,195.25228 580.84338,195.25052 580.90228,195.25151 C 580.94152,195.25075 580.98801,195.25217 581.02728,195.25151 C 581.08178,195.25258 581.12907,195.25025 581.18353,195.25151 C 581.2272,195.25093 581.26483,195.25197 581.30853,195.25151 C 606.05415,195.88635 626.01993,216.14617 626.46478,241.37651 L 626.49603,242.22026 C 626.49609,267.75843 606.35522,288.58854 581.30853,289.22026 C 581.27898,289.21996 581.24432,289.22062 581.21478,289.22026 C 555.8882,288.91175 535.4335,267.96383 535.43353,242.22026 L 535.46478,241.37651 C 535.90099,216.63642 555.10667,196.6171 579.18353,195.25151 z M 308.74603,348.93901 L 309.12103,348.93901 L 516.08978,348.93901 L 549.71478,348.93901 L 549.71478,360.03276 L 516.08978,360.03276 L 516.08978,360.06401 L 309.12103,360.06401 C 309.1213,360.05551 309.12083,360.04124 309.12103,360.03276 L 308.74603,360.03276 L 308.74603,348.93901 z M 326.62103,386.34526 L 533.83978,386.34526 L 533.83978,398.47026 L 326.62103,398.47026 L 326.62103,386.34526 z M 174.02143,209.5038 C 181.03961,209.5038 186.68962,215.15381 186.68962,222.17199 L 186.68962,332.09838 C 186.68962,339.11656 181.03961,344.76657 174.02143,344.76657 C 167.00325,344.76657 161.35324,339.11656 161.35324,332.09838 L 161.35324,222.17199 C 161.35324,215.15381 167.00325,209.5038 174.02143,209.5038 z M 275.91394,551.06455 C 275.91394,558.08273 281.56395,563.73274 288.58213,563.73274 L 341.77715,563.73274 C 348.79533,563.73274 354.44534,558.08273 354.44534,551.06455 C 354.44534,544.04637 348.79533,538.39636 341.77715,538.39636 L 288.58213,538.39636 C 281.56395,538.39636 275.91394,544.04637 275.91394,551.06455 z M 509.44376,551.06455 C 509.44376,558.08273 515.09377,563.73274 522.11195,563.73274 L 575.30697,563.73274 C 582.32515,563.73274 587.97516,558.08273 587.97516,551.06455 C 587.97516,544.04637 582.32515,538.39636 575.30697,538.39636 L 522.11195,538.39636 C 515.09377,538.39636 509.44376,544.04637 509.44376,551.06455 z M 424.61561,158.9506 L 424.61561,185.3881 C 449.82145,185.49443 470.32103,205.94356 470.77186,231.5131 L 470.80311,232.35685 C 470.80314,258.23152 450.12043,279.25843 424.61561,279.35685 L 424.61561,305.7631 C 464.50757,305.66056 496.86559,272.81538 496.86561,232.35685 L 496.83436,231.04435 C 496.12923,191.05247 464.05402,159.0505 424.61561,158.9506 z " />
  <path
     style="color:#000000;fill:#f4be00;fill-opacity:1;fill-rule:nonzero;stroke:none;stroke-width:0.9999997;stroke-linecap:butt;stroke-linejoin:miter;marker:none;marker-start:none;marker-mid:none;marker-end:none;stroke-miterlimit:4;stroke-dashoffset:0;stroke-opacity:1"
     d="M 179.96875,152 C 150.97314,152.28115 126.22715,175.34971 117.86354,202.0187 C 111.92757,220.05332 115.40633,239.37563 114.38906,257.99999 C 114.35702,321.11745 114.02608,384.22977 114.39514,447.34373 C 114.4132,487.68135 113.4063,528.16405 115.46875,568.40625 C 119.37362,578.85325 138.18516,574.59869 135.83455,563.06254 C 135.20763,505.67919 136.01112,448.21267 135.57543,390.87827 C 135.64128,388.54891 134.09713,383.1819 138.18713,384.49577 C 162.30768,385.38515 187.21833,381.13416 210.6875,388.0625 C 237.16456,399.00417 249.3909,435.34448 232.9375,459.40625 C 222.14538,476.81064 200.4454,485.65902 180.46875,481.90625 C 175.6369,480.83442 169.22178,483.77382 170.44326,489.56181 C 171.53168,516.58667 168.22216,544.03835 172.40625,570.78125 C 177.25934,579.61593 193.69668,574.99582 192.0625,564.59375 C 191.16649,544.67569 192.27622,524.73645 191.71875,504.8125 C 233.27891,506.16167 269.28028,463.95339 261.5625,423.0625 C 259.51613,409.08646 253.32725,395.79196 244.0625,385.0625 C 257.07192,383.10653 270.95694,386.34158 281.78125,393.625 C 297.31909,404.26019 305.96159,424.00384 303.25,442.625 C 303.14477,455.62283 303.45975,468.96721 303.09375,481.75 C 262.74286,487.54334 230.96413,525.51771 228.8125,565.71875 C 229.23897,573.10687 238.78406,579.20413 244.71875,573.28125 C 251.31861,567.4016 246.92789,557.32834 251.0625,550.1875 C 260.82134,520.384 292.81521,496.89909 324.625,503.65625 C 354.98816,509.53959 378.52468,538.08853 379.4375,568.90625 C 381.49441,577.45548 395.66494,577.75656 397.375,568.78125 C 400.36432,556.7745 394.16253,544.97348 390.3125,533.90625 C 378.56139,507.45054 353.73353,485.99485 324.5625,481.8125 C 324.25741,462.33584 325.21903,442.62785 324.5,423.28125 C 325.37815,419.58306 335.06729,422.92066 339.15625,421.78125 C 367.26042,421.78125 395.36458,421.78125 423.46875,421.78125 C 423.57571,458.45827 423.31746,495.13609 423.625,531.8125 C 430.68247,531.23201 437.99226,533.36205 444.8125,530.75 C 444.8125,494.42708 444.8125,458.10417 444.8125,421.78125 C 475.13542,421.78125 505.45833,421.78125 535.78125,421.78125 C 535.68881,441.40227 535.97259,461.30675 535.625,480.75 C 496.88622,486.2917 466.98482,521.19525 461.53125,559 C 458.63788,566.92867 467.00563,578.30149 475.53125,573.53125 C 483.70135,568.77816 479.52109,557.99775 482.96875,550.78125 C 492.12563,520.71323 523.58287,496.61369 555.61003,502.35988 C 585.53792,507.39536 610.2286,534.9708 611.28125,565.4375 C 612.16147,572.25007 620.44466,577.64258 626.34375,572.78125 C 634.31927,566.20713 629.81384,554.69819 627.875,546.40625 C 618.78639,513.80402 591.01905,485.78535 557,480.71875 C 558.95349,457.055 553.17556,432.23705 561.6875,409.5 C 568.75419,393.74206 585.14918,382.87619 602.56693,382.45747 C 639.82091,373.40525 664.68312,330.26438 652.75,293.59375 C 650.90975,286.26661 647.01742,279.66482 644.03125,272.8125 C 661.56023,236.88523 642.55686,187.8055 604.34967,174.98021 C 574.3868,163.83161 537.58771,176.55117 521.87071,204.53201 C 504.50266,232.78086 509.01459,273.49048 534.59375,295.28125 C 555.82472,314.86467 590.32775,320.0758 615.1857,304.13763 C 620.36705,301.12395 625.08143,297.31699 629.5,293.28125 C 636.71254,311.10537 634.64789,335.43161 617.25,346.78125 C 599.6555,357.49731 574.88343,351.0268 563.8125,333.78125 C 549.7734,321.65753 529.94512,326.24441 513,325.5625 C 444.30208,325.5625 375.60417,325.5625 306.90625,325.5625 C 307.40236,284.81637 305.60713,243.94564 307.84375,203.28125 C 311.64077,193.85227 326.59138,191.80345 331.59375,201.1875 C 337.88471,211.54408 333.44635,224.1585 334.9375,235.5625 C 335.4553,252.85066 332.69411,270.68787 337.03125,287.59375 C 345.76149,308.769 377.65141,316.32352 393.875,299.1875 C 403.5509,290.77278 406.4791,277.05944 404.32443,264.81259 C 403.91553,229.80412 405.82654,194.60097 403.1875,159.71875 C 398.81453,150.4455 381.74892,154.56849 383.28125,165.125 C 382.35956,202.52966 384.26844,240.31741 382.25,277.5 C 379.22301,288.30576 361.93226,289.57279 357.78125,278.875 C 353.77471,266.22865 357.57825,252.63586 355.90625,239.59375 C 355.90892,221.72905 359.33272,201.36992 348.28125,185.90625 C 334.77891,168.72671 304.60385,168.11201 292.0625,186.84375 C 283.62494,197.70805 284.87897,212.1838 285.46875,225.15625 C 285.26594,255.60896 286.03096,286.27237 285.09375,316.59375 C 282.72509,321.86012 284.15519,327.9992 280.9375,333.0625 C 273.28902,352.17105 252.31728,365.3736 231.75,362.03125 C 199.73958,362.03125 167.72917,362.03125 135.71875,362.03125 C 136.46565,312.23482 133.85947,262.28728 137.25,212.59375 C 141.95732,192.47243 160.5361,176.4195 180.96875,174.3125 C 189.35779,171.88927 198.32818,174.24839 206.84375,173.65625 C 234.55162,177.06303 255.99715,207.49841 247.65625,234.75 C 243.49236,251.14536 230.2692,264.449 214.40625,270.40625 C 206.2485,277.33341 214.5228,293.41874 225,289.5 C 262.25027,276.87863 281.53208,230.06577 266.15625,194.25 C 256.78746,169.76602 232.07348,152.15058 205.65783,152.31875 C 197.10373,151.85649 188.53144,151.96119 179.96875,152 z M 425.53125,163.5 C 428.32374,169.8521 424.42863,177.46658 428.65625,183.46875 C 459.50141,185.20357 481.99394,221.54425 469.75,249.71875 C 463.04291,267.543 445.17767,280.90593 426.03125,281.71875 C 427.13037,289.18559 426.74418,296.75488 426.1875,304.25 C 464.99696,303.43908 498.57366,266.29876 494.84865,227.43916 C 492.92469,191.83878 460.95074,160.12841 424.8125,160.875 C 425.05208,161.75 425.29167,162.625 425.53125,163.5 z M 581.65625,193.15625 C 612.25838,193.31584 636.53765,227.33264 626.65625,256.28125 C 619.71233,280.23787 592.03023,297.71204 567.53125,289.15625 C 541.61267,281.39883 525.77452,249.70669 536.59375,224.75 C 543.57001,206.56064 561.83885,192.58981 581.65625,193.15625 z M 173.125,211.53125 C 163.76627,212.37804 161.64908,223.70659 163.375,231.3125 C 164.11518,266.67343 161.78678,302.23946 164.65625,337.46875 C 169.37159,347.28444 187.15682,341.61608 184.59375,330.78125 C 183.93087,293.26803 186.05874,255.61341 183.65625,218.1875 C 182.4276,213.70903 177.616,211.0486 173.125,211.53125 z M 315.0625,346.6875 C 353.70183,347.32904 392.3993,346.66823 431.0625,346.90625 C 471.13269,347.03148 511.80678,346.65594 551.5,347.09375 C 550.74881,351.81149 553.86854,357.44317 550.53125,361.5 C 524.89169,362.84006 499.19541,361.44515 473.53127,362.00598 C 417.98968,362.016 362.36413,362.21129 306.875,361.84375 C 308.00164,357.13735 304.14824,350.91268 308.25,347.375 C 310.46509,346.74626 312.74647,346.73578 315.0625,346.6875 z M 326.90625,384.3125 C 396.41492,384.43754 466.52063,384.06244 535.65625,384.5 C 534.92823,389.52012 537.86967,395.30098 534.6875,399.71875 C 489.00308,401.56844 443.26848,399.80408 397.5625,400.40625 C 373.36731,400.3682 348.57402,400.75251 324.75,400.125 C 325.92103,395.25876 321.51946,387.31798 326.90625,384.3125 z M 521.03125,540.15625 C 510.78471,540.71701 507.7379,557.84882 518.09375,560.75 C 532.7072,563.4501 547.65966,560.39397 562.40498,561.83734 C 569.63362,561.80617 578.62752,562.89127 584.09375,557.375 C 589.24642,550.48778 582.69334,538.44578 573.90625,540.625 C 556.28975,539.80052 538.64027,540.95304 521.03125,540.15625 z M 287.0625,540.28125 C 277.01565,541.14926 274.56565,557.81858 284.46875,560.75 C 299.74379,563.36639 315.35115,560.43496 330.75,561.90625 C 337.6368,561.71234 346.78787,562.75319 351.21875,556.375 C 355.19618,549.28921 348.51364,538.34619 340.1875,540.65625 C 322.49024,539.81656 304.76235,540.83758 287.0625,540.28125 z "
     id="path5796" />
  <path
     style="color:#000000;fill:#fdc800;fill-opacity:1;fill-rule:nonzero;stroke:none;stroke-width:0.9999997;stroke-linecap:butt;stroke-linejoin:miter;marker:none;marker-start:none;marker-mid:none;marker-end:none;stroke-miterlimit:4;stroke-dashoffset:0;stroke-opacity:1"
     d="M 177.31989,155.88614 C 143.84502,158.81972 118.03478,191.14618 118.56989,224.01114 C 117.83301,254.57601 118.73893,285.15671 118.33425,315.72987 C 118.45176,348.83187 117.5717,381.91414 118.39078,415.01112 C 118.65844,465.42505 117.50787,515.86402 118.97614,566.26114 C 120.87884,572.59289 132.36064,571.66269 131.85114,564.41739 C 131.86797,555.15623 131.1161,545.91132 131.66364,536.63614 C 131.66364,484.50072 131.66364,432.36531 131.66364,380.22989 C 156.75199,381.57853 182.25175,377.85199 207.0665,382.5533 C 234.25426,390.5064 251.16808,422.5043 241.91364,449.47989 C 234.64232,473.03476 209.45075,489.84222 184.69489,486.04239 C 181.17834,486.98793 173.12399,483.52699 174.56989,489.35489 C 175.00226,515.64624 173.1521,542.261 175.63239,568.35489 C 178.68888,573.9276 188.94537,571.71102 188.06989,564.91739 C 187.23326,544.80928 188.10924,524.67285 187.81989,504.51114 C 185.91307,498.56802 192.32471,501.50316 195.72531,500.78286 C 230.77133,499.3062 260.79369,465.9773 258.25418,430.82423 C 257.64797,412.59086 249.25721,395.08851 236.16364,382.47989 C 244.12485,381.36988 252.50933,378.58034 260.31989,381.60489 C 288.31334,383.89875 310.46195,411.82254 307.25739,439.63614 C 307.25739,454.84447 307.25739,470.05281 307.25739,485.26114 C 270.30503,488.50317 240.54051,520.67907 233.85114,556.13614 C 232.38448,561.33094 231.51825,570.56897 238.47614,571.72989 C 243.64926,571.42909 245.77291,565.01164 244.28864,560.72989 C 249.66664,527.60058 279.42756,497.91289 314.22614,498.60489 C 347.9635,498.88743 377.8229,527.21318 382.44489,560.10489 C 382.76475,564.38527 382.52797,571.89087 388.69489,571.54239 C 395.55316,571.08462 394.57281,561.91677 393.60114,557.22989 C 389.35802,536.97933 379.21355,517.38674 363.02938,503.92285 C 351.11703,493.6759 336.15191,486.86607 320.56989,485.35489 C 320.78991,466.04923 320.20085,446.67274 321.06989,427.41739 C 320.91179,423.75979 317.58399,415.9741 324.13239,417.79239 C 358.58031,417.79239 393.02822,417.79239 427.47614,417.79239 C 427.5804,454.39646 427.26768,491.41752 427.63239,527.76114 C 432.02065,527.60897 436.49984,528.69299 440.81989,527.66739 C 440.81989,491.04239 440.81989,454.41739 440.81989,417.79239 C 473.80947,417.79239 506.79906,417.79239 539.78864,417.79239 C 539.78864,439.96947 539.78864,462.14656 539.78864,484.32364 C 501.5507,487.55003 470.97192,522.07848 465.69489,559.13614 C 463.73677,563.83613 467.07968,572.52342 473.16364,570.29239 C 479.56891,566.88169 475.61814,558.24408 478.31989,552.63614 C 486.60998,521.16038 517.0871,494.96932 550.66363,497.72989 C 582.77161,500.09864 610.35066,527.46399 614.94488,558.94864 C 614.60671,563.75876 615.88271,572.26465 622.66363,570.32364 C 628.87364,567.74862 626.67859,558.82883 625.58641,553.76556 C 618.78074,521.84482 594.48419,493.1429 562.00738,485.82364 C 558.54291,484.28933 551.23747,486.44391 553.16363,480.57364 C 554.13535,458.68794 550.89334,436.29265 555.44488,414.76114 C 561.09167,395.38497 579.20348,379.53948 599.75738,379.01114 C 633.67803,371.64658 657.90249,334.70981 650.28863,300.72989 C 648.43603,290.99728 644.50841,281.77263 639.25738,273.38614 C 656.16876,241.53225 642.55784,197.42903 609.88238,181.79239 C 585.29334,169.17848 552.70511,174.47147 534.10114,195.13614 C 511.59522,218.45841 508.75937,258.38402 529.28864,283.63614 C 546.441,306.08047 579.15368,316.62603 605.22613,304.63614 C 614.98935,300.56692 623.59822,294.10532 630.66363,286.26114 C 640.63945,305.25445 640.42149,331.91107 623.75738,347.04239 C 605.71476,362.04329 575.42356,357.60227 562.50738,338.04239 C 553.28316,328.70706 539.32528,328.8302 527.10114,329.57364 C 452.35114,329.57364 377.60114,329.57364 302.85114,329.57364 C 303.23258,287.66304 302.07973,245.62068 303.44489,203.79239 C 306.56194,193.54435 319.33787,187.19645 328.91364,193.22989 C 338.96273,199.14557 340.07591,212.28663 338.56989,222.76114 C 339.56687,242.49007 337.73108,262.53108 339.44489,282.26114 C 344.79134,302.12261 371.70703,311.7824 387.97614,298.85489 C 397.23716,292.28547 402.76423,280.58586 400.35114,269.22989 C 400.11306,233.41233 401.26246,197.46402 399.72614,161.72989 C 397.00503,156.26909 386.42248,158.08142 387.27444,164.78944 C 386.88523,181.78975 387.29255,198.8108 387.03208,215.82356 C 386.93206,236.97351 388.02162,258.35625 385.91364,279.35489 C 381.70077,292.04518 361.30354,294.58549 355.13239,282.13614 C 348.97571,271.20845 353.72242,258.32388 351.97614,246.54239 C 351.45519,229.04286 354.73912,210.43975 348.60114,193.76114 C 339.88819,176.2918 313.9858,170.71877 299.69489,184.54239 C 290.76794,192.1566 287.67228,204.56517 289.48101,215.88613 C 289.53919,249.75066 289.49225,283.61531 289.50739,317.47989 C 286.29886,320.00428 288.82133,325.07183 286.69489,328.35489 C 280.83973,351.09161 257.77371,369.23623 233.75739,366.04239 C 199.72614,366.04239 165.69489,366.04239 131.66364,366.04239 C 132.20938,316.00243 130.58632,265.86543 132.53864,215.88614 C 136.10153,192.9752 155.5248,173.39891 178.78864,170.88614 C 186.03156,167.43206 194.31912,170.59671 201.97614,169.32364 C 230.20431,169.82494 255.07845,195.93929 253.16364,224.38614 C 252.40917,245.66606 238.05471,265.79262 217.88239,272.79239 C 211.95871,276.93853 216.37757,287.92328 223.72614,285.69864 C 248.86072,277.00043 266.05124,251.5209 267.27359,225.13924 C 268.75545,200.55265 256.05265,175.07773 234.00739,163.57364 C 216.75382,153.89495 196.32313,156.55235 177.31989,155.88614 z M 430.19489,165.19864 C 431.57512,169.69 429.3826,176.22118 431.31989,179.76114 C 460.28884,183.05355 482.20382,213.71632 476.00739,242.32364 C 471.96199,264.26431 452.74332,282.60363 430.44489,285.26114 C 430.95521,290.04431 430.74004,295.43403 430.47614,299.88614 C 462.60768,296.85356 490.49286,267.61358 490.81989,235.10489 C 493.02779,200.71677 464.86171,167.31064 430.19489,165.19864 z M 580.16363,189.19864 C 610.18791,188.40331 636.09477,217.71244 632.38238,247.44864 C 630.04614,275.49782 602.30459,299.54323 573.85113,294.66739 C 546.38947,290.813 525.23783,262.56536 529.81989,235.04239 C 533.0835,210.46116 554.91903,189.29189 580.16363,189.19864 z M 173.69489,215.54239 C 166.73692,215.86445 166.33161,224.85244 167.38708,230.13613 C 167.85246,265.25179 166.34146,300.52821 168.16364,335.54239 C 171.42549,341.32223 182.2073,338.34468 180.60114,331.16739 C 180.33577,297.83646 181.09586,264.47875 180.50859,231.13757 C 179.72756,225.33617 182.66333,215.27845 173.69489,215.54239 z M 308.72614,342.91739 C 391.50739,342.91739 474.28864,342.91739 557.06988,342.91739 C 552.55003,349.83936 560.07627,360.06561 552.13238,365.38614 C 537.42176,367.11964 522.49254,365.31042 507.69489,366.01569 C 438.60114,366.03728 369.50738,366.06444 300.41364,366.01114 C 306.83671,359.97595 298.01473,348.92505 306.00739,343.88614 C 306.84847,343.43594 307.77443,343.00254 308.72614,342.91739 z M 326.60114,380.32364 C 398.11156,380.32364 469.62197,380.32364 541.13239,380.32364 C 536.82411,387.5342 544.04994,397.94749 536.35114,403.66739 C 508.10382,405.48457 479.28397,403.9517 450.81989,404.44864 C 406.72614,404.44864 362.63239,404.44864 318.53864,404.44864 C 324.69673,397.72252 315.25747,384.92726 325.22614,380.66739 C 325.68239,380.56186 326.11748,380.26396 326.60114,380.32364 z M 522.22614,544.10489 C 515.31539,544.19345 512.45879,555.12962 519.88239,557.16739 C 530.36133,559.05011 541.22603,556.62687 551.85113,557.66739 C 561.01913,557.56126 570.93425,558.98827 579.66363,556.29239 C 584.08463,552.89231 581.30723,543.27611 575.13238,544.69864 C 557.51374,543.63899 539.84498,545.08681 522.22614,544.10489 z M 288.22614,544.19864 C 281.76571,544.6039 279.3058,554.67318 285.85114,557.01114 C 296.20789,559.18917 307.12433,556.58666 317.69489,557.66739 C 327.10649,557.53355 337.24411,559.04738 346.22614,556.26114 C 350.91525,552.2489 347.16926,542.69679 340.63354,544.65062 C 323.17576,543.76158 305.68,544.94266 288.22614,544.19864 z "
     id="path1625" />
  <path
     id="path4871"
     d="M 173.68933,158.04791 C 141.33592,161.75284 116.73895,194.06404 118.21904,226.04764 C 117.8486,279.69108 118.23335,333.34013 117.73565,386.98537 C 118.92793,446.74317 116.79104,506.5881 118.81433,566.29791 C 121.04232,570.3986 128.98171,568.42314 127.53308,563.42291 C 126.99035,506.82123 127.54257,450.19275 127.34558,393.57916 C 128.63802,389.11827 124.72659,379.21528 129.34358,378.23112 C 155.5036,379.82256 182.33924,375.14162 208.00183,381.48541 C 236.35361,391.42792 252.36514,427.044 239.87683,454.61041 C 230.72324,476.91119 205.86114,491.57115 181.84558,488.17291 C 179.59314,488.90421 175.23874,486.59201 174.12683,488.57916 C 175.04105,515.00102 172.44681,541.81188 175.53308,568.04791 C 178.45916,571.38005 185.27852,568.73412 183.71879,563.98596 C 182.9523,543.13501 183.91408,522.06323 183.37683,501.32916 C 185.79004,496.37807 192.28757,499.98583 196.50183,498.54791 C 231.31568,495.23213 259.34361,459.64669 253.46483,424.92787 C 251.3552,407.96446 242.22251,392.32937 229.53308,381.07916 C 239.45947,379.89456 249.72334,376.30692 259.56433,379.73541 C 288.31527,382.84949 310.70066,412.23485 306.93933,440.89166 C 306.93933,456.28749 306.93933,471.68333 306.93933,487.07916 C 270.70594,489.42955 240.94345,520.35108 233.84558,554.89166 C 232.89146,559.34447 230.29494,567.9791 236.40808,569.67291 C 241.01908,568.76479 240.54969,562.79548 240.17898,559.40748 C 246.26915,523.96996 279.80694,493.23518 316.81433,496.82916 C 351.81358,499.84427 381.1459,531.43166 382.78308,566.23541 C 382.84888,570.74877 389.68935,570.36664 389.75183,566.04791 C 390.23831,552.61932 384.3105,539.80687 378.25211,528.11922 C 365.59397,505.6968 342.12556,489.06036 316.22058,487.14166 C 316.30291,466.5565 316.3444,445.90314 316.47058,425.36041 C 314.952,421.67682 315.41407,414.55389 321.06433,415.57916 C 356.37713,416.09073 391.80219,415.65126 427.15808,415.79791 C 427.28846,452.45405 426.97686,489.11127 427.31433,525.76666 C 431.02412,525.49063 438.38993,528.36862 436.50183,521.98541 C 436.50183,486.58958 436.50183,451.19374 436.50183,415.79791 C 470.82475,415.79791 505.14766,415.79791 539.47058,415.79791 C 539.47058,439.25624 539.47058,462.71458 539.47058,486.17291 C 500.06054,488.59907 468.97704,524.62366 464.84558,562.64166 C 464.20227,566.57522 469.59358,571.41125 471.97058,566.48541 C 473.70181,560.91444 472.12919,554.52256 474.93933,549.11041 C 484.67594,517.08182 517.31711,491.42036 551.62683,496.04791 C 585.54777,500.23695 613.69326,531.13576 615.18933,565.14166 C 616.72084,572.41992 625.18527,566.1854 622.47058,560.73541 C 617.94786,526.10583 591.59795,493.62064 556.37683,487.17291 C 552.47007,487.64279 546.93906,485.17289 548.84558,480.36041 C 550.15229,457.12971 545.68978,433.01609 552.47058,410.45416 C 559.54263,391.45208 578.11856,377.34518 598.56433,376.70416 C 632.83391,368.38981 655.85659,328.69516 644.51075,294.8357 C 642.34256,287.25927 638.90685,280.09527 634.62682,273.48541 C 653.07652,240.86975 636.68113,193.62536 600.97058,181.04791 C 575.41495,170.94328 543.14646,180.15777 527.62683,203.26666 C 509.11514,228.5462 511.05536,267.52615 534.56433,289.14166 C 553.05832,307.4361 583.49864,313.67574 606.55587,300.73249 C 615.26033,296.33731 622.39229,290.13003 628.78308,282.82916 C 640.17542,302.22611 640.8784,330.17436 624.37683,346.98541 C 606.11074,364.62302 572.51524,360.32682 558.62683,339.29791 C 546.40009,327.59859 528.08169,332.39259 512.78308,331.57916 C 441.356,331.57916 369.92891,331.57916 298.50183,331.57916 C 299.1258,288.61961 297.43419,245.50304 299.40808,202.64166 C 303.14282,190.37514 320.2347,184.25473 330.09558,193.20416 C 339.67624,200.96812 339.25991,214.4112 338.37946,225.54734 C 339.3934,244.79685 336.91876,264.37553 339.62683,283.42291 C 345.97377,302.36682 373.5781,309.56925 387.62683,294.70416 C 395.28671,287.84517 397.90242,277.04513 396.03308,267.23541 C 395.66097,232.15057 397.31506,196.74992 395.12683,161.86041 C 392.276,158.82024 385.54016,161.12095 386.95098,165.82897 C 386.1735,201.07377 387.71033,236.35596 386.25183,271.57916 C 387.13292,279.49325 383.15241,287.61646 375.56433,290.45416 C 365.88034,295.26867 352.41398,290.57381 349.50183,279.67291 C 345.38015,267.96324 349.30366,255.26364 347.62683,243.23541 C 347.21811,226.35773 350.7896,208.17229 343.25183,192.42291 C 333.64616,176.59027 307.58656,173.58986 295.81433,188.92291 C 288.16623,197.40558 288.27513,209.24985 289.18933,219.89166 C 289.2005,252.725 289.23163,285.55831 289.18933,318.39166 C 285.63036,321.12371 288.55654,326.5092 286.00183,329.98541 C 279.44529,353.62222 255.07861,371.54302 230.22058,368.04791 C 195.9185,368.04791 161.61641,368.04791 127.31433,368.04791 C 128.0774,316.84855 126.03294,265.57197 128.43933,214.42291 C 132.54988,191.03802 152.68444,171.52669 176.40808,168.73541 C 184.7374,165.60005 193.87242,168.37799 202.47058,167.45416 C 232.56392,169.51785 257.49472,199.56462 252.40808,229.67291 C 249.78288,250.10107 235.06902,267.93519 216.00183,275.04791 C 212.56424,278.49086 216.98988,286.34546 221.90808,283.39166 C 254.21479,271.43819 271.20095,231.70759 259.37683,199.64166 C 252.06467,176.85191 230.53336,159.43531 206.41219,158.55112 C 195.53662,157.72205 184.57255,158.02651 173.68933,158.04791 z M 430.34558,167.70416 C 430.78951,171.00816 429.36903,175.08896 430.68933,177.95416 C 461.6419,182.28305 483.97639,216.94082 474.68933,246.98541 C 469.09649,267.24347 451.09463,283.68826 430.31433,286.98541 C 431.43482,290.0788 428.49032,297.29116 431.86495,297.3942 C 463.58031,292.26611 488.91088,261.48139 486.60556,229.26689 C 485.58679,198.98425 460.75737,170.65068 430.31433,167.42291 L 430.34558,167.70416 z M 579.25183,187.17291 C 611.36819,187.19251 638.0186,220.29836 631.56433,251.73541 C 626.92745,280.05782 597.34745,302.76361 568.56433,296.20416 C 539.24321,290.52349 518.29232,257.95891 526.68933,228.86041 C 532.4847,205.49652 554.65099,186.55479 579.25183,187.17291 z M 170.93933,217.61041 C 164.56478,219.54326 167.27079,228.20456 167.12401,233.11028 C 167.65153,267.09089 165.75696,301.45714 168.09558,335.20416 C 171.42461,338.8186 178.32341,335.02934 176.27808,330.17292 C 175.9008,293.7584 177.22352,257.25262 175.78308,220.89166 C 175.64324,218.31954 173.30712,217.13946 170.93933,217.61041 z M 306.31433,340.92291 C 390.30391,340.92291 474.2935,340.92291 558.28308,340.92291 C 551.31343,348.01178 559.86622,359.63513 552.09558,366.17291 C 546.24467,369.19428 538.70707,367.59834 532.18939,368.16167 C 462.11649,367.74279 392.02153,368.23049 321.93934,368.03103 C 312.25183,368.02658 302.56433,368.01616 292.87683,368.01666 C 297.65347,365.50457 299.75229,360.44333 298.36907,355.30308 C 297.09148,349.17993 299.16765,341.71273 306.31433,340.92291 z M 323.93933,378.32916 C 396.68933,378.32916 469.43933,378.32916 542.18933,378.32916 C 535.51306,386.05433 544.2525,398.3436 535.59558,404.98541 C 523.8767,407.15183 511.17435,406.19856 499.06433,406.57916 C 436.61819,406.20715 374.16869,406.58596 311.72058,406.45416 C 317.93518,402.53189 316.50159,395.15543 316.03308,389.04791 C 315.66654,384.02862 318.83661,379.13041 323.93933,378.32916 z M 519.47058,546.14166 C 514.13502,546.61526 513.68275,556.0321 519.72058,555.48541 C 532.98934,556.44331 546.30664,554.72587 559.5945,555.87824 C 565.22868,555.60795 572.11122,556.80277 576.97058,553.76666 C 578.87527,550.31049 575.9562,545.11953 571.69102,546.64601 C 554.29686,545.73112 536.8642,546.98842 519.47058,546.14166 z M 285.53308,546.26666 C 280.3091,547.14526 280.43435,556.50941 286.65808,555.51666 C 299.62358,556.37425 312.6404,554.76433 325.62583,555.87547 C 331.43742,555.65498 338.4316,556.80378 343.40808,553.79791 C 345.47461,550.49804 342.32677,545.01468 338.28308,546.64166 C 320.71027,545.79523 303.10239,546.84575 285.53308,546.26666 z "
     style="color:#000000;fill:#ffde77;fill-opacity:1;fill-rule:nonzero;stroke:none;stroke-width:0.9999997;stroke-linecap:butt;stroke-linejoin:miter;marker:none;marker-start:none;marker-mid:none;marker-end:none;stroke-miterlimit:4;stroke-dashoffset:0;stroke-opacity:1" />
  <path
     style="color:#000000;fill:#fff3a2;fill-opacity:1;fill-rule:nonzero;stroke:none;stroke-width:0.9999997;stroke-linecap:butt;stroke-linejoin:miter;marker:none;marker-start:none;marker-mid:none;marker-end:none;stroke-miterlimit:4;stroke-dashoffset:0;stroke-opacity:1"
     d="M 179.54585,162.31253 C 149.3991,160.44968 123.49314,186.7684 118.7646,215.28128 C 116.774,232.86479 118.33409,250.85738 117.7646,268.59378 C 117.73061,328.51324 117.40758,388.42753 117.78747,448.34377 C 117.7734,488.24193 116.99935,528.29489 118.60835,568.09378 C 120.91452,570.14352 124.77575,567.73445 123.2245,564.75007 C 122.664,506.35973 123.3062,447.85261 123.0146,389.53128 C 122.18444,385.50209 122.27308,377.9608 128.13825,378.58316 C 155.06232,380.26054 182.96553,374.75626 209.1396,382.93753 C 238.02349,394.87353 252.90047,433.12316 237.9521,460.90628 C 227.43622,482.59523 202.51816,495.70102 178.60835,492.62503 C 175.58507,492.29194 172.36015,491.11247 173.9521,495.81253 C 174.60498,520.31569 171.99471,545.46476 175.4521,569.56253 C 178.06606,570.83293 180.84437,568.01394 179.38886,565.34429 C 178.86171,544.46423 179.23125,523.4086 179.3271,502.62503 C 182.9666,496.04766 191.36351,500.66494 197.1396,498.46878 C 231.51822,493.29307 257.22938,455.80027 248.20599,421.96089 C 244.87325,406.16552 235.01459,392.13459 222.67085,381.96878 C 235.16368,380.48751 247.96307,376.35489 260.3271,380.43753 C 289.32806,385.33206 310.65215,415.35175 306.6396,444.40628 C 306.6396,460.01045 306.6396,475.61461 306.6396,491.21878 C 269.96966,492.68839 239.37166,524.43812 233.0771,559.50003 C 232.61679,562.4453 230.53936,568.61584 234.4521,569.78128 C 237.98184,566.39355 234.60381,560.40038 236.98335,556.25003 C 245.25268,521.7987 279.27467,493.10194 315.69751,497.22074 C 351.65896,500.91079 381.05429,533.47911 382.67085,569.31253 C 384.74066,570.99803 386.3859,567.85783 385.4521,565.90628 C 384.48487,549.4587 376.71822,533.71124 366.92085,520.62503 C 353.65076,503.96621 333.40771,492.3174 311.92085,491.28128 C 311.75226,469.88641 312.46665,448.3262 311.85835,427.03128 C 310.08459,422.20912 312.78247,414.61486 318.98335,415.87503 C 354.93944,416.41557 390.90023,415.92314 426.85835,416.09378 C 426.988,452.77075 426.67812,489.4488 427.0146,526.12503 C 428.82598,526.07223 433.92431,527.87719 432.2021,524.28128 C 432.2021,488.21878 432.2021,452.15628 432.2021,416.09378 C 467.85835,416.09378 503.5146,416.09378 539.17085,416.09378 C 539.17085,440.83336 539.17085,465.57295 539.17085,490.31253 C 499.78925,491.80985 467.65519,528.12465 464.5771,566.28128 C 464.91379,568.91354 468.55971,569.95925 468.2021,566.31253 C 468.40847,558.7896 469.66518,551.5093 472.8896,544.75003 C 484.94175,513.99005 518.51085,490.69349 552.22079,496.75177 C 586.30279,502.2988 613.44674,533.7431 615.1396,568.00003 C 616.86642,570.48696 620.10439,565.13027 618.2021,563.31253 C 613.74395,529.47412 587.95145,497.3819 553.3271,491.53128 C 548.41544,491.98393 542.47809,487.65204 544.54585,482.28128 C 546.08334,457.74083 540.49678,431.8164 549.8271,408.37503 C 558.15402,389.98472 577.20261,377.49003 597.35835,376.65628 C 631.1591,367.51942 652.45303,326.71269 639.11125,293.98666 C 636.86943,287.52812 633.73355,281.56713 630.0146,275.84378 C 649.51831,243.15975 631.58605,194.44502 594.42085,183.96878 C 567.91956,175.41646 536.07406,187.63937 523.0771,212.71878 C 508.29066,238.7125 513.5599,275.41637 538.0771,293.96878 C 557.29733,309.82931 586.92438,312.98105 607.9521,298.65628 C 615.28317,294.19309 621.31917,288.10953 626.85835,281.71878 C 639.74646,301.89959 641.27947,331.56182 624.2646,349.87503 C 606.2977,368.50056 572.42073,365.45327 556.67085,345.50003 C 552.29289,352.76795 558.835,363.45575 551.48335,369.62503 C 543.6111,374.42523 533.64594,371.56296 524.88966,372.44503 C 444.27557,372.05711 363.6604,372.54548 283.04585,372.31253 C 288.41164,369.80753 296.06923,365.97442 294.29585,358.81253 C 291.86536,351.37927 296.05781,340.84864 305.0146,341.21878 C 387.59793,341.21878 470.18127,341.21878 552.7646,341.21878 C 539.50029,331.90694 522.46614,337.09586 507.3896,335.87503 C 436.31668,335.87503 365.24377,335.87503 294.17085,335.87503 C 295.03866,291.8541 292.74353,247.67005 295.3896,203.75003 C 299.86044,189.7756 320.33954,184.02373 330.48335,195.21878 C 340.58132,204.81501 338.22193,219.88134 338.25059,232.43738 C 338.99066,250.48974 336.2741,269.01996 339.85835,286.75003 C 347.007,304.15409 374.04153,309.06366 385.8896,293.62503 C 393.03955,285.99799 392.67949,275.20213 391.69526,265.56271 C 391.36003,232.112 393.14091,198.2858 390.7021,165.06253 C 388.0515,163.85633 385.28355,166.3771 386.62074,169.1561 C 385.76646,206.39603 387.75582,243.78501 385.54585,280.93753 C 382.62961,296.21379 361.18973,301.77402 350.42085,291.03128 C 340.51501,280.91529 343.74844,265.17557 343.7646,252.37503 C 341.59942,233.12821 347.94876,212.09501 338.3271,194.37503 C 328.04868,179.76353 302.85778,179.05722 293.23335,194.78128 C 284.87471,207.61449 290.29585,223.78306 288.89975,238.18753 C 288.92111,265.98961 288.9381,293.79172 288.8896,321.59378 C 285.03111,324.23022 288.28044,329.76111 285.54585,333.12503 C 278.6723,357.8468 252.68644,376.20822 226.85835,372.34378 C 192.23335,372.34378 157.60835,372.34378 122.98335,372.34378 C 123.96508,319.97285 121.40381,267.47764 124.3896,215.18753 C 129.05062,191.20482 150.12773,171.81343 174.35835,168.81253 C 183.75123,166.20337 193.70601,168.29601 203.2646,168.06253 C 234.28771,171.86889 258.57903,204.31231 251.6396,235.25003 C 248.05487,255.1629 233.00912,271.88473 214.67085,279.40628 C 213.51427,282.73516 217.48901,286.11931 220.42085,283.25003 C 253.03886,270.13966 268.11749,227.69831 252.8271,196.50003 C 243.56962,175.77067 221.75863,161.83514 198.89073,162.54621 C 192.44653,162.2497 185.99537,162.24445 179.54585,162.31253 z M 234.85835,569.46878 C 234.81542,569.52644 234.96199,569.50129 234.85835,569.46878 z M 430.1396,172.03128 C 430.30436,174.69622 428.11097,179.59706 432.67829,179.02946 C 464.22254,185.93731 485.10095,223.35922 473.0771,253.71878 C 466.55618,272.59244 449.09524,286.84865 430.29585,291.21878 C 430.83806,293.34364 427.88555,299.18146 432.1396,297.18753 C 463.77365,290.5213 487.43626,257.34357 481.71355,225.16682 C 477.8261,199.12852 456.29805,175.94869 430.1396,172.03128 z M 574.5771,187.46878 C 609.23679,185.77334 638.92474,222.01423 630.98335,255.75003 C 625.51926,285.34882 593.28609,308.30069 563.47809,299.92977 C 533.43216,292.77773 513.09623,258.00231 523.04585,228.43753 C 529.69236,205.9193 550.86083,188.05447 574.5771,187.46878 z M 169.23335,221.84378 C 164.13222,224.06679 167.33474,231.1985 166.8271,235.40628 C 167.47402,269.11789 165.21482,303.21592 167.9521,336.68753 C 171.12827,337.98437 173.48376,334.26081 171.97417,331.50007 C 171.44781,295.1746 173.29635,258.54535 171.17085,222.40628 C 170.71783,221.85056 169.92378,221.74628 169.23335,221.84378 z M 321.6396,378.62503 C 395.81668,378.62503 469.99377,378.62503 544.17085,378.62503 C 537.15483,383.82889 539.6714,392.61331 539.29585,400.00003 C 538.99627,405.39311 534.85414,410.47362 529.0771,409.96878 C 500.08427,411.8504 470.96342,410.29366 441.92085,410.71878 C 395.55624,410.68773 349.19169,410.84333 302.8271,410.75003 C 307.5784,408.20232 313.0176,404.58781 312.2021,398.50003 C 311.419,392.12313 310.79322,383.97801 317.2021,380.21878 C 318.53908,379.37153 320.05893,378.792 321.6396,378.62503 z M 517.0771,550.46878 C 513.73892,551.41945 514.71706,557.24129 518.5438,555.84525 C 534.42784,556.21706 550.32368,555.63397 566.2021,556.15628 C 568.76641,556.15632 575.24671,555.69603 572.67085,551.78128 C 570.35097,549.14784 565.85555,551.91967 562.79585,550.68753 C 547.55909,550.34273 532.30272,551.1515 517.0771,550.46878 z M 283.3271,550.62503 C 280.44384,551.35981 281.08974,557.00697 284.4521,555.81253 C 300.08558,556.32261 315.7303,555.51307 331.35835,556.21878 C 333.77935,555.7601 340.60041,556.72047 339.5771,552.65628 C 338.05208,548.53587 332.46113,552.05073 329.3271,550.71878 C 313.99986,550.36182 298.62721,550.9978 283.3271,550.62503 z "
     id="path3121" />
  <path
     style="color:#000000;fill:#fffdb7;fill-opacity:1;fill-rule:nonzero;stroke:none;stroke-width:0.9999997;stroke-linecap:butt;stroke-linejoin:miter;marker:none;marker-start:none;marker-mid:none;marker-end:none;stroke-miterlimit:4;stroke-dashoffset:0;stroke-opacity:1"
     d="M 288.28125,332.375 C 282.48413,351.44907 267.28436,367.58518 247.90625,372.875 C 238.85478,375.84487 247.58565,376.93396 252.46875,376.9375 C 272.87609,378.37565 292.11666,390.72337 301.84375,408.9375 C 308.31092,407.08581 312.25148,399.71564 309.59375,393.40625 C 308.71704,385.17603 314.20031,377.73463 321.948,375.03445 C 321.957,373.73243 313.22144,374.54736 309.78125,374.21875 C 299.0797,373.88403 286.97385,375.03518 277,373.40625 C 282.281,369.45276 291.95235,368.3364 292.5625,360.1875 C 290.38312,353.70498 291.86614,345.68293 297.78125,341.4375 C 305.49799,336.67057 301.77602,336.70686 295,338.03125 C 291.82776,339.30546 291.37548,336.80094 292.10567,334.28402 C 291.68337,329.23393 291.99017,324.83971 288.28125,332.375 z M 557.125,354 C 558.038,361.19808 557.00476,370.90489 548.79017,373.26926 C 540.54801,376.53208 553.8918,375.5457 547.15625,378.3125 C 540.7797,382.65027 540.34548,391.21648 541.5,398.0625 C 541.75899,403.79753 538.20536,408.36027 534.42205,412.14174 C 531.04622,416.50239 537.32299,412.91339 539.65625,413.3125 C 541.06989,415.70777 544.05345,420.17217 545.59375,415.3125 C 551.06514,391.5191 574.8887,375.40655 598.59375,374.21875 C 608.52783,370.94861 618.71787,365.33727 624.30209,356.28201 C 627.05787,351.57125 618.27879,357.29964 616.03125,358.65625 C 597.11621,368.99403 572.47218,364.53791 557.125,349.8125 C 557.125,351.20833 557.125,352.60417 557.125,354 z M 121.34375,374.28125 C 118.46201,375.20121 118.79301,383.17498 122.27098,378.90422 C 125.13697,378.03577 124.71471,373.4199 121.34375,374.28125 z M 193.875,375.84375 C 200.5007,379.81861 208.67306,380.02321 215.61747,383.40378 C 223.80617,386.22136 213.21721,378.91023 220.78125,380.3125 C 224.12723,379.19028 230.63912,380.74129 230.71875,375.9375 C 226.07206,372.5522 219.20759,375.25698 213.78125,374.34375 C 207.13328,374.73269 200.18768,373.23993 193.875,375.84375 z M 309.03125,412.625 C 306.55735,413.10252 302.50807,413.3779 305.28125,416.53125 C 305.2297,420.0158 309.95283,422.06128 310.84375,417.9375 C 313.62834,416.14907 312.72365,411.90408 309.03125,412.625 z M 541.125,490.8125 C 539.71983,494.83626 547.80897,494.93569 544.96875,490.5625 C 544.80138,489.14374 540.07649,488.93222 541.125,490.8125 z M 177.59375,494.5 C 174.07276,495.51002 175.811,503.64285 179.21875,499.5625 C 182.12356,498.21383 180.96248,493.58922 177.59375,494.5 z "
     id="path5802" />
</svg>
