<?xml version="1.0" encoding="UTF-8" standalone="no"?>
<!-- Created with Inkscape (http://www.inkscape.org/) -->
<svg
   xmlns:dc="http://purl.org/dc/elements/1.1/"
   xmlns:cc="http://creativecommons.org/ns#"
   xmlns:rdf="http://www.w3.org/1999/02/22-rdf-syntax-ns#"
   xmlns:svg="http://www.w3.org/2000/svg"
   xmlns="http://www.w3.org/2000/svg"
   xmlns:xlink="http://www.w3.org/1999/xlink"
   xmlns:sodipodi="http://sodipodi.sourceforge.net/DTD/sodipodi-0.dtd"
   xmlns:inkscape="http://www.inkscape.org/namespaces/inkscape"
   width="61.766174"
   height="47.842026"
   id="svg2"
   sodipodi:version="0.32"
   inkscape:version="0.46"
   sodipodi:docname="acadyalogo.svg"
   sodipodi:docbase="/home/carlo/Desktop"
   inkscape:output_extension="org.inkscape.output.svg.inkscape"
   version="1.0"
   inkscape:export-filename="/home/carlo/Desktop/labaselogo1.png"
   inkscape:export-xdpi="90"
   inkscape:export-ydpi="90">
  <defs
     id="defs4">
    <inkscape:perspective
       sodipodi:type="inkscape:persp3d"
       inkscape:vp_x="0 : 151.04546 : 1"
       inkscape:vp_y="6.1230318e-14 : 1000 : 0"
       inkscape:vp_z="405.85715 : 151.04546 : 1"
       inkscape:persp3d-origin="202.92857 : 100.69697 : 1"
       id="perspective45" />
    <linearGradient
       id="linearGradient3157">
      <stop
         style="stop-color:#ffb963;stop-opacity:0.30935252;"
         offset="0"
         id="stop3159" />
      <stop
         style="stop-color:#ffb963;stop-opacity:1;"
         offset="1"
         id="stop3161" />
    </linearGradient>
    <filter
       inkscape:collect="always"
       x="-0.074735232"
       width="1.1494704"
       y="-0.15299653"
       height="1.3059931"
       id="filter3167">
      <feGaussianBlur
         inkscape:collect="always"
         stdDeviation="14.525385"
         id="feGaussianBlur3169" />
    </filter>
    <filter
       inkscape:collect="always"
       x="-0.073269993"
       width="1.14654"
       y="-0.29211777"
       height="1.5842355"
       id="filter5170">
      <feGaussianBlur
         inkscape:collect="always"
         stdDeviation="9.9274167"
         id="feGaussianBlur5172" />
    </filter>
    <filter
       inkscape:collect="always"
       x="-0.045025181"
       width="1.0900505"
       y="-0.16926621"
       height="1.3385324"
       id="filter6241">
      <feGaussianBlur
         inkscape:collect="always"
         stdDeviation="4.5172921"
         id="feGaussianBlur6243" />
    </filter>
    <filter
       inkscape:collect="always"
       x="-0.037072431"
       width="1.074145"
       y="-0.2043968"
       height="1.4087936"
       id="filter8232">
      <feGaussianBlur
         inkscape:collect="always"
         stdDeviation="3.8822104"
         id="feGaussianBlur8234" />
    </filter>
    <radialGradient
       inkscape:collect="always"
       xlink:href="#linearGradient3157"
       id="radialGradient3306"
       gradientUnits="userSpaceOnUse"
       gradientTransform="matrix(-1.2989421,-3.010292e-3,3.1913267e-3,-1.427589,2434.8724,1114.4941)"
       cx="1047.9359"
       cy="472.16312"
       fx="1047.9359"
       fy="472.16312"
       r="114.16479" />
  </defs>
  <sodipodi:namedview
     id="base"
     pagecolor="#ffffff"
     bordercolor="#666666"
     borderopacity="1.0"
     inkscape:pageopacity="0.0"
     inkscape:pageshadow="2"
     inkscape:zoom="15.070432"
     inkscape:cx="30.883087"
     inkscape:cy="23.921013"
     inkscape:document-units="px"
     inkscape:current-layer="layer1"
     inkscape:window-width="1279"
     inkscape:window-height="949"
     inkscape:window-x="0"
     inkscape:window-y="25"
     showguides="true"
     inkscape:guide-bbox="true"
     showgrid="false" />
  <metadata
     id="metadata7">
    <rdf:RDF>
      <cc:Work
         rdf:about="">
        <dc:format>image/svg+xml</dc:format>
        <dc:type
           rdf:resource="http://purl.org/dc/dcmitype/StillImage" />
      </cc:Work>
    </rdf:RDF>
  </metadata>
  <g
     inkscape:label="Camada 1"
     inkscape:groupmode="layer"
     id="layer1"
     transform="translate(-185.6879,-425.05234)">
    <g
       transform="matrix(0.118392,0,0,0.1232322,170.57066,379.53421)"
       id="g4197">
      <path
         style="fill:#ff7f2a;fill-opacity:1;stroke:#280b0b;stroke-width:3;stroke-miterlimit:4;stroke-dasharray:none"
         d="M 404.61379,569.03065 C 369.3876,569.03065 335.0355,589.44803 335.03552,626.27611 C 335.03553,645.99718 334.26827,651.43017 338.62915,665.74364 C 356.31033,679.07796 375.10564,683.09819 387.392,684.11506 C 387.39194,684.06958 387.392,684.0257 387.392,683.98018 C 387.392,659.06488 394.9388,638.84745 404.22679,638.84745 C 413.19216,638.84744 420.50778,657.69998 421.00625,681.41735 C 428.75921,679.42767 435.66314,676.3823 441.65586,672.13722 C 441.0784,668.75395 440.59684,665.1982 440.21841,661.50823 C 437.73803,637.32208 440.87884,616.77407 447.23982,615.62014 C 452.53442,614.65964 458.36836,627.46354 461.61435,645.72661 C 462.63552,643.13414 463.57327,640.39361 464.37868,637.49859 C 462.97608,601.96484 438.9446,569.03064 404.61379,569.03065 z"
         id="path3269" />
      <path
         id="path3263"
         d="M 336.62713,649.9387 C 344.60603,605.99999 381.36055,583.02847 429.0482,587.22623 C 383.81194,534.27803 316.42114,597.57998 336.62713,649.9387 z"
         style="fill:#aa0000;fill-opacity:1;stroke:#241c1c;stroke-width:3;stroke-miterlimit:4;stroke-dasharray:none"
         sodipodi:nodetypes="ccc" />
      <path
         style="fill:#241f1c;fill-opacity:1;stroke:none;stroke-width:3;stroke-miterlimit:4;stroke-dasharray:none"
         d="M 395.46416,529.39005 C 369.55787,528.3569 344.60815,542.29328 330.01675,562.79369 C 317.30006,582.06286 309.02915,618.06755 324.29075,646.36756 C 320.14571,610.10629 323.31118,589.71914 342.73004,571.47215 C 338.75851,580.27494 331.55178,600.67051 333.508,624.72482 C 344.87975,579.76597 370.04546,571.39527 415.05227,574.25348 C 399.35935,563.59339 389.0575,560.48046 366.83108,562.04951 C 369.16843,557.71866 373.2473,545.98731 389.43494,541.32955 C 405.86893,536.60089 417.73549,537.93961 432.6444,539.2367 C 430.45284,534.74806 424.36025,534.84124 420.27691,532.84346 C 412.23256,530.53142 403.83916,529.47785 395.46416,529.39005 z"
         id="path5174"
         sodipodi:nodetypes="ccccccczccc" />
    </g>
    <flowRoot
       xml:space="preserve"
       id="flowRoot3413"
       style="font-size:12px"><flowRegion
         id="flowRegion3415"><rect
           id="rect3417"
           width="143.15077"
           height="12.766121"
           x="651.07214"
           y="810.99738"
           style="font-size:12px" /></flowRegion><flowPara
         id="flowPara3419">Lalalabase</flowPara></flowRoot>    <g
       id="g3267"
       transform="matrix(1.321455,0,0,1.321455,-66.893155,-151.0409)"
       inkscape:export-filename="/home/carlo/Desktop/bazaar/labase/artwork/labase/acadyalogo.png"
       inkscape:export-xdpi="90"
       inkscape:export-ydpi="90">
      <g
         inkscape:export-ydpi="90"
         inkscape:export-xdpi="90"
         inkscape:export-filename="/home/carlo/Desktop/bazaar/labase/artwork/labase/acadyalogo.png"
         transform="matrix(0.115149,0,0,0.1198567,169.20329,385.02594)"
         id="g3344">
        <path
           transform="translate(3.4538914,-1.1512971)"
           sodipodi:type="arc"
           style="fill:#ffccaa;fill-opacity:1;stroke:#28170b;stroke-width:3;stroke-miterlimit:4;stroke-dasharray:none"
           id="path3171"
           sodipodi:cx="390"
           sodipodi:cy="578.07648"
           sodipodi:rx="201.42857"
           sodipodi:ry="148.57143"
           d="M 591.42857,578.07648 A 201.42857,148.57143 0 1 1 188.57143,578.07648 A 201.42857,148.57143 0 1 1 591.42857,578.07648 z" />
        <path
           style="fill:#ffdec5;fill-opacity:1;stroke:none;stroke-width:3;stroke-miterlimit:4;stroke-dasharray:none;filter:url(#filter5170)"
           d="M 519.58482,470.29135 C 509.04395,469.5091 499.302,476.37509 481.08565,485.56928 C 457.9286,494.45786 423.52512,501.80779 379.62434,500.14958 C 368.46159,499.1603 336.48355,496.70877 326.11631,494.5226 C 319.83564,494.91395 301.08516,493.63616 294.55848,491.38982 C 294.54307,491.38585 294.52673,491.3896 294.51132,491.38564 C 280.0787,487.67618 270.68426,486.84787 268.48108,489.62735 C 265.83042,492.97139 274.05196,500.98855 289.90699,511.70068 C 289.91593,511.70571 289.92006,511.71531 289.92901,511.72033 C 315.09745,525.85558 347.99218,535.92567 384.51846,539.16276 C 457.33962,545.61642 520.74754,522.82035 538.88365,486.55045 C 539.24668,482.67718 538.49925,479.43005 536.52241,476.99722 C 534.27243,474.22817 524.3761,470.64691 519.58482,470.29135 z"
           id="path4142"
           sodipodi:nodetypes="cccccsscsscsc" />
        <path
           style="fill:#ffae77;fill-opacity:1;stroke:none;stroke-width:2.90109944;stroke-miterlimit:4;stroke-dasharray:none;filter:url(#filter3167)"
           d="M 209.35691,529.34842 C 202.57213,543.91518 198.88298,559.52708 198.88298,575.77727 C 198.88298,654.94965 286.30594,719.22704 394.01285,719.22704 C 493.43065,719.22704 575.54654,664.47797 587.59886,593.78769 C 561.36153,650.23615 488.55608,690.86893 402.91265,690.86893 C 295.20574,690.86895 207.81306,626.62171 207.81306,547.44933 C 207.81306,541.3163 208.33901,535.27951 209.35691,529.34842 z"
           id="path2166" />
        <path
           sodipodi:nodetypes="cccsc"
           id="path2236"
           d="M 261.32794,480.13579 C 221.16825,502.48163 201.64807,541.04287 201.64807,584.26023 C 204.10838,641.01162 266.74895,696.60326 329.77427,700.90513 C 277.03014,691.1956 213.12761,631.19662 213.12761,580.46438 C 213.12761,542.83901 229.23785,509.45827 261.32794,480.13579 z"
           style="fill:#241f1c;fill-opacity:1;stroke:none;stroke-width:3;stroke-miterlimit:4;stroke-dasharray:none" />
        <g
           id="g2282"
           style="fill:#aa0000">
          <path
             style="fill:#aa0000;fill-opacity:1;stroke:none;stroke-width:3;stroke-miterlimit:4;stroke-dasharray:none"
             d="M 273.59549,506.15119 C 264.71861,508.57416 254.2358,515.76085 247.42697,522.02013 C 227.30118,541.75865 219.8408,558.93467 223.45018,584.57834 C 225.9852,602.58896 231.99123,616.18212 242.61706,625.60028 C 246.84317,626.73647 254.92789,636.81184 258.60054,626.77234 C 260.32634,622.05472 259.92844,615.78662 256.2676,600.15226 C 248.12598,585.89458 232.2271,581.30284 235.06408,564.83073 C 235.99229,547.83916 240.35021,545.67823 245.80649,535.71976 C 253.43122,521.80354 265.1009,516.3877 273.59549,506.15119 z"
             id="path2242"
             sodipodi:nodetypes="ccscsccsc" />
          <path
             sodipodi:nodetypes="cczccccccccc"
             id="path3308"
             d="M 299.50123,492.54283 C 300.21392,511.04353 295.12817,530.47436 284.46048,545.6952 C 272.12106,557.86141 252.33242,557.76849 247.2962,561.80654 C 242.25999,565.84461 248.06199,571.61279 252.86158,575.56421 C 261.56226,584.26659 271.60183,594.87745 270.43391,609.09047 C 269.26683,625.38091 263.42181,641.85261 254.35285,655.03132 C 270.50019,641.74021 282.03368,619.87886 279.38791,598.10621 C 278.04424,587.79018 274.57869,576.66652 265.61037,571.67007 C 260.1844,569.02421 264.40797,569.26446 267.87735,568.88054 C 280.22658,566.73948 289.83658,555.59783 296.21897,544.53056 C 304.51872,528.37346 304.72773,508.871 299.47205,492.21195 L 299.50123,492.54283 z"
             style="fill:#aa0000;fill-opacity:1;stroke:none;stroke-width:3;stroke-miterlimit:4;stroke-dasharray:none" />
        </g>
        <g
           id="g8236"
           transform="matrix(1.1050125,0,0,1.1556549,-525.32145,-26.558112)">
          <path
             style="fill:#d38d5f;fill-opacity:1;stroke:none;stroke-width:3;stroke-miterlimit:4;stroke-dasharray:none"
             d="M 831.76518,394.23794 C 775.66105,394.23794 730.11026,404.28018 730.11028,416.65394 C 730.11028,429.02773 775.66108,439.06998 831.76518,439.06995 C 887.8693,439.06995 933.38575,429.02774 933.38575,416.65394 C 933.38575,404.28016 887.86933,394.23797 831.76518,394.23794 z M 750.50305,396.62653 C 746.25714,397.75215 742.3135,398.97307 738.65876,400.26453 C 742.31426,398.9725 746.25637,397.75274 750.50305,396.62653 z M 911.20774,396.62653 C 915.45282,397.75273 919.43245,398.9725 923.08637,400.26453 C 919.43164,398.97307 915.45366,397.75215 911.20774,396.62653 z M 929.98695,402.94711 C 932.12373,403.87082 934.12889,404.82978 935.9606,405.81342 C 934.11987,404.82552 932.1356,403.87448 929.98695,402.94711 z M 946.60329,413.71414 C 946.84899,413.99258 947.1017,414.27826 947.32425,414.55933 C 947.09669,414.27206 946.85505,413.99867 946.60329,413.71414 z M 947.32425,414.55933 C 947.76317,415.11371 948.17883,415.68563 948.52584,416.24972 C 948.17517,415.67764 947.76946,415.12141 947.32425,414.55933 z M 950.03642,419.74073 C 950.19042,420.33068 950.29343,420.94363 950.3454,421.54136 C 950.29342,420.94364 950.19048,420.33065 950.03642,419.74073 z M 950.3454,423.342 C 950.29343,423.93969 950.19042,424.51603 950.03642,425.10588 C 950.19048,424.51597 950.29342,423.93972 950.3454,423.342 z M 946.98094,430.6915 C 946.85605,430.8412 946.73477,430.98354 946.60329,431.13248 C 946.73494,430.98367 946.85587,430.84106 946.98094,430.6915 z M 801.00435,456.19431 C 806.7315,456.62441 812.62593,456.93435 818.65064,457.11299 C 812.62576,456.93463 806.7319,456.6238 801.00435,456.19431 z M 818.65064,457.11299 C 822.6671,457.23208 826.74894,457.29673 830.87257,457.29673 C 834.99619,457.29673 839.07804,457.23208 843.0945,457.11299 C 839.07816,457.2319 834.99619,457.25999 830.87257,457.25999 C 826.74894,457.25999 822.66721,457.2319 818.65064,457.11299 z M 843.0945,457.11299 C 849.11919,456.93435 855.01364,456.62441 860.74077,456.19431 C 855.01408,456.6238 849.11899,456.93463 843.0945,457.11299 z"
             id="path5191" />
          <path
             transform="matrix(1.0986008,0,0,1.1759215,-39.524275,-464.94528)"
             id="path5193"
             d="M 792.7415,730.9279 C 741.6728,730.92791 700.21024,739.46779 700.21025,749.9904 C 700.21026,754.29504 707.16995,758.26704 718.8665,761.45915 C 735.44582,756.31609 763.80444,752.92788 795.9915,752.9279 C 826.16889,752.92792 852.97987,755.91069 869.8665,760.52165 C 879.58789,757.50452 885.2415,753.88115 885.2415,749.9904 C 885.24151,739.46778 843.81024,730.92793 792.7415,730.9279 z M 897.6165,761.9279 C 897.50284,762.05521 897.39243,762.17625 897.27275,762.3029 C 897.3926,762.17637 897.50266,762.05508 897.6165,761.9279 z M 900.8665,783.9279 C 900.75266,784.05508 900.64262,784.17634 900.52275,784.3029 C 900.64243,784.17625 900.75286,784.05518 900.8665,783.9279 z"
             style="fill:#a05a2c;fill-opacity:1;stroke:none;stroke-width:3;stroke-miterlimit:4;stroke-dasharray:none;filter:url(#filter6241)" />
          <path
             id="path5185"
             d="M 832.125,390.65625 C 794.16217,390.65625 760.53839,395.88634 739.8125,403.90625 C 729.1947,409.36314 723.03125,415.82142 723.03125,422.75 C 723.03125,429.36048 728.63973,435.55017 738.375,440.84375 C 758.95966,449.17872 793.2614,454.65626 832.125,454.65625 C 869.44801,454.65625 902.61304,449.62541 923.40625,441.84375 C 923.42697,441.83327 923.44806,441.82299 923.46875,441.8125 C 934.31399,436.31612 940.625,429.75881 940.625,422.75 C 940.625,415.45239 933.80493,408.66405 922.125,403.03125 C 922.09413,403.02011 922.06217,403.01113 922.03125,403 C 901.1691,395.49248 868.64634,390.65626 832.125,390.65625 z M 833,396.8125 C 886.50734,396.81251 929.90625,406.0199 929.90625,417.375 C 929.90624,428.73009 886.50729,437.9375 833,437.9375 C 779.49277,437.9375 736.03125,428.73011 736.03125,417.375 C 736.03126,406.01989 779.49271,396.8125 833,396.8125 z"
             style="fill:#241f1c;fill-opacity:1;stroke:none;stroke-width:3;stroke-miterlimit:4;stroke-dasharray:none" />
          <path
             id="path7221"
             d="M 732.6875,413.25 C 727.38436,416.73196 724.82124,424.80181 730.0625,429.5 C 739.97734,440.68419 756.04333,442.04456 769.75,445.25 C 816.89506,453.51885 866.14417,452.73985 912.625,441.25 C 921.8967,438.63937 932.92274,434.06291 936.5,424.3125 C 937.16316,421.54232 935.12723,417.33611 933.8125,416.40625 C 934.05753,425.03894 924.32707,429.35649 917.39507,431.78498 C 878.663,442.92459 837.61099,443.35361 797.62834,440.44956 C 778.39031,438.29723 758.10622,437.15427 740.65625,428.15625 C 734.60873,425.98485 729.75239,418.9972 733.25,412.78125 L 732.6875,413.25 z"
             style="fill:#7a6565;fill-opacity:1;stroke:none;stroke-width:3;stroke-miterlimit:4;stroke-dasharray:none;filter:url(#filter8232)" />
        </g>
        <path
           transform="matrix(0.8818182,0,0,0.8660714,-533.73137,197.37903)"
           d="M 1163.443,473.23532 A 114.16479,116.24052 0 1 1 935.11341,473.23532 A 114.16479,116.24052 0 1 1 1163.443,473.23532 z"
           sodipodi:ry="116.24052"
           sodipodi:rx="114.16479"
           sodipodi:cy="473.23532"
           sodipodi:cx="1049.2782"
           id="path3155"
           style="fill:#fff6d5;fill-opacity:1;stroke:none;stroke-width:3;stroke-miterlimit:4;stroke-dasharray:none"
           sodipodi:type="arc" />
        <path
           transform="matrix(0.8818182,0,0,0.8660714,-533.51453,197.37904)"
           d="M 1163.443,473.23532 A 114.16479,116.24052 0 1 1 935.11341,473.23532 A 114.16479,116.24052 0 1 1 1163.443,473.23532 z"
           sodipodi:ry="116.24052"
           sodipodi:rx="114.16479"
           sodipodi:cy="473.23532"
           sodipodi:cx="1049.2782"
           id="path3271"
           style="fill:url(#radialGradient3306);fill-opacity:1;stroke:#280b0b;stroke-width:9.15426731;stroke-miterlimit:4;stroke-dasharray:none"
           sodipodi:type="arc" />
        <g
           transform="matrix(0.7780538,0,0,0.7780538,86.775157,134.8236)"
           id="g2483" />
        <path
           sodipodi:nodetypes="cccsc"
           id="path3342"
           d="M 525.97699,480.49619 C 566.13668,502.84203 585.65686,541.40327 585.65686,584.62063 C 583.19655,641.37202 520.55598,696.96366 457.53066,701.26553 C 510.27479,691.556 574.17732,631.55702 574.17732,580.82478 C 574.17732,543.19941 558.06708,509.81867 525.97699,480.49619 z"
           style="fill:#241f1c;fill-opacity:1;stroke:none;stroke-width:3;stroke-miterlimit:4;stroke-dasharray:none" />
        <g
           id="g2286"
           transform="matrix(-1,0,0,1,781.7064,0.6451378)"
           style="fill:#aa0000">
          <path
             sodipodi:nodetypes="ccscsccsc"
             id="path2288"
             d="M 273.59549,506.15119 C 264.71861,508.57416 254.2358,515.76085 247.42697,522.02013 C 227.30118,541.75865 219.8408,558.93467 223.45018,584.57834 C 225.9852,602.58896 231.99123,616.18212 242.61706,625.60028 C 246.84317,626.73647 254.92789,636.81184 258.60054,626.77234 C 260.32634,622.05472 259.92844,615.78662 256.2676,600.15226 C 248.12598,585.89458 232.2271,581.30284 235.06408,564.83073 C 235.99229,547.83916 240.35021,545.67823 245.80649,535.71976 C 253.43122,521.80354 265.1009,516.3877 273.59549,506.15119 z"
             style="fill:#aa0000;fill-opacity:1;stroke:none;stroke-width:3;stroke-miterlimit:4;stroke-dasharray:none" />
          <path
             style="fill:#aa0000;fill-opacity:1;stroke:none;stroke-width:3;stroke-miterlimit:4;stroke-dasharray:none"
             d="M 299.50123,492.54283 C 300.21392,511.04353 295.12817,530.47436 284.46048,545.6952 C 272.12106,557.86141 252.33242,557.76849 247.2962,561.80654 C 242.25999,565.84461 248.06199,571.61279 252.86158,575.56421 C 261.56226,584.26659 271.60183,594.87745 270.43391,609.09047 C 269.26683,625.38091 263.42181,641.85261 254.35285,655.03132 C 270.50019,641.74021 282.03368,619.87886 279.38791,598.10621 C 278.04424,587.79018 274.57869,576.66652 265.61037,571.67007 C 260.1844,569.02421 264.40797,569.26446 267.87735,568.88054 C 280.22658,566.73948 289.83658,555.59783 296.21897,544.53056 C 304.51872,528.37346 304.72773,508.871 299.47205,492.21195 L 299.50123,492.54283 z"
             id="path2290"
             sodipodi:nodetypes="cczccccccccc" />
        </g>
      </g>
      <g
         transform="translate(51.855277,6.1872774)"
         id="g3260">
        <path
           sodipodi:type="arc"
           style="opacity:1;fill:none;fill-opacity:0.99288252;fill-rule:nonzero;stroke:none;stroke-width:0.30000001;stroke-linecap:round;stroke-linejoin:miter;marker:none;marker-start:none;marker-mid:none;marker-end:none;stroke-miterlimit:4;stroke-dasharray:none;stroke-dashoffset:0;stroke-opacity:1;visibility:visible;display:inline;overflow:visible;enable-background:accumulate"
           id="path2438"
           sodipodi:cx="24.012529"
           sodipodi:cy="32.900097"
           sodipodi:rx="12.079923"
           sodipodi:ry="12.448213"
           d="M 36.092451,32.906053 A 12.079923,12.448213 0 1 1 36.092451,32.906022"
           transform="matrix(0.7134146,0,0,0.7032102,145.62534,428.9248)"
           sodipodi:start="0.00047849195"
           sodipodi:end="6.2836613"
           sodipodi:open="true" />
        <text
           xml:space="preserve"
           style="font-size:8.33162403000000040px;font-style:normal;font-variant:normal;font-weight:bold;font-stretch:normal;text-align:start;line-height:125%;writing-mode:lr-tb;text-anchor:start;fill:#000000;fill-opacity:1;stroke:none;stroke-width:1px;stroke-linecap:butt;stroke-linejoin:miter;stroke-opacity:1;font-family:Lucida Sans;-inkscape-font-specification:Nimbus Mono L Bold"
           id="text2440"
           sodipodi:linespacing="125%"
           transform="translate(-0.1473161,-0.1473161)"><textPath
             xlink:href="#path2438"
             id="textPath2469"><tspan
   style="font-size:6.66529942000000020px;font-style:normal;font-variant:normal;font-weight:bold;font-stretch:normal;font-family:Nimbus Mono L;-inkscape-font-specification:Nimbus Mono L Bold"
   id="tspan2442"><tspan
     id="tspan2447"
     style="font-size:3.33264971000000010px;font-weight:bold;-inkscape-font-specification:Nimbus Mono L Bold">ACADYA ACADYA ACADYA ACADYA </tspan></tspan></textPath></text>
      </g>
    </g>
    <g
       id="g4206">
      <path
         sodipodi:nodetypes="ccccc"
         id="path4175"
         d="M 208.91186,451.2691 C 208.33788,453.62025 207.56453,456.24412 208.38627,458.61133 C 208.9592,458.61133 209.53214,458.61133 210.10508,458.61133 C 210.85675,456.38642 210.24897,453.6 209.74995,451.26281 C 209.47058,451.26491 209.19122,451.267 208.91186,451.2691 z"
         style="opacity:1;fill:#ff7f2a;fill-opacity:1;fill-rule:nonzero;stroke:#280b0b;stroke-width:0.37691465;stroke-linecap:butt;stroke-linejoin:miter;marker:none;marker-start:none;marker-mid:none;marker-end:none;stroke-miterlimit:4;stroke-dasharray:none;stroke-dashoffset:0;stroke-opacity:1;visibility:visible;display:inline;overflow:visible;enable-background:accumulate" />
      <rect
         style="opacity:1;fill:#a15a2d;fill-opacity:1;fill-rule:nonzero;stroke:#280b0b;stroke-width:0.37691465000000002;stroke-linecap:butt;stroke-linejoin:miter;marker:none;marker-start:none;marker-mid:none;marker-end:none;stroke-miterlimit:4;stroke-dasharray:none;stroke-dashoffset:0;stroke-opacity:1;visibility:visible;display:inline;overflow:visible;enable-background:accumulate"
         id="rect4177"
         width="17.538197"
         height="1.698743"
         x="207.81253"
         y="458.61993" />
      <path
         sodipodi:nodetypes="ccccc"
         id="path4179"
         d="M 213.80534,451.2691 C 213.23137,453.62025 212.45802,456.24412 213.27976,458.61132 C 213.85268,458.61132 214.42563,458.61132 214.99856,458.61132 C 215.75024,456.38641 215.14246,453.6 214.64344,451.2628 C 214.36407,451.26491 214.08471,451.267 213.80534,451.2691 z"
         style="opacity:1;fill:#ff7f2a;fill-opacity:1;fill-rule:nonzero;stroke:#280b0b;stroke-width:0.37691465;stroke-linecap:butt;stroke-linejoin:miter;marker:none;marker-start:none;marker-mid:none;marker-end:none;stroke-miterlimit:4;stroke-dasharray:none;stroke-dashoffset:0;stroke-opacity:1;visibility:visible;display:inline;overflow:visible;enable-background:accumulate" />
      <rect
         style="opacity:1;fill:#a15a2d;fill-opacity:1;fill-rule:nonzero;stroke:#280b0b;stroke-width:0.37691465000000002;stroke-linecap:butt;stroke-linejoin:miter;marker:none;marker-start:none;marker-mid:none;marker-end:none;stroke-miterlimit:4;stroke-dasharray:none;stroke-dashoffset:0;stroke-opacity:1;visibility:visible;display:inline;overflow:visible;enable-background:accumulate"
         id="rect4181"
         width="17.538197"
         height="1.698743"
         x="207.81253"
         y="449.53568" />
      <path
         sodipodi:nodetypes="ccccc"
         id="path4183"
         d="M 218.69882,451.2691 C 218.12485,453.62025 217.35149,456.24412 218.17324,458.61133 C 218.74616,458.61133 219.31911,458.61133 219.89204,458.61133 C 220.64371,456.38642 220.03593,453.6 219.53691,451.26281 C 219.25755,451.26491 218.97818,451.267 218.69882,451.2691 z"
         style="opacity:1;fill:#ff7f2a;fill-opacity:1;fill-rule:nonzero;stroke:#280b0b;stroke-width:0.37691465;stroke-linecap:butt;stroke-linejoin:miter;marker:none;marker-start:none;marker-mid:none;marker-end:none;stroke-miterlimit:4;stroke-dasharray:none;stroke-dashoffset:0;stroke-opacity:1;visibility:visible;display:inline;overflow:visible;enable-background:accumulate" />
      <path
         style="opacity:1;fill:#aa0000;fill-opacity:1;fill-rule:nonzero;stroke:#280b0b;stroke-width:0.37691465000000002;stroke-linecap:butt;stroke-linejoin:miter;marker:none;marker-start:none;marker-mid:none;marker-end:none;stroke-miterlimit:4;stroke-dasharray:none;stroke-dashoffset:0;stroke-opacity:1;visibility:visible;display:inline;overflow:visible;enable-background:accumulate"
         d="M 216.33968,445.19033 L 207.94792,448.74992 L 207.94792,449.49931 L 225.239,449.34319 L 225.239,448.65625 L 216.33968,445.19033 z"
         id="path4185" />
      <rect
         y="460.48627"
         x="210.21382"
         height="0.76285905"
         width="12.735587"
         id="rect4187"
         style="opacity:1;fill:#ffbd91;fill-opacity:1;fill-rule:nonzero;stroke:#280b0b;stroke-width:0.37691465000000002;stroke-linecap:butt;stroke-linejoin:miter;marker:none;marker-start:none;marker-mid:none;marker-end:none;stroke-miterlimit:4;stroke-dasharray:none;stroke-dashoffset:0;stroke-opacity:1;visibility:visible;display:inline;overflow:visible;enable-background:accumulate" />
      <rect
         y="461.36627"
         x="210.90079"
         height="0.76928788"
         width="11.361657"
         id="rect4189"
         style="opacity:1;fill:#ffbd91;fill-opacity:1;fill-rule:nonzero;stroke:#280b0b;stroke-width:0.37691465000000002;stroke-linecap:butt;stroke-linejoin:miter;marker:none;marker-start:none;marker-mid:none;marker-end:none;stroke-miterlimit:4;stroke-dasharray:none;stroke-dashoffset:0;stroke-opacity:1;visibility:visible;display:inline;overflow:visible;enable-background:accumulate" />
      <rect
         style="opacity:1;fill:#ffbd91;fill-opacity:1;fill-rule:nonzero;stroke:#280b0b;stroke-width:0.37691465000000002;stroke-linecap:butt;stroke-linejoin:miter;marker:none;marker-start:none;marker-mid:none;marker-end:none;stroke-miterlimit:4;stroke-dasharray:none;stroke-dashoffset:0;stroke-opacity:1;visibility:visible;display:inline;overflow:visible;enable-background:accumulate"
         id="rect4191"
         width="8.9585514"
         height="0.78170538"
         x="212.10234"
         y="462.24319" />
      <path
         style="opacity:1;fill:#2b0000;fill-opacity:1;fill-rule:nonzero;stroke:#280b0b;stroke-width:0.26732126000000000;stroke-linecap:butt;stroke-linejoin:miter;marker:none;marker-start:none;marker-mid:none;marker-end:none;stroke-miterlimit:4;stroke-dasharray:none;stroke-dashoffset:0;stroke-opacity:1;visibility:visible;display:inline;overflow:visible;enable-background:accumulate"
         d="M 210.80252,448.55472 L 216.32258,446.31872 L 222.12331,448.4719 L 210.80252,448.55472 z"
         id="path4193" />
      <path
         style="opacity:1;fill:#ff7f2a;fill-opacity:1;fill-rule:nonzero;stroke:#280b0b;stroke-width:0.37691465;stroke-linecap:butt;stroke-linejoin:miter;marker:none;marker-start:none;marker-mid:none;marker-end:none;stroke-miterlimit:4;stroke-dasharray:none;stroke-dashoffset:0;stroke-opacity:1;visibility:visible;display:inline;overflow:visible;enable-background:accumulate"
         d="M 223.5923,451.2691 C 223.01832,453.62025 222.24497,456.24412 223.06671,458.61133 C 223.63964,458.61133 224.21258,458.61133 224.78552,458.61133 C 225.53719,456.38642 224.92941,453.6 224.43039,451.26281 C 224.15102,451.26491 223.87166,451.267 223.5923,451.2691 z"
         id="path4195"
         sodipodi:nodetypes="ccccc" />
    </g>
  </g>
</svg>
