<?xml version="1.0" encoding="UTF-8" standalone="no"?>
<!-- Created with Inkscape (http://www.inkscape.org/) -->
<svg
   xmlns:dc="http://purl.org/dc/elements/1.1/"
   xmlns:cc="http://web.resource.org/cc/"
   xmlns:rdf="http://www.w3.org/1999/02/22-rdf-syntax-ns#"
   xmlns:svg="http://www.w3.org/2000/svg"
   xmlns="http://www.w3.org/2000/svg"
   xmlns:xlink="http://www.w3.org/1999/xlink"
   xmlns:sodipodi="http://sodipodi.sourceforge.net/DTD/sodipodi-0.dtd"
   xmlns:inkscape="http://www.inkscape.org/namespaces/inkscape"
   id="svg1"
   sodipodi:version="0.32"
   inkscape:version="0.45.1"
   width="204.03937"
   height="70.159645"
   sodipodi:docbase="/home/carlo/Desktop"
   sodipodi:docname="ulisses.svg"
   inkscape:output_extension="org.inkscape.output.svg.inkscape"
   version="1.0">
  <metadata
     id="metadata110">
    <rdf:RDF>
      <cc:Work
         rdf:about="">
        <dc:format>image/svg+xml</dc:format>
        <dc:type
           rdf:resource="http://purl.org/dc/dcmitype/StillImage" />
      </cc:Work>
    </rdf:RDF>
  </metadata>
  <defs
     id="defs3">
    <linearGradient
       id="linearGradient2479">
      <stop
         style="stop-color:#ffffbd;stop-opacity:1.0000000;"
         offset="0.0000000"
         id="stop2480" />
      <stop
         style="stop-color:#ffaa45;stop-opacity:1.0000000;"
         offset="1.0000000"
         id="stop2481" />
    </linearGradient>
    <radialGradient
       xlink:href="#linearGradient2479"
       id="radialGradient2478"
       cx="1492.8101"
       cy="988.3089"
       r="1140.2892"
       fx="1506.3846"
       fy="988.30878"
       gradientUnits="userSpaceOnUse"
       gradientTransform="scale(0.998275,1.001728)" />
    <linearGradient
       id="linearGradient2474">
      <stop
         style="stop-color:#ffffaf;stop-opacity:1.0000000;"
         offset="0.0000000"
         id="stop2475" />
      <stop
         style="stop-color:#ffaa45;stop-opacity:1.0000000;"
         offset="1.0000000"
         id="stop2476" />
    </linearGradient>
    <radialGradient
       xlink:href="#linearGradient2474"
       id="radialGradient2473"
       cx="1294.4952"
       cy="1177.9824"
       r="528.75836"
       fx="1299.7258"
       fy="1188.4442"
       spreadMethod="pad"
       gradientUnits="userSpaceOnUse"
       gradientTransform="scale(0.9985077,1.0014946)" />
    <linearGradient
       id="linearGradient2367">
      <stop
         style="stop-color:#d9632c;stop-opacity:1.0000000;"
         offset="0.0000000"
         id="stop2368" />
      <stop
         style="stop-color:#ffaa45;stop-opacity:1.0000000;"
         offset="1.0000000"
         id="stop2369" />
    </linearGradient>
    <radialGradient
       xlink:href="#linearGradient2367"
       id="radialGradient2370"
       cx="492.57953"
       cy="160.90729"
       r="23.405191"
       fx="492.57953"
       fy="160.90729"
       gradientTransform="scale(0.9785047,1.0219675)"
       gradientUnits="userSpaceOnUse" />
  </defs>
  <sodipodi:namedview
     id="base"
     pagecolor="#ffffff"
     bordercolor="#666666"
     borderopacity="1.0"
     inkscape:pageopacity="0.0"
     inkscape:pageshadow="2"
     inkscape:zoom="4.5285379"
     inkscape:cx="102.01968"
     inkscape:cy="35.079823"
     inkscape:window-width="1018"
     inkscape:window-height="690"
     showguides="true"
     snaptoguides="true"
     inkscape:window-x="5"
     inkscape:window-y="73"
     inkscape:current-layer="svg1" />
  <g
     id="g2261"
     transform="translate(-444.68185,-132.0063)">
    <rect
       ry="32.390255"
       y="133.2563"
       x="445.93185"
       height="67.659645"
       width="201.53937"
       id="rect1720"
       style="fill:#ffddbe;fill-opacity:1;fill-rule:evenodd;stroke:#000000;stroke-width:2.5;stroke-dasharray:none" />
    <path
       transform="translate(449.4434,133.6828)"
       d="M 59.742025 33.868607 A 24.832529 23.03307 0 1 1  10.076967,33.868607 A 24.832529 23.03307 0 1 1  59.742025 33.868607 z"
       sodipodi:ry="23.03307"
       sodipodi:rx="24.832529"
       sodipodi:cy="33.868607"
       sodipodi:cx="34.909496"
       id="path876"
       style="fill:#d00000;fill-opacity:1;fill-rule:evenodd;stroke:none;stroke-width:1pt"
       sodipodi:type="arc" />
    <path
       sodipodi:nodetypes="ccccccccccccccccccccccccccccccccsccsc"
       id="path915"
       d="M 534.57594,150.534 C 534.26979,150.05407 533.06633,144.59045 524.3517,144.49178 C 520.51182,144.38613 513.18948,147.9738 509.7892,153.49178 C 510.09524,153.87945 510.41105,154.24593 510.69545,154.64803 C 517.29348,147.95821 524.11029,145.18668 529.75795,156.46053 C 532.64689,163.23456 536.4142,178.99333 536.4142,179.67928 C 538.45005,188.58615 544.22922,191.36678 547.13295,191.36678 L 562.13295,191.39803 C 564.3278,188.38411 566.53362,182.9682 564.11502,180.29096 C 561.26791,177.13941 558.29388,177.43271 555.42777,178.95617 C 552.70288,180.93457 552.04397,183.68042 552.41445,184.58105 C 553.75068,186.73561 555.46614,188.75852 559.4142,187.21053 C 557.38656,188.93603 552.86608,189.66907 548.75795,187.55428 C 544.07691,185.14457 546.29726,177.48632 550.36975,174.74166 C 557.66127,169.68606 564.00429,172.6132 569.4767,175.99178 C 573.78281,178.76164 579.22003,188.01238 580.32045,191.42928 L 582.44545,191.42928 C 581.85472,189.27169 579.00509,184.0332 575.7267,179.89803 C 577.26004,177.9198 578.84785,176.16891 580.2892,175.24178 C 583.02543,173.55249 586.66038,172.43732 590.5392,172.36678 C 594.41802,172.29623 598.54972,173.27647 602.19545,175.80428 C 606.26795,178.54895 605.68896,184.42581 601.00795,186.83553 C 598.4267,189.2048 592.37936,188.18602 590.3517,186.46053 C 602.95217,188.51747 600.62578,180.69352 597.90088,178.46065 C 595.03477,176.93719 589.73916,176.3894 586.89204,179.54096 C 584.12848,182.60006 586.34852,189.3005 588.3517,191.42928 L 607.38295,191.46053 C 612.18286,191.46052 607.60661,174.59007 605.9767,172.71053 C 605.24753,167.63011 604.8728,162.44317 606.19545,158.64803 C 608.9256,150.18182 615.63124,143.36297 629.3517,147.17928 C 624.15822,144.02721 621.47732,143.15103 616.1017,144.58553 C 608.52178,146.60827 603.63376,151.28992 603.4767,151.86678 C 603.17054,151.43403 600.2751,157.07203 600.26002,161.50553 C 600.24516,165.87302 600.33421,168.96053 597.9767,168.96053 L 547.13295,168.96053 C 542.54643,168.96053 539.24162,165.57159 537.13295,157.89803 C 536.28221,154.80214 534.73298,149.89426 534.57594,150.534 z "
       style="fill:#000000;fill-opacity:1;fill-rule:evenodd;stroke:none;stroke-width:1pt" />
    <path
       sodipodi:nodetypes="cccccc"
       id="path893"
       d="M 608.13634,146.6511 C 600.26006,140.08446 587.25149,141.1262 581.13459,148.46301 C 577.70146,152.58085 576.73592,154.35478 577.86232,159.42752 C 578.50287,157.08854 581.39731,153.95729 583.02024,152.01069 C 588.0073,146.02904 598.3804,149.94965 601.77969,152.12914 C 603.08379,149.66935 606.02497,148.01966 608.13634,146.6511 z "
       style="fill:#d00000;fill-opacity:1;fill-rule:evenodd;stroke:none;stroke-width:1pt" />
    <path
       sodipodi:nodetypes="cscscc"
       id="path895"
       d="M 561.11504,147.59301 C 554.15131,146.6731 548.57902,148.32885 543.26472,154.39201 C 540.69166,157.03731 538.39654,162.04236 538.9369,166.5323 C 540.97095,163.65263 542.51023,161.74151 544.31767,160.02784 C 548.89112,155.94612 552.16509,154.52666 558.78945,153.34196 C 559.33546,151.28948 559.73483,149.78822 561.11504,147.59301 z "
       style="fill:#d00000;fill-opacity:1;fill-rule:evenodd;stroke:none;stroke-width:1pt" />
    <path
       id="path917"
       d="M 520.41472,155.10271 C 518.24419,155.22372 515.90678,158.49597 513.16472,163.63396 C 513.36571,164.92502 513.60222,166.19898 513.60222,167.54021 C 513.60223,175.97724 509.41723,183.46988 502.91472,188.60271 L 502.16472,190.54021 L 535.32097,190.54021 L 528.41472,165.88396 C 525.36913,158.41677 522.94576,154.9616 520.41472,155.10271 z "
       style="fill:#d00000;fill-opacity:1;fill-rule:evenodd;stroke:none;stroke-width:0.75781202pt" />
    <path
       sodipodi:nodetypes="ccssscccccccccccsccccccccccccccccczccccccccccc"
       id="path944"
       d="M 622.4822,149.5435 C 619.42112,149.70097 615.79711,151.07377 613.74776,152.67298 C 611.71147,154.38841 609.03697,158.09991 610.3145,162.16414 C 611.24739,165.35706 616.60208,167.7327 614.37264,170.41862 C 611.92907,173.51579 611.29314,177.76281 611.99352,182.53926 C 612.67078,187.15798 615.9011,189.08283 619.9309,188.61496 C 624.50234,188.0842 628.0499,185.65983 630.27465,183.80246 C 630.30025,183.80322 630.31133,183.83371 630.33715,183.83371 C 631.34076,183.83371 632.05913,183.1954 632.3684,182.39621 C 632.38999,182.38194 632.34876,182.37878 632.3684,182.36496 C 632.44222,182.16509 632.64964,182.02419 632.64965,181.80246 C 632.64963,180.67866 631.6014,179.77121 630.33715,179.77121 C 629.07286,179.77121 628.05589,180.67866 628.0559,181.80246 C 628.05588,182.66162 628.10759,183.17257 627.8059,183.45871 C 627.17796,184.05429 625.48371,184.7343 622.7434,185.05246 C 618.71357,185.52033 616.68555,182.75327 616.46003,179.59927 C 616.32581,175.77568 619.06635,171.38882 622.27465,169.89621 C 624.13629,168.94014 627.84316,168.15533 628.58715,168.27121 C 631.41942,168.71237 630.46215,168.99056 630.46215,169.55246 C 630.46212,170.67626 631.47912,171.58371 632.7434,171.58371 C 634.00764,171.58371 635.02463,170.67625 635.02465,169.55246 C 635.02462,169.11472 634.78945,168.75956 634.52465,168.42746 C 634.51571,168.41629 634.50255,168.40721 634.4934,168.39621 C 634.07609,167.89454 633.49864,167.52121 632.7434,167.52121 C 632.718,167.52121 632.70607,167.55173 632.6809,167.55246 C 631.73923,167.07217 630.82887,166.77413 629.89965,166.45871 C 630.90806,165.81807 631.95026,165.16245 632.6809,164.55246 C 632.7065,164.55322 632.71758,164.58371 632.7434,164.58371 C 633.74701,164.58371 634.46538,163.9454 634.77465,163.14621 C 634.79624,163.13194 634.75501,163.12878 634.77465,163.11496 C 634.84847,162.91509 635.05589,162.77419 635.0559,162.55246 C 635.05588,161.42866 634.00765,160.52121 632.7434,160.52121 C 631.47911,160.52121 630.46214,161.42866 630.46215,162.55246 C 630.46213,163.41162 630.51384,163.92257 630.21215,164.20871 C 629.79525,164.60409 629.70466,165.47643 627.02465,165.27121 C 624.34464,164.97602 622.13601,163.41344 619.7434,161.92746 C 616.98302,160.21309 616.54644,155.24369 619.8684,153.67746 C 622.31995,152.4257 624.16108,152.36129 626.9934,152.80246 C 629.82573,153.24362 628.83715,153.49056 628.83715,154.05246 C 628.83713,155.17625 629.85412,156.08371 631.1184,156.08371 C 632.38265,156.08371 633.39963,155.17626 633.39965,154.05246 C 633.39963,153.61472 633.16445,153.25956 632.89965,152.92746 C 632.89072,152.91629 632.87755,152.90721 632.8684,152.89621 C 632.4511,152.39454 631.87364,152.02121 631.1184,152.02121 C 631.09301,152.02121 631.08107,152.05173 631.0559,152.05246 C 628.32416,150.65915 624.9727,149.41538 622.4822,149.5435 z "
       style="fill:#d00000;fill-opacity:1;fill-rule:evenodd;stroke:none;stroke-width:1pt" />
    <path
       id="path945"
       d="M 581.95186,140.94113 C 571.93434,138.74881 562.13564,144.51631 560.09345,153.84769 C 558.94727,159.08501 560.56939,164.29735 563.90905,168.27832 C 563.39827,165.90761 563.34025,163.42261 563.88208,160.9468 C 566.0993,150.81564 576.98198,144.58794 588.16757,147.0359 C 590.28723,147.49978 592.21055,148.3066 594.01159,149.27454 C 591.42443,145.22463 587.20308,142.09036 581.95186,140.94113 z "
       style="fill:#d00000;fill-opacity:1;fill-rule:evenodd;stroke:none;stroke-width:1pt" />
    <path
       id="path1000"
       d="M 549.94068,141.21208 C 548.66051,141.11168 547.33705,141.14211 546.00318,141.30583 C 541.08882,141.90904 536.96837,144.31835 534.03443,147.64958 C 535.98385,150.00947 537.21398,152.91219 537.72193,155.99333 C 540.71693,150.28696 546.55538,145.89599 553.90943,144.99333 C 556.06304,144.72898 558.13945,144.86405 560.15943,145.18083 C 557.32252,142.9575 553.78109,141.51328 549.94068,141.21208 z "
       style="fill:#d00000;fill-opacity:1;fill-rule:evenodd;stroke:none;stroke-width:1pt" />
    <path
       id="path888"
       d="M 588.44206,151.32356 C 578.42455,149.13124 568.62584,154.89874 566.58365,164.23012 C 565.43747,169.46745 567.05959,174.67978 570.39926,178.66076 C 569.88847,176.29005 569.83046,173.80504 570.37228,171.32923 C 572.5895,161.19809 583.47218,154.97037 594.65777,157.41834 C 596.77743,157.88222 598.70075,158.68903 600.50179,159.65698 C 597.91463,155.60707 593.69328,152.47279 588.44206,151.32356 z "
       style="fill:#d00000;fill-opacity:1;fill-rule:evenodd;stroke:none;stroke-width:1pt" />
    <path
       sodipodi:nodetypes="csczcc"
       id="path891"
       d="M 568.43231,157.65735 C 558.41481,155.46503 551.50631,158.27581 545.87407,163.31118 C 541.86238,166.80711 537.82487,174.14254 541.16454,178.12351 C 540.65376,175.7528 542.16545,171.57123 545.84548,169.13786 C 549.58914,166.70449 558.52806,163.38219 565.59776,164.55146 C 566.14377,162.49898 567.30659,159.97979 568.43231,157.65735 z "
       style="fill:#d00000;fill-opacity:1;fill-rule:evenodd;stroke:none;stroke-width:1pt" />
    <polyline
       transform="matrix(2.912153e-2,0,0,2.80779e-2,450.1541,135.3023)"
       id="polyline7590"
       style="fill:url(#radialGradient2478);stroke:#000000;stroke-width:4.58611107;stroke-opacity:1"
       points="1165,1994 891,1949 654,1826 467,1638 344,1400 300,1126 344,851 467,613 654,425 891,302 1165,258 1438,302 1675,425 1862,613 1985,851 2030,1126 1985,1400 1862,1638 1675,1826 1438,1949 1165,1994" />
    <polyline
       transform="matrix(2.912153e-2,0,0,2.80779e-2,450.1541,135.3023)"
       id="polyline7589"
       style="fill:none;stroke:#000000;stroke-width:4.58611107;stroke-opacity:1"
       points="1169,1664 957,1621 784,1504 667,1330 625,1119 667,907 784,734 957,616 1169,574 1380,616 1553,734 1670,907 1713,1119 1670,1330 1553,1504 1380,1621 1169,1664" />
    <polyline
       transform="matrix(2.912153e-2,0,0,2.80779e-2,450.1541,135.3023)"
       id="polyline7591"
       style="fill:none;stroke:#000000;stroke-width:4.58611107;stroke-opacity:1"
       points="765,1598 627,1724 956,1915" />
    <polyline
       transform="matrix(2.912153e-2,0,0,2.80779e-2,450.1541,135.3023)"
       id="polyline7592"
       style="fill:none;stroke:#000000;stroke-width:4.58611107;stroke-opacity:1"
       points="1099,1935 1464,1890 1300,1714 1573,1586" />
    <polyline
       transform="matrix(2.912153e-2,0,0,2.80779e-2,450.1541,135.3023)"
       id="polyline7593"
       style="fill:none;stroke:#000000;stroke-width:4.58611107;stroke-opacity:1"
       points="1029,1923 894,1672 1163,1726 976,1792 1114,1815 1029,1923" />
    <polyline
       transform="matrix(2.912153e-2,0,0,2.80779e-2,450.1541,135.3023)"
       id="polyline7594"
       style="fill:none;stroke:#000000;stroke-width:4.58611107;stroke-opacity:1"
       points="1701,1730 1499,1862 1549,1744 1651,1672 1540,1755 1388,1726 1585,1639" />
    <polyline
       transform="matrix(2.912153e-2,0,0,2.80779e-2,450.1541,135.3023)"
       id="polyline7595"
       style="fill:none;stroke:#000000;stroke-width:4.58611107;stroke-opacity:1"
       points="943,1858 800,1621 692,1726 874,1818 795,1689 768,1721" />
    <polyline
       transform="matrix(2.912153e-2,0,0,2.80779e-2,450.1541,135.3023)"
       id="polyline7596"
       style="fill:none;stroke:#000000;stroke-width:4.58611107;stroke-opacity:1"
       points="1353,1858 1223,1726 1119,1883 1300,1867 1235,1797 1210,1838" />
    <polyline
       transform="matrix(2.912153e-2,0,0,2.80779e-2,450.1541,135.3023)"
       id="polyline7597"
       style="fill:none;stroke:#000000;stroke-width:4.58611107;stroke-opacity:1"
       points="1642,1513 1768,1651 1960,1322" />
    <polyline
       transform="matrix(2.912153e-2,0,0,2.80779e-2,450.1541,135.3023)"
       id="polyline7598"
       style="fill:none;stroke:#000000;stroke-width:4.58611107;stroke-opacity:1"
       points="1977,1184 1934,821 1759,982 1632,709" />
    <polyline
       transform="matrix(2.912153e-2,0,0,2.80779e-2,450.1541,135.3023)"
       id="polyline7599"
       style="fill:none;stroke:#000000;stroke-width:4.58611107;stroke-opacity:1"
       points="1969,1252 1718,1384 1771,1113 1836,1302 1859,1168 1969,1252" />
    <polyline
       transform="matrix(2.912153e-2,0,0,2.80779e-2,450.1541,135.3023)"
       id="polyline7600"
       style="fill:none;stroke:#000000;stroke-width:4.58611107;stroke-opacity:1"
       points="1776,577 1909,779 1788,731 1718,628 1798,738 1771,892 1685,696" />
    <polyline
       transform="matrix(2.912153e-2,0,0,2.80779e-2,450.1541,135.3023)"
       id="polyline7601"
       style="fill:none;stroke:#000000;stroke-width:4.58611107;stroke-opacity:1"
       points="1904,1337 1665,1478 1771,1586 1866,1402 1733,1483 1764,1511" />
    <polyline
       transform="matrix(2.912153e-2,0,0,2.80779e-2,450.1541,135.3023)"
       id="polyline7602"
       style="fill:none;stroke:#000000;stroke-width:4.58611107;stroke-opacity:1"
       points="1904,927 1771,1053 1925,1161 1914,978 1841,1045 1884,1070" />
    <polyline
       transform="matrix(2.912153e-2,0,0,2.80779e-2,450.1541,135.3023)"
       id="polyline7603"
       style="fill:none;stroke:#000000;stroke-width:4.58611107;stroke-opacity:1"
       points="1567,650 1706,525 1378,331" />
    <polyline
       transform="matrix(2.912153e-2,0,0,2.80779e-2,450.1541,135.3023)"
       id="polyline7604"
       style="fill:none;stroke:#000000;stroke-width:4.58611107;stroke-opacity:1"
       points="1235,314 870,357 1032,532 760,660" />
    <polyline
       transform="matrix(2.912153e-2,0,0,2.80779e-2,450.1541,135.3023)"
       id="polyline7605"
       style="fill:none;stroke:#000000;stroke-width:4.58611107;stroke-opacity:1"
       points="1306,324 1437,573 1170,520 1358,457 1220,434 1306,324" />
    <polyline
       transform="matrix(2.912153e-2,0,0,2.80779e-2,450.1541,135.3023)"
       id="polyline7606"
       style="fill:none;stroke:#000000;stroke-width:4.58611107;stroke-opacity:1"
       points="632,517 836,384 783,504 684,573 795,494 946,520 750,607" />
    <polyline
       transform="matrix(2.912153e-2,0,0,2.80779e-2,450.1541,135.3023)"
       id="polyline7607"
       style="fill:none;stroke:#000000;stroke-width:4.58611107;stroke-opacity:1"
       points="1392,389 1535,626 1640,520 1459,427 1540,560 1565,527" />
    <polyline
       transform="matrix(2.912153e-2,0,0,2.80779e-2,450.1541,135.3023)"
       id="polyline7608"
       style="fill:none;stroke:#000000;stroke-width:4.58611107;stroke-opacity:1"
       points="982,389 1110,520 1215,366 1032,379 1099,452 1124,409" />
    <polyline
       transform="matrix(2.912153e-2,0,0,2.80779e-2,450.1541,135.3023)"
       id="polyline7609"
       style="fill:none;stroke:#000000;stroke-width:4.58611107;stroke-opacity:1"
       points="690,708 566,568 373,899" />
    <polyline
       transform="matrix(2.912153e-2,0,0,2.80779e-2,450.1541,135.3023)"
       id="polyline7610"
       style="fill:none;stroke:#000000;stroke-width:4.58611107;stroke-opacity:1"
       points="355,1040 400,1405 574,1244 702,1516" />
    <polyline
       transform="matrix(2.912153e-2,0,0,2.80779e-2,450.1541,135.3023)"
       id="polyline7611"
       style="fill:none;stroke:#000000;stroke-width:4.58611107;stroke-opacity:1"
       points="366,972 616,839 562,1106 499,919 474,1056 366,972" />
    <polyline
       transform="matrix(2.912153e-2,0,0,2.80779e-2,450.1541,135.3023)"
       id="polyline7612"
       style="fill:none;stroke:#000000;stroke-width:4.58611107;stroke-opacity:1"
       points="559,1642 426,1440 546,1491 616,1591 536,1480 562,1329 649,1528" />
    <polyline
       transform="matrix(2.912153e-2,0,0,2.80779e-2,450.1541,135.3023)"
       id="polyline7613"
       style="fill:none;stroke:#000000;stroke-width:4.58611107;stroke-opacity:1"
       points="431,882 669,741 562,636 469,817 599,734 567,711" />
    <polyline
       transform="matrix(2.912153e-2,0,0,2.80779e-2,450.1541,135.3023)"
       id="polyline7614"
       style="fill:none;stroke:#000000;stroke-width:4.58611107;stroke-opacity:1"
       points="431,1292 562,1168 408,1061 420,1244 494,1178 449,1151" />
    <polyline
       transform="matrix(2.912153e-2,0,0,2.80779e-2,450.1541,135.3023)"
       id="polyline7710"
       style="fill:url(#radialGradient2473);fill-opacity:1;stroke:#000000;stroke-width:4.58611107;stroke-opacity:1"
       points="1462,1513 1444,1530 1364,1574 1354,1541 1331,1473 1290,1377 1250,1337 1220,1339 1205,1370 1193,1422 1193,1480 1205,1535 1220,1603 1223,1618 1175,1628 1094,1628 1029,1613 977,1574 943,1516 928,1438 924,1347 936,1251 962,1161 1002,1078 1064,1013 1140,973 1230,962 1278,967 1326,980 1366,995 1388,1007 1412,1020 1490,1083 1550,1156 1585,1242 1588,1327 1565,1393 1540,1340 1497,1291 1456,1259 1417,1251 1399,1267 1401,1327 1432,1428 1457,1498 1462,1513" />
    <polyline
       transform="matrix(2.912153e-2,0,0,2.80779e-2,451.2569,137.1274)"
       id="polyline7718"
       style="fill:#fca356;fill-opacity:1;stroke:#000000;stroke-opacity:1"
       points="934,1505 892,1340 892,1189 934,1063 1019,977 1083,954 1158,954 1234,986 1301,1058 1207,1017 1132,1019 1072,1054 1021,1113 978,1185 950,1271 936,1376 934,1505" />
    <path
       id="path2366"
       d="M 474.76926,176.96478 C 473.51704,175.00869 472.26482,173.05259 471.01259,171.09649 C 470.68255,169.2527 470.35251,167.40892 470.02246,165.56513 C 470.39133,163.91789 470.7602,162.27065 471.12908,160.62341 C 471.9833,159.27567 472.83754,157.92792 473.69176,156.58018 C 474.80809,155.63489 475.92441,154.68959 477.04073,153.74431 C 478.51622,153.17339 479.99171,152.60246 481.46721,152.03155 C 483.04947,151.99411 484.63173,151.95667 486.214,151.91924 C 487.60213,152.34977 488.99025,152.7803 490.37837,153.21082 C 491.28114,154.07188 492.1839,154.93294 493.08667,155.794 C 493.29052,156.31812 493.49437,156.84225 493.69822,157.36636 C 493.78558,157.956 493.87295,158.54564 493.96032,159.13528 C 493.9406,159.73522 493.92195,160.33521 493.90158,160.93514 C 493.80467,161.5051 493.70776,162.07506 493.61086,162.64502 C 492.5819,161.76524 491.55294,160.88547 490.52398,160.0057 C 489.7377,159.65003 488.95142,159.29438 488.16514,158.93873 C 487.58271,158.90129 487.00028,158.86385 486.41785,158.82642 C 486.00781,158.87939 485.59561,158.91805 485.18705,158.98093 C 484.77221,159.06982 484.35737,159.1587 483.94253,159.24759 C 483.52512,159.46285 483.10771,159.67811 482.6903,159.89338 C 482.33114,160.17416 481.97197,160.45494 481.61281,160.73571 C 481.36042,161.02586 481.10804,161.31599 480.85565,161.60614 C 481.57398,161.44703 482.29231,161.28791 483.01064,161.12882 C 483.89399,161.14752 484.77734,161.16625 485.66069,161.18497 C 486.57317,161.5219 487.48564,161.85884 488.39811,162.19577 C 489.18439,163.01003 489.97067,163.8243 490.75695,164.63855 C 489.96023,164.55189 489.16285,164.47043 488.36656,164.38046 C 487.28028,164.19447 486.19393,164.0088 485.10738,163.8243 C 484.64046,163.83399 484.1735,163.84243 483.70659,163.8529 C 483.29017,163.9276 482.87375,164.0023 482.45733,164.07699 C 482.1467,164.19866 481.83607,164.32034 481.52545,164.44201 C 481.27247,164.61133 481.01859,164.7794 480.76619,164.94951 C 480.521,165.1991 480.2677,165.44182 480.0277,165.69583 C 479.56594,166.37293 479.10417,167.05003 478.64242,167.72714 C 478.37061,168.57883 478.09881,169.43053 477.82702,170.28223 C 477.67174,171.30343 477.51002,172.32383 477.35883,173.34555 C 477.27221,174.53324 477.18559,175.72094 477.09898,176.90863 C 476.79805,176.14115 476.49714,175.37369 476.19621,174.60623 C 475.95353,173.23041 475.71086,171.85459 475.46818,170.47877 C 475.59438,168.78474 475.72056,167.09069 475.84675,165.39666 C 476.66215,163.70263 477.47756,162.00858 478.29296,160.31455 C 477.31253,161.31599 476.33211,162.31744 475.3517,163.31889 C 474.944,164.75087 474.5363,166.18284 474.12859,167.61482 C 474.11888,169.21526 474.10917,170.8157 474.09946,172.41615 C 474.32274,173.93236 474.546,175.44857 474.76926,176.96478 z "
       style="fill:url(#radialGradient2370);stroke:#000000" />
  </g>
</svg>
