<?xml version="1.0" encoding="UTF-8" standalone="no"?>
<!-- Created with Inkscape (http://www.inkscape.org/) -->
<svg
   xmlns:dc="http://purl.org/dc/elements/1.1/"
   xmlns:cc="http://creativecommons.org/ns#"
   xmlns:rdf="http://www.w3.org/1999/02/22-rdf-syntax-ns#"
   xmlns:svg="http://www.w3.org/2000/svg"
   xmlns="http://www.w3.org/2000/svg"
   xmlns:xlink="http://www.w3.org/1999/xlink"
   xmlns:sodipodi="http://sodipodi.sourceforge.net/DTD/sodipodi-0.dtd"
   xmlns:inkscape="http://www.inkscape.org/namespaces/inkscape"
   width="210mm"
   height="297mm"
   id="svg2418"
   sodipodi:version="0.32"
   inkscape:version="0.46"
   sodipodi:docname="isgd.svg"
   inkscape:output_extension="org.inkscape.output.svg.inkscape">
  <defs
     id="defs2420">
    <inkscape:perspective
       sodipodi:type="inkscape:persp3d"
       inkscape:vp_x="0 : 526.18109 : 1"
       inkscape:vp_y="0 : 1000 : 0"
       inkscape:vp_z="744.09448 : 526.18109 : 1"
       inkscape:persp3d-origin="372.04724 : 350.78739 : 1"
       id="perspective2426" />
    <inkscape:perspective
       id="perspective2435"
       inkscape:persp3d-origin="372.04724 : 350.78739 : 1"
       inkscape:vp_z="744.09448 : 526.18109 : 1"
       inkscape:vp_y="0 : 1000 : 0"
       inkscape:vp_x="0 : 526.18109 : 1"
       sodipodi:type="inkscape:persp3d" />
  </defs>
  <sodipodi:namedview
     id="base"
     pagecolor="#ffffff"
     bordercolor="#666666"
     borderopacity="1.0"
     inkscape:pageopacity="0.0"
     inkscape:pageshadow="2"
     inkscape:zoom="1.9270763"
     inkscape:cx="372.04724"
     inkscape:cy="675.83194"
     inkscape:document-units="px"
     inkscape:current-layer="layer1"
     showgrid="false"
     inkscape:window-width="1280"
     inkscape:window-height="949"
     inkscape:window-x="0"
     inkscape:window-y="25" />
  <metadata
     id="metadata2423">
    <rdf:RDF>
      <cc:Work
         rdf:about="">
        <dc:format>image/svg+xml</dc:format>
        <dc:type
           rdf:resource="http://purl.org/dc/dcmitype/StillImage" />
      </cc:Work>
    </rdf:RDF>
  </metadata>
  <g
     inkscape:label="Camada 1"
     inkscape:groupmode="layer"
     id="layer1">
    <image
       y="243.61557"
       x="56.941463"
       id="image2437"
       height="189"
       width="250"
       sodipodi:absref="/home/carlo/Modelos/aantigos/artwork/web2/isgdlogo.jpg"
       xlink:href="isgdlogo.jpg" />
    <path
       style="fill:#000000"
       d="M 188.36572,264.11131 C 182.78536,261.69087 181.33597,259.84928 181.33597,255.17934 C 181.33597,252.35625 182.14784,249.77752 183.80583,247.33433 C 185.16426,245.33258 185.89442,243.69478 185.42843,243.69478 C 184.96243,243.69478 183.2993,246.14309 181.73259,249.13547 C 178.28997,255.71079 177.35402,255.70307 180.26454,249.12335 C 181.41717,246.51765 182.17886,244.20433 181.95718,243.98266 C 180.57332,242.59879 133.46957,248.06998 110.34702,252.3003 C 103.78482,254.89598 100.1826,254.40028 97.173991,255.41917 C 96.976323,252.38639 96.047617,249.33626 97.294075,241.09062 C 100.35994,220.89922 101.59218,200.30393 100.33818,190.21253 C 98.473497,175.20679 91.868455,161.45263 83.248551,154.62554 C 81.096631,152.92119 79.33597,150.93209 79.33597,150.20532 C 79.33597,147.47734 111.78118,137.64148 131.83597,134.2898 C 172.52673,129.93056 219.33882,127.02819 259.51285,137.15124 C 260.8951,137.72941 261.3117,137.0394 261.88382,133.22417 C 262.26557,130.67851 263.23061,127.94298 264.02836,127.14523 C 265.75043,125.42317 270.80056,125.26358 275.18674,126.79261 C 279.00436,128.12343 279.21394,130.24672 276.33596,138.4351 C 274.03956,144.96878 273.72836,147.77326 275.83868,142.91659 C 276.98514,140.27813 277.70931,139.73439 279.54954,140.13029 C 280.80707,140.40083 287.46096,141.80583 294.33596,143.25251 C 301.21096,144.69918 307.25714,146.28419 307.7719,146.77475 C 308.33885,147.31503 306.27841,149.86519 302.54571,153.24309 C 294.4849,160.5377 289.80027,169.7633 288.15326,181.58665 C 286.64714,192.39863 288.26208,214.19212 292.37935,238.61723 C 294.00548,248.26406 295.33596,256.72793 295.33596,257.42584 C 295.33596,258.12376 294.24396,258.69478 292.90928,258.69478 C 291.43905,258.69478 290.30236,259.38452 290.02529,260.44478 C 289.67532,261.78397 289.54073,261.67564 289.45196,259.98332 C 289.3244,257.55141 289.42231,257.58785 271.33596,253.24109 C 262.34873,251.08115 233.02722,245.69478 230.2565,245.69478 C 229.75021,245.69478 229.29539,247.38228 229.24578,249.44478 L 229.15559,253.19478 L 228.20719,249.90619 C 227.68557,248.09746 226.45961,245.81842 225.48284,244.84165 C 223.78157,243.14038 223.62763,243.25765 221.82231,247.63024 C 219.42323,253.44095 212.00822,261.45106 206.83597,263.81933 C 201.95831,266.05272 193.16227,266.19177 188.36572,264.11131 z M 203.71805,262.60573 C 209.30481,261.05451 216.52927,253.85317 219.94661,246.42909 C 222.34288,241.22326 222.81791,238.87502 222.82613,232.19478 C 222.84127,219.8841 219.37894,215.72983 207.83597,214.20887 C 197.72241,212.87625 195.22291,210.74788 197.83636,205.69402 C 199.09104,203.26774 199.91979,202.8282 203.15562,202.87285 C 209.344,202.95826 213.14788,200.32872 216.17386,193.87365 C 218.52803,188.85168 218.82611,187.03804 218.75071,178.19478 C 218.70382,172.69478 218.47882,167.295 218.25071,166.19526 C 217.94566,164.72457 218.43162,164.11103 220.08816,163.87543 C 222.83993,163.48405 224.56556,160.51689 224.14762,156.89533 C 223.84847,154.30306 223.59539,154.1926 217.83597,154.14029 C 214.53597,154.11033 210.05016,153.55695 207.8675,152.91058 C 194.51747,148.95708 185.1606,163.66695 188.27151,183.71728 C 188.91007,187.83291 190.55845,193.17023 192.02072,195.85689 L 194.63032,200.65159 L 192.12572,204.43631 C 188.51085,209.89874 188.05603,212.08904 189.7131,216.05496 C 191.51711,220.37257 195.22617,222.39284 204.64315,224.18717 C 213.46332,225.86778 215.33597,227.75967 215.33597,234.98984 C 215.33597,244.96266 208.43568,253.95744 199.79056,255.25386 C 191.28081,256.52998 190.17105,252.12736 196.81059,243.43182 C 200.18057,239.01829 201.35931,234.44527 199.43371,233.25519 C 198.4724,232.66106 190.33616,241.61947 185.96553,248.08433 C 182.92002,252.58913 182.54326,257.67373 185.08597,259.9546 C 188.7601,263.25038 197.11487,264.43916 203.71805,262.60573 z M 201.11946,192.94478 C 197.84946,189.19599 196.96465,185.84277 196.53432,175.56815 C 196.12298,165.7472 196.25022,164.78053 198.2126,162.81815 C 204.84069,156.19006 211.21034,164.65483 211.28834,180.19478 C 211.31978,186.45964 210.89871,188.89968 209.34693,191.44478 C 207.09777,195.13368 203.58709,195.77373 201.11946,192.94478 z M 206.77833,191.78804 C 207.08655,191.28933 206.49075,191.10305 205.45432,191.37408 C 204.23956,191.69175 202.9953,191.0465 201.95294,189.55832 C 201.06361,188.28862 200.33597,187.65196 200.33597,188.14353 C 200.33597,189.55074 203.51091,192.69478 204.93194,192.69478 C 205.63924,192.69478 206.47011,192.28675 206.77833,191.78804 z M 205.94553,186.11429 C 206.86944,182.43313 205.86101,170.54433 204.39202,167.79952 C 201.23172,161.89443 199.60155,174.62966 202.26135,184.44478 C 203.5674,189.26434 204.9928,189.91027 205.94553,186.11429 z M 209.06444,175.94478 C 208.84869,173.88228 208.67218,175.56978 208.67218,179.69478 C 208.67218,183.81978 208.84869,185.50728 209.06444,183.44478 C 209.28018,181.38228 209.28018,178.00728 209.06444,175.94478 z M 198.99825,179.44478 C 198.72084,178.75728 198.49386,179.31978 198.49386,180.69478 C 198.49386,182.06978 198.72084,182.63228 198.99825,181.94478 C 199.27566,181.25728 199.27566,180.13228 198.99825,179.44478 z M 198.0253,170.94478 C 197.77377,169.98228 197.56797,170.76978 197.56797,172.69478 C 197.56797,174.61978 197.77377,175.40728 198.0253,174.44478 C 198.27682,173.48228 198.27682,171.90728 198.0253,170.94478 z M 207.33342,166.68863 C 205.50181,162.26673 202.8926,161.13815 200.35889,163.67186 C 199.24628,164.78447 198.36643,166.25728 198.40365,166.94478 C 198.44087,167.63228 198.95964,167.18228 199.55646,165.94478 C 201.29304,162.34403 204.95277,162.99308 206.46304,167.16965 C 207.15413,169.08082 207.91883,170.44525 208.16237,170.20171 C 208.40591,169.95817 208.03289,168.37728 207.33342,166.68863 z M 290.71442,244.44478 C 287.36545,226.15557 285.33853,206.70316 285.33717,192.83913 C 285.33529,173.62066 288.93909,162.96121 298.75815,153.14216 L 303.97803,147.92228 L 291.54003,145.18876 C 281.67371,143.02043 278.93811,142.72048 278.30923,143.73802 C 276.94142,145.95119 272.46086,162.82118 270.88409,171.69478 C 270.05339,176.36978 268.83661,187.04749 268.18015,195.42301 C 267.09295,209.29417 267.13583,210.81616 268.66127,212.50175 C 269.73257,213.68552 270.33596,216.06304 270.33596,219.10044 C 270.33596,223.05877 269.82928,224.35531 267.29006,226.89452 C 264.50567,229.67892 263.80662,229.89838 259.14778,229.45072 C 255.90054,229.1387 253.10522,229.45474 251.44368,230.32174 C 245.80629,233.26336 237.99358,231.65327 232.58354,226.43493 C 227.25129,221.29161 225.13953,214.17473 224.35233,198.69478 C 223.97474,191.26978 223.5872,186.54478 223.49112,188.19478 C 223.25506,192.24878 219.18017,200.66147 216.06313,203.53002 C 214.66748,204.81441 211.86729,206.43537 209.84047,207.13215 L 206.15535,208.39904 L 212.30831,209.60956 C 223.80956,211.87229 228.83065,219.92107 228.17993,235.05171 L 227.83597,243.04941 L 240.33597,244.842 C 255.04804,246.95181 273.61721,250.82843 284.83596,254.1321 C 289.23596,255.4278 292.86332,256.53446 292.89675,256.59135 C 292.93019,256.64824 291.94814,251.18228 290.71442,244.44478 z M 280.45668,185.19478 C 280.28242,181.14171 283.25925,169.77729 285.86086,164.56371 C 287.33437,161.6108 290.3722,157.29814 292.61159,154.98002 C 297.22286,150.20664 297.47113,150.47798 286.39231,148.18286 C 279.40602,146.73556 276.21263,145.62236 279.41929,145.7521 C 283.58434,145.92061 296.76622,149.48556 297.11715,150.53836 C 297.34203,151.21298 295.71522,153.72941 293.50203,156.13044 C 287.59005,162.54418 284.7986,168.82277 281.46928,183.19478 C 280.95964,185.39478 280.50397,186.29478 280.45668,185.19478 z M 204.98909,251.11336 C 206.17331,250.37761 208.123,248.29494 209.32173,246.4852 L 211.50126,243.19478 L 208.92358,246.19478 C 207.2147,248.18364 206.34423,248.67236 206.34094,247.64478 C 206.33821,246.79228 206.87597,245.55478 207.53597,244.89478 C 208.19597,244.23478 208.35808,243.69478 207.89621,243.69478 C 207.43435,243.69478 206.45866,244.48228 205.72802,245.44478 C 204.46284,247.11145 204.39806,247.11145 204.36777,245.44478 C 204.35028,244.48228 203.88597,243.69478 203.33597,243.69478 C 202.78597,243.69478 202.33597,242.72726 202.33597,241.54474 C 202.33597,239.76163 201.85,240.06556 199.48841,243.32564 C 194.77718,249.8293 193.92146,251.82056 195.43563,252.75637 C 197.06227,253.76169 202.12903,252.89031 204.98909,251.11336 z M 119.33597,248.32493 C 136.29188,245.41837 156.19718,243.07217 172.23861,242.08939 L 183.64125,241.39081 L 189.90756,234.79279 L 196.17386,228.19478 L 193.00387,226.54861 C 191.26037,225.64322 188.9771,223.95572 187.92994,222.79861 C 185.59268,220.21597 184.33597,220.11373 184.33597,222.50622 C 184.33597,224.95624 180.86006,228.52514 177.70187,229.31779 C 176.28356,229.67377 173.50371,229.468 171.52442,228.86055 C 168.65522,227.97996 167.61006,228.04174 166.36854,229.16531 C 164.36582,230.97774 153.85262,232.67757 144.58597,232.68723 C 133.23288,232.69906 132.07875,230.83069 132.5451,213.19478 L 132.83597,202.19478 L 142.08742,202.19478 C 148.4872,202.19478 151.33842,201.83401 151.33742,201.02437 C 151.33654,200.31059 148.70252,199.60016 144.58597,199.20341 C 135.94737,198.37084 135.78517,198.30998 133.69236,195.11594 C 132.23637,192.89381 131.79079,188.86685 131.11382,171.81219 C 130.66371,160.47262 130.54486,149.75941 130.84971,148.00506 C 131.1804,146.10203 132.70127,143.72064 134.61998,142.10155 L 137.83597,139.38775 L 133.83597,140.09458 C 126.73652,141.34911 126.34312,141.58255 127.25795,143.9979 C 127.71559,145.20618 128.41534,150.75754 128.81296,156.33424 L 129.53589,166.4737 L 125.68593,167.6973 C 123.56845,168.37029 119.01461,170.28617 115.56628,171.95482 C 112.11795,173.62347 109.06016,174.7523 108.7712,174.46334 C 108.03725,173.72939 104.33597,157.9956 104.33597,155.60963 C 104.33597,153.5312 112.32525,147.79556 120.08212,144.30519 C 122.39176,143.26592 124.07158,142.076 123.81505,141.66093 C 123.55852,141.24585 125.93329,140.45545 129.0923,139.90448 C 136.68996,138.57936 151.48112,139.99713 158.42915,142.7165 C 171.31864,147.76128 176.32518,152.64913 176.33223,160.19515 C 176.3361,164.33551 173.88273,177.48135 172.92797,178.43611 C 172.62996,178.73413 169.64518,177.78924 166.29514,176.33637 C 162.94509,174.8835 159.67131,173.69201 159.02006,173.68862 C 158.36881,173.68523 156.59847,173.03692 155.08597,172.24792 C 152.56535,170.93304 152.33597,170.96598 152.33597,172.64279 C 152.33597,173.95841 153.36813,174.66583 156.01109,175.16166 C 162.35913,176.35256 167.28515,178.81466 169.47624,181.89178 C 171.38246,184.56882 171.54605,185.86265 171.13715,195.02804 L 170.68357,205.19478 L 175.41936,204.85436 C 179.18207,204.5839 180.58466,204.94347 182.24555,206.60436 C 183.39528,207.75409 184.33597,208.20175 184.33597,207.59915 C 184.33597,206.99655 185.27227,205.18861 186.41663,203.5815 L 188.49729,200.65948 L 186.43847,196.40652 C 183.8071,190.97083 181.96745,177.82498 182.84246,170.70994 C 184.80076,154.78622 196.12069,144.41619 208.10032,147.57157 C 210.44571,148.18934 215.45311,148.69478 219.22788,148.69478 C 227.73412,148.69478 228.84934,149.75796 228.80141,157.82159 C 228.77287,162.62161 228.32415,164.12038 226.22853,166.41519 C 224.00188,168.85349 223.7438,169.8701 224.12661,174.69478 L 224.56301,180.19478 L 226.42971,172.84482 C 230.45938,156.97833 238.84715,148.84848 249.99976,149.99953 L 255.27365,150.54384 L 255.92484,147.07268 C 256.70109,142.93491 256.45392,142.62063 251.597,141.56983 C 248.14365,140.82269 248.22455,140.79295 252.58596,141.20632 C 256.14381,141.54353 257.33596,141.31536 257.33596,140.29721 C 257.33596,138.76126 251.64808,137.76599 227.32563,135.04601 C 216.36577,133.82037 203.50142,133.30217 183.33597,133.27404 C 152.66716,133.23125 142.70239,134.17939 119.33597,139.36364 C 108.95182,141.66754 84.701814,148.9956 83.506558,150.19086 C 83.241618,150.4558 85.261602,153.04007 87.995413,155.93367 C 94.332646,162.64133 97.585177,168.29923 100.50513,177.69478 C 102.59838,184.43026 102.8284,187.02962 102.76167,203.19478 C 102.6967,218.93518 101.01241,238.03482 98.714077,249.09383 C 98.127497,251.9163 98.200397,251.97726 101.47378,251.40169 C 103.32299,251.07654 111.36097,249.692 119.33597,248.32493 z M 116.83597,230.33185 L 111.83597,229.16091 L 112.16091,218.67785 C 112.45004,209.35019 111.6715,197.6233 109.7346,182.13108 L 109.10152,177.06739 L 116.21916,173.88483 C 120.13387,172.13443 124.79912,170.58809 126.58639,170.44853 L 129.83597,170.19478 L 130.45875,181.19478 C 130.80128,187.24478 131.13878,201.08228 131.20875,211.94478 L 131.33597,231.69478 L 126.58597,231.59878 C 123.97347,231.54599 119.58597,230.97587 116.83597,230.33185 z M 128.32066,202.44478 C 128.31224,187.45728 127.91571,174.57974 127.43948,173.82801 C 126.46065,172.28295 121.99777,173.37603 115.07361,176.85674 C 112.07517,178.36403 111.40357,179.19949 111.76599,180.97141 C 113.27407,188.34467 113.68035,193.0029 114.22761,209.19478 L 114.83597,227.19478 L 120.33597,228.34835 C 123.36097,228.98282 126.39847,229.54532 127.08597,229.59835 C 128.0581,229.67334 128.33257,223.63705 128.32066,202.44478 z M 102.95673,178.04867 C 100.75321,170.922 97.342816,164.72532 92.206418,158.51537 C 90.077672,155.9417 88.33597,153.36024 88.33597,152.77879 C 88.33597,152.19735 90.02347,151.00681 92.08597,150.13315 C 97.148259,147.98881 119.07939,141.67741 121.16595,141.76443 C 122.08446,141.80274 120.58597,142.49215 117.83597,143.29645 C 104.49479,147.1984 96.348598,149.79156 92.882141,151.23994 L 89.07524,152.83056 L 92.140994,156.01267 C 98.405367,162.5148 106.39737,179.0106 105.12807,182.8185 C 104.92932,183.41473 103.95222,181.26831 102.95673,178.04867 z M 236.33597,139.69478 C 232.24465,139.05871 232.15383,138.98826 235.33597,138.9191 C 237.26097,138.87726 240.86097,139.20335 243.33597,139.64374 C 247.35554,140.35896 247.4623,140.44178 244.33597,140.41942 C 242.41097,140.40566 238.81097,140.07957 236.33597,139.69478 z M 141.60681,138.09061 C 141.9391,137.75832 142.8016,137.72279 143.52347,138.01167 C 144.32121,138.33089 144.08425,138.56785 142.91931,138.61583 C 141.86514,138.65925 141.27451,138.4229 141.60681,138.09061 z M 225.09763,137.98752 C 226.34154,137.74833 228.14154,137.75741 229.09763,138.0077 C 230.05372,138.25799 229.03597,138.4537 226.83597,138.4426 C 224.63597,138.4315 223.85372,138.22671 225.09763,137.98752 z M 148.58597,137.00545 C 149.54847,136.75393 151.12347,136.75393 152.08597,137.00545 C 153.04847,137.25698 152.26097,137.46278 150.33597,137.46278 C 148.41097,137.46278 147.62347,137.25698 148.58597,137.00545 z M 215.09763,136.98752 C 216.34154,136.74833 218.14154,136.75741 219.09763,137.0077 C 220.05372,137.25799 219.03597,137.4537 216.83597,137.4426 C 214.63597,137.4315 213.85372,137.22671 215.09763,136.98752 z M 158.58597,135.97853 C 160.09847,135.7494 162.57347,135.7494 164.08597,135.97853 C 165.59847,136.20765 164.36097,136.39512 161.33597,136.39512 C 158.31097,136.39512 157.07347,136.20765 158.58597,135.97853 z M 199.06367,135.97305 C 200.8389,135.75214 203.9889,135.74851 206.06367,135.96498 C 208.13843,136.18146 206.68597,136.3622 202.83597,136.36664 C 198.98597,136.37108 197.28843,136.19396 199.06367,135.97305 z M 189.83597,239.69478 C 190.83146,238.59478 191.42095,237.69478 191.14595,237.69478 C 190.87095,237.69478 189.83146,238.59478 188.83597,239.69478 C 187.84048,240.79478 187.25099,241.69478 187.52599,241.69478 C 187.80099,241.69478 188.84048,240.79478 189.83597,239.69478 z M 209.70568,239.44478 C 211.2255,233.77359 209.837,229.69535 206.38597,229.69432 C 205.15821,229.69395 204.83597,230.94074 204.83597,235.69152 C 204.83597,241.14663 205.02896,241.68944 206.96934,241.69198 C 208.33774,241.69378 209.31892,240.88799 209.70568,239.44478 z M 202.99825,235.44478 C 202.72084,234.75728 202.49386,235.31978 202.49386,236.69478 C 202.49386,238.06978 202.72084,238.63228 202.99825,237.94478 C 203.27566,237.25728 203.27566,236.13228 202.99825,235.44478 z M 226.0417,229.44478 C 225.80335,228.20728 225.60833,229.21978 225.60833,231.69478 C 225.60833,234.16978 225.80335,235.18228 226.0417,233.94478 C 226.28006,232.70728 226.28006,230.68228 226.0417,229.44478 z M 199.97975,229.90067 C 198.95883,229.68427 197.68721,229.94354 197.15393,230.47682 C 196.52779,231.10296 197.18533,231.24233 199.01015,230.87028 C 201.10311,230.44355 201.35457,230.19209 199.97975,229.90067 z M 153.33597,229.67003 C 161.43489,228.63013 166.33597,227.04172 166.33597,225.45683 C 166.33597,224.90941 167.3008,224.71382 168.48002,225.0222 C 170.08936,225.44305 170.33875,225.29756 169.48002,224.43883 C 167.76484,222.72365 168.05416,212.54213 169.89267,209.91729 C 171.31834,207.88186 171.30636,207.69478 169.75035,207.69478 C 168.21309,207.69478 168.11717,206.65413 168.74288,196.76566 L 169.43444,185.83654 L 166.63521,182.78959 C 164.62095,180.59708 161.87299,179.21035 156.83597,177.84449 L 149.83597,175.94635 L 150.04056,170.19932 C 150.15308,167.03845 150.45666,164.24076 150.7152,163.98223 C 151.96466,162.73276 155.24204,165.0351 155.52416,167.36049 C 155.7857,169.51632 156.88384,170.32486 162.33597,172.37593 C 171.65644,175.88224 171.46344,175.93102 172.94478,169.69478 C 176.05708,156.59238 174.0734,152.49567 161.83597,146.75275 C 155.47582,143.76799 147.34906,141.69478 142.00926,141.69478 C 138.11125,141.69478 134.54614,144.01179 133.26685,147.3766 C 132.03291,150.62209 133.96495,190.12029 135.50035,193.03793 C 137.20697,196.28093 138.25176,196.66281 145.46353,196.67947 C 149.53562,196.68888 152.48589,197.17676 153.11502,197.94478 C 153.67818,198.63228 154.07078,201.44478 153.98746,204.19478 C 153.8473,208.82105 153.64911,209.19478 151.33597,209.19478 C 149.54146,209.19478 148.74969,208.58956 148.53022,207.0501 C 148.18118,204.60176 144.28195,203.63442 138.08597,204.45904 L 134.33597,204.95812 L 134.33597,214.37611 C 134.33597,223.81444 135.70325,228.8741 138.56493,230.02549 C 140.55625,230.82669 145.19759,230.715 153.33597,229.67003 z M 245.52347,229.01167 C 244.80159,228.7228 243.9391,228.75832 243.6068,229.09061 C 243.27451,229.42291 243.86514,229.65925 244.9193,229.61583 C 246.08425,229.56785 246.32119,229.33089 245.52347,229.01167 z M 208.52347,227.01167 C 207.80159,226.7228 206.9391,226.75832 206.6068,227.09061 C 206.27451,227.42291 206.86514,227.65925 207.9193,227.61583 C 209.08425,227.56785 209.3212,227.33089 208.52347,227.01167 z M 261.58596,227.0325 C 260.89846,226.75509 259.77346,226.75509 259.08596,227.0325 C 258.39846,227.30991 258.96096,227.53689 260.33596,227.53689 C 261.71096,227.53689 262.27346,227.30991 261.58596,227.0325 z M 180.46353,224.94478 C 181.73304,223.32602 181.68598,223.3048 179.83597,224.66181 C 178.73597,225.46868 177.64847,226.25618 177.4193,226.41181 C 177.19014,226.56744 177.47254,226.69478 178.04686,226.69478 C 178.62118,226.69478 179.70868,225.90728 180.46353,224.94478 z M 202.52347,226.01167 C 201.80159,225.7228 200.9391,225.75832 200.6068,226.09061 C 200.27451,226.42291 200.86514,226.65925 201.9193,226.61583 C 203.08425,226.56785 203.3212,226.33089 202.52347,226.01167 z M 251.4641,224.07882 C 253.12489,222.57582 253.80976,222.53103 257.33596,223.69478 C 260.90968,224.87421 261.53764,224.82224 263.33185,223.1985 C 265.77753,220.98519 265.8779,218.45151 263.65433,215.05792 C 262.12612,212.72558 262.08004,211.01456 263.14921,196.30444 C 264.78387,173.81419 266.7143,163.35224 273.09246,142.41714 C 275.60128,134.18242 276.36444,130.32326 275.6294,129.58822 C 275.0512,129.01002 272.768,128.29416 270.55562,127.99742 C 265.42748,127.30959 265.23762,127.66134 261.78763,144.24184 C 260.30527,151.36596 258.94957,157.35494 258.77495,157.55069 C 258.60034,157.74644 256.42454,157.13022 253.93985,156.18131 C 239.1705,150.54084 229.36431,165.5108 229.36637,193.69478 C 229.36769,211.68338 232.47922,221.4183 239.36999,224.99263 C 243.37825,227.07177 248.59224,226.67781 251.4641,224.07882 z M 243.64182,215.19645 C 239.3254,212.17312 238.07275,206.13527 238.5192,190.50524 C 238.94762,175.50652 239.79803,172.22624 244.62726,166.94478 C 249.13043,162.0199 258.20364,165.60636 256.96091,171.82003 C 256.64005,173.42434 255.88088,183.16496 255.27388,193.46586 C 254.21454,211.44283 254.07095,212.28512 251.69733,214.44478 C 248.81036,217.07153 246.61175,217.27668 243.64182,215.19645 z M 245.33597,213.31722 C 245.33597,213.10957 244.54847,212.32207 243.58597,211.56722 C 241.99991,210.32335 241.96454,210.35872 243.20841,211.94478 C 244.51478,213.61053 245.33597,214.14026 245.33597,213.31722 z M 250.20917,191.64805 C 250.88315,181.17235 251.70074,171.90776 252.02603,171.06006 C 253.14519,168.14357 248.04434,170.01051 246.19354,173.19478 C 241.21399,181.762 242.01938,210.69478 247.23741,210.69478 C 248.79518,210.69478 249.11607,208.63812 250.20917,191.64805 z M 240.94014,202.96561 C 240.60784,202.63332 240.3715,203.22395 240.41492,204.27811 C 240.4629,205.44306 240.69986,205.68001 241.01908,204.88228 C 241.30795,204.16041 241.27243,203.2979 240.94014,202.96561 z M 240.0505,189.92687 C 239.82232,188.42422 239.64023,189.89478 239.64584,193.19478 C 239.65145,196.49478 239.83814,197.72422 240.0607,195.92687 C 240.28326,194.12952 240.27867,191.42952 240.0505,189.92687 z M 253.06576,187.96708 C 252.84928,185.89232 252.66854,187.34478 252.6641,191.19478 C 252.65966,195.04478 252.83678,196.74232 253.05769,194.96708 C 253.2786,193.19185 253.28223,190.04185 253.06576,187.96708 z M 240.99191,180.42575 C 240.71798,179.74872 240.51054,180.54478 240.53092,182.19478 C 240.5513,183.84478 240.77542,184.39872 241.02896,183.42575 C 241.2825,182.45278 241.26583,181.10278 240.99191,180.42575 z M 254.02304,175.93312 C 253.77275,174.97703 253.57704,175.99478 253.58814,178.19478 C 253.59924,180.39478 253.80403,181.17703 254.04322,179.93312 C 254.28241,178.68921 254.27333,176.88921 254.02304,175.93312 z M 241.94014,175.96561 C 241.60784,175.63332 241.3715,176.22395 241.41492,177.27811 C 241.4629,178.44306 241.69986,178.68001 242.01908,177.88228 C 242.30795,177.16041 242.27243,176.2979 241.94014,175.96561 z M 247.68046,168.37765 C 250.59767,165.77325 250.64077,165.64753 248.25123,166.71286 C 245.85514,167.78111 242.29627,172.39912 242.36638,174.34907 C 242.3831,174.81421 242.87563,174.29478 243.46088,173.19478 C 244.04612,172.09478 245.94494,169.92707 247.68046,168.37765 z M 254.30806,168.16116 C 253.63871,167.35465 252.58367,166.70846 251.96352,166.72519 C 251.34336,166.74191 251.62346,167.21427 252.58596,167.77488 C 253.54846,168.33548 254.37149,169.5593 254.41491,170.49447 C 254.46575,171.58951 254.6774,171.73784 255.00945,170.91116 C 255.29302,170.20517 254.9774,168.96767 254.30806,168.16116 z M 265.83596,224.69478 C 266.83145,223.59478 267.42094,222.69478 267.14594,222.69478 C 266.87094,222.69478 265.83145,223.59478 264.83596,224.69478 C 263.84047,225.79478 263.25098,226.69478 263.52598,226.69478 C 263.80098,226.69478 264.84047,225.79478 265.83596,224.69478 z M 177.71117,223.40969 C 179.90567,221.80504 180.94937,214.70944 179.41312,211.83894 C 178.1322,209.44551 173.53612,208.89463 171.53597,210.89478 C 170.87597,211.55478 170.33597,214.49428 170.33597,217.427 C 170.33597,222.02208 170.64702,222.88425 172.58597,223.66362 C 175.61989,224.8831 175.70171,224.87905 177.71117,223.40969 z M 267.9919,217.42575 C 267.71797,216.74872 267.51053,217.54478 267.53091,219.19478 C 267.55129,220.84478 267.77541,221.39872 268.02895,220.42575 C 268.28249,219.45278 268.26582,218.10278 267.9919,217.42575 z M 266.53596,214.49478 C 265.82684,213.78566 265.2527,209.79725 265.13241,204.74478 L 264.92887,196.19478 L 264.59041,204.5417 C 264.2818,212.15243 265.09742,215.69478 267.1584,215.69478 C 267.47606,215.69478 267.19596,215.15478 266.53596,214.49478 z M 212.58597,212.0325 C 211.89847,211.75509 210.77347,211.75509 210.08597,212.0325 C 209.39847,212.30991 209.96097,212.53689 211.33597,212.53689 C 212.71097,212.53689 213.27347,212.30991 212.58597,212.0325 z M 180.91469,208.92097 C 179.19275,207.27168 179.17144,207.29299 180.43636,209.3993 C 181.16451,210.61179 181.97551,211.38857 182.23859,211.12549 C 182.50167,210.86241 181.90592,209.87038 180.91469,208.92097 z M 205.58597,211.0325 C 204.89847,210.75509 203.77347,210.75509 203.08597,211.0325 C 202.39847,211.30991 202.96097,211.53689 204.33597,211.53689 C 205.71097,211.53689 206.27347,211.30991 205.58597,211.0325 z M 227.94014,207.96561 C 227.60784,207.63332 227.3715,208.22395 227.41492,209.27811 C 227.4629,210.44306 227.69986,210.68001 228.01908,209.88228 C 228.30795,209.16041 228.27243,208.29791 227.94014,207.96561 z M 204.89369,205.43471 L 208.83597,205.03099 L 204.62115,204.86288 C 201.14866,204.72439 200.2143,205.09105 199.31599,206.94478 C 198.35848,208.92065 198.39169,208.99032 199.58852,207.51661 C 200.33811,206.59361 202.72544,205.65676 204.89369,205.43471 z M 177.08597,207.00545 C 176.12347,206.75393 174.54847,206.75393 173.58597,207.00545 C 172.62347,207.25698 173.41097,207.46278 175.33597,207.46278 C 177.26097,207.46278 178.04847,207.25698 177.08597,207.00545 z M 227.07496,187.94478 C 226.87651,184.78228 226.71414,187.36978 226.71414,193.69478 C 226.71414,200.01978 226.87651,202.60728 227.07496,199.44478 C 227.27341,196.28228 227.27341,191.10728 227.07496,187.94478 z M 220.25037,190.69478 C 220.21412,189.70573 219.90265,189.87604 219.33597,191.19478 C 218.15465,193.94387 218.15465,195.52275 219.33597,193.69478 C 219.86913,192.86978 220.28061,191.51978 220.25037,190.69478 z M 266.04169,186.44478 C 265.80334,185.20728 265.60832,186.21978 265.60832,188.69478 C 265.60832,191.16978 265.80334,192.18228 266.04169,190.94478 C 266.28005,189.70728 266.28005,187.68228 266.04169,186.44478 z M 186.94014,187.96561 C 186.60784,187.63332 186.3715,188.22395 186.41492,189.27811 C 186.4629,190.44306 186.69986,190.68001 187.01908,189.88228 C 187.30795,189.16041 187.27243,188.2979 186.94014,187.96561 z M 220.99825,185.44478 C 220.72084,184.75728 220.49386,185.31978 220.49386,186.69478 C 220.49386,188.06978 220.72084,188.63228 220.99825,187.94478 C 221.27566,187.25728 221.27566,186.13228 220.99825,185.44478 z M 185.99191,181.42575 C 185.71798,180.74872 185.51054,181.54478 185.53092,183.19478 C 185.5513,184.84478 185.77542,185.39872 186.02896,184.42575 C 186.2825,183.45278 186.26583,182.10278 185.99191,181.42575 z M 222.05937,174.44478 C 221.83754,172.65728 221.65604,174.11978 221.65604,177.69478 C 221.65604,181.26978 221.83754,182.73228 222.05937,180.94478 C 222.28119,179.15728 222.28119,176.23228 222.05937,174.44478 z M 267.02529,177.94478 C 266.77376,176.98228 266.56796,177.76978 266.56796,179.69478 C 266.56796,181.61978 266.77376,182.40728 267.02529,181.44478 C 267.27681,180.48228 267.27681,178.90728 267.02529,177.94478 z M 227.99825,176.44478 C 227.72084,175.75728 227.49386,176.31978 227.49386,177.69478 C 227.49386,179.06978 227.72084,179.63228 227.99825,178.94478 C 228.27566,178.25728 228.27566,177.13228 227.99825,176.44478 z M 267.99824,172.44478 C 267.72083,171.75728 267.49385,172.31978 267.49385,173.69478 C 267.49385,175.06978 267.72083,175.63228 267.99824,174.94478 C 268.27565,174.25728 268.27565,173.13228 267.99824,172.44478 z M 228.94014,171.96561 C 228.60784,171.63332 228.3715,172.22395 228.41492,173.27811 C 228.4629,174.44306 228.69986,174.68001 229.01908,173.88228 C 229.30795,173.16041 229.27243,172.2979 228.94014,171.96561 z M 125.55792,165.30064 C 127.07425,164.84136 127.20591,163.78888 126.66051,156.48693 C 125.70443,143.68649 125.9839,143.94791 117.79388,148.19314 C 113.96703,150.17676 109.77352,152.67619 108.47497,153.74743 L 106.11397,155.69513 L 107.83128,162.44496 C 108.77579,166.15736 109.70151,169.73095 109.88844,170.38626 C 110.12136,171.20285 112.36907,170.67228 117.03213,168.69997 C 120.77424,167.1172 124.61085,165.5875 125.55792,165.30064 z M 185.99825,167.44478 C 185.72084,166.75728 185.49386,167.31978 185.49386,168.69478 C 185.49386,170.06978 185.72084,170.63228 185.99825,169.94478 C 186.27566,169.25728 186.27566,168.13228 185.99825,167.44478 z M 223.99684,165.38958 C 225.28336,164.3776 226.32934,162.79478 226.32123,161.8722 C 226.31116,160.72622 225.9072,160.98683 225.0462,162.69478 C 224.35304,164.06978 222.83332,165.3322 221.66904,165.50017 C 220.03848,165.73539 219.68247,166.30379 220.11934,167.97437 C 220.52052,169.5085 220.82861,169.71686 221.17211,168.68637 C 221.43919,167.88511 222.71033,166.40155 223.99684,165.38958 z M 268.99824,166.44478 C 268.72083,165.75728 268.49385,166.31978 268.49385,167.69478 C 268.49385,169.06978 268.72083,169.63228 268.99824,168.94478 C 269.27565,168.25728 269.27565,167.13228 268.99824,166.44478 z M 186.94014,162.96561 C 186.60784,162.63332 186.3715,163.22395 186.41492,164.27811 C 186.4629,165.44306 186.69986,165.68001 187.01908,164.88228 C 187.30795,164.16041 187.27243,163.2979 186.94014,162.96561 z M 233.25568,162.69478 C 234.37833,160.33751 234.35751,160.3056 232.89114,162.13591 C 232.03579,163.20353 231.33597,164.51603 231.33597,165.05258 C 231.33597,166.32312 231.79787,165.75581 233.25568,162.69478 z M 269.94013,161.96561 C 269.60783,161.63332 269.37149,162.22395 269.41491,163.27811 C 269.46289,164.44306 269.69985,164.68001 270.01907,163.88228 C 270.30794,163.16041 270.27242,162.2979 269.94013,161.96561 z M 270.94013,157.96561 C 270.60783,157.63332 270.37149,158.22395 270.41491,159.27811 C 270.46289,160.44306 270.69985,160.68001 271.01907,159.88228 C 271.30794,159.16041 271.27242,158.2979 270.94013,157.96561 z M 226.99825,156.44478 C 226.72084,155.75728 226.49386,156.31978 226.49386,157.69478 C 226.49386,159.06978 226.72084,159.63228 226.99825,158.94478 C 227.27566,158.25728 227.27566,157.13228 226.99825,156.44478 z M 237.33597,157.19478 C 238.62772,155.81978 239.4596,154.69478 239.1846,154.69478 C 238.9096,154.69478 237.62772,155.81978 236.33597,157.19478 C 235.04422,158.56978 234.21234,159.69478 234.48734,159.69478 C 234.76234,159.69478 236.04422,158.56978 237.33597,157.19478 z M 192.83597,154.69478 C 194.41677,153.04478 195.48515,151.69478 195.21015,151.69478 C 194.93515,151.69478 193.41677,153.04478 191.83597,154.69478 C 190.25517,156.34478 189.18679,157.69478 189.46179,157.69478 C 189.73679,157.69478 191.25517,156.34478 192.83597,154.69478 z M 271.94013,153.96561 C 271.60783,153.63332 271.37149,154.22395 271.41491,155.27811 C 271.46289,156.44306 271.69985,156.68001 272.01907,155.88228 C 272.30794,155.16041 272.27242,154.2979 271.94013,153.96561 z M 257.72897,153.11299 C 258.06282,152.24301 258.2911,150.78051 258.23628,149.86299 C 258.17964,148.91517 257.83188,149.27435 257.43095,150.69478 C 256.89607,152.58974 256.13365,153.13825 254.28063,152.96121 C 252.05899,152.74894 252.01843,152.81095 253.83596,153.64092 C 256.67656,154.93807 257.04795,154.8877 257.72897,153.11299 z M 225.65881,151.61762 C 225.08471,151.04352 222.41471,150.74491 219.72548,150.95404 L 214.83597,151.33428 L 220.08597,151.51453 C 223.3163,151.62544 225.33597,152.1436 225.33597,152.86145 C 225.33597,153.50311 225.64347,153.72061 226.0193,153.34478 C 226.39514,152.96895 226.23292,152.19173 225.65881,151.61762 z M 250.08596,152.00545 C 249.12346,151.75393 247.54846,151.75393 246.58596,152.00545 C 245.62347,152.25698 246.41096,152.46278 248.33596,152.46278 C 250.26096,152.46278 251.04846,152.25698 250.08596,152.00545 z M 274.19539,147.69478 C 274.19539,146.7493 273.87768,146.93414 273.33596,148.19478 C 272.86327,149.29478 272.47653,150.86978 272.47653,151.69478 C 272.47653,152.64026 272.79424,152.45542 273.33596,151.19478 C 273.80865,150.09478 274.19539,148.51978 274.19539,147.69478 z M 199.83597,150.69478 C 201.15471,150.1281 201.32503,149.81663 200.33597,149.78038 C 199.51097,149.75014 198.16097,150.16162 197.33597,150.69478 C 195.508,151.8761 197.08688,151.8761 199.83597,150.69478 z M 204.52347,149.01167 C 203.80159,148.72279 202.9391,148.75832 202.6068,149.09061 C 202.27451,149.42291 202.86514,149.65925 203.9193,149.61583 C 205.08425,149.56785 205.3212,149.33089 204.52347,149.01167 z M 258.99824,144.44478 C 258.72083,143.75728 258.49385,144.31978 258.49385,145.69478 C 258.49385,147.06978 258.72083,147.63228 258.99824,146.94478 C 259.27565,146.25728 259.27565,145.13228 258.99824,144.44478 z M 259.94013,139.96561 C 259.60783,139.63332 259.37149,140.22395 259.41491,141.27811 C 259.46289,142.44306 259.69985,142.68001 260.01907,141.88228 C 260.30794,141.16041 260.27242,140.2979 259.94013,139.96561 z M 267.68286,257.80305 C 265.81054,255.53492 264.76727,255.19478 259.68286,255.19478 C 256.46706,255.19478 253.38253,254.89813 252.82834,254.53556 C 248.58061,251.75656 240.01188,253.16308 234.87257,257.48292 L 232.83597,259.19478 L 234.83597,256.80676 C 238.83837,252.02786 247.15534,250.30874 252.58072,253.13892 C 254.24412,254.00664 256.68507,254.35011 258.77644,254.01073 C 263.62109,253.22455 267.0367,254.30842 268.95877,257.24187 C 271.19421,260.65358 270.34447,261.02732 267.68286,257.80305 z M 134.40365,256.63334 C 134.36643,255.77455 135.2535,254.08705 136.37493,252.88334 C 138.09829,251.03353 139.45262,250.70625 145.12493,250.7689 C 148.816,250.80967 153.86097,251.22459 156.33597,251.69094 C 159.51708,252.29033 158.12947,252.37771 151.60154,251.98905 C 141.40722,251.3821 137.26316,252.4201 135.52471,256.01596 C 134.80138,257.51211 134.45013,257.70555 134.40365,256.63334 z M 113.49768,255.69478 C 114.07467,253.91739 121.10867,251.88844 127.08597,251.77526 C 131.10665,251.69912 131.32863,251.84317 131.19979,254.44478 C 131.08303,256.80262 131.00181,256.87393 130.63024,254.94478 C 130.36398,253.56237 129.47147,252.69478 128.31564,252.69478 C 124.96233,252.69478 115.87497,254.89711 114.42335,256.06158 C 113.31656,256.94945 113.11615,256.87004 113.49768,255.69478 z M 164.33597,254.49492 C 161.70945,253.14636 161.3498,252.6975 162.89484,252.69633 C 164.98442,252.69476 169.24765,255.21471 168.3344,255.9116 C 168.06026,256.12079 166.26097,255.48328 164.33597,254.49492 z M 171.0693,255.57069 C 171.74764,254.88727 172.55454,254.58002 172.86243,254.88791 C 173.17032,255.1958 172.61532,255.75496 171.6291,256.13049 C 170.2039,256.67317 170.08904,256.55831 171.0693,255.57069 z"
       id="path2444"
       sodipodi:nodetypes="csssssscccsssccssssssssssssssssscccsssccssssssssssssscccssssssssccssssccssssccssccssccssccssccsssssccscccssssssssssssccccccssccssssssscccccssssssssscccccccsssssscccssssscccscccssssssssssssssscccsscccsssssccccccsssssssssssscccccccccccccccssscccsccssssscccsccsssccssccssccssccssccssccssccsssccsssccssccssccssccsssssccccccssssssssssssscccsccssccssccssccsssccssccssssssssssssccsssssccssccsssccssccssccssccssccssccssccsssccssssccsssccssssccsscccccsccssccssccssccssccccssccssccssccssccssccssccssccssccssccssccssccssccssccsscccssccssccsssssccssccssccssccssccssccssccsssccsssccssccsssscccccssccssccsssccssccssccssccssccsscccsssccsssssccsssssccssccssc" />
    <path
       style="fill:#ffd100;fill-opacity:1;stroke:#ff9703;stroke-width:2;stroke-miterlimit:4;stroke-dasharray:none;stroke-opacity:1"
       d="M 311.2181,372.51169 C 311.11109,367.85282 313.79096,356.14344 306.92521,357.67083 C 305.0724,362.74625 305.49769,369.80107 309.99353,373.35169 C 310.91769,374.37856 311.09923,373.04933 311.2181,372.51169 z"
       id="path3811" />
    <path
       style="fill:#ffd100;fill-opacity:1;stroke:#ff9703;stroke-width:2;stroke-miterlimit:4;stroke-dasharray:none;stroke-opacity:1"
       d="M 355.48174,378.04545 C 356.04148,370.88376 356.28741,363.68206 357.44523,356.58123 C 349.7632,357.45218 348.48842,366.62263 348.35903,372.87258 C 347.89145,380.32941 347.85926,388.03139 350.39247,395.16114 C 358.72057,393.35043 353.11678,383.36703 355.48174,378.04545 z"
       id="path3805" />
    <path
       style="opacity:1;fill:#f5542a;fill-opacity:1;fill-rule:evenodd;stroke:#d61a01;stroke-width:4;stroke-linecap:butt;stroke-linejoin:miter;marker:none;marker-start:none;marker-mid:none;marker-end:none;stroke-miterlimit:4;stroke-dasharray:none;stroke-dashoffset:0;stroke-opacity:1;visibility:visible;display:inline;overflow:visible;enable-background:accumulate"
       d="M 30.822683,655.59617 C 32.848743,655.53214 35.223343,655.8629 37.416433,656.62742 C 41.234043,657.95821 41.450663,660.09529 38.572683,668.28367 C 36.276293,674.81736 35.962363,677.60909 38.072683,672.75242 C 39.219133,670.11395 39.951203,669.57527 41.791433,669.97117 C 43.048963,670.24172 49.697683,671.64949 56.572683,673.09617 C 63.447693,674.54282 69.495423,676.13686 70.010183,676.62742 C 70.577143,677.1677 68.492883,679.71827 64.760183,683.09617 C 56.699383,690.3908 52.032193,699.61656 50.385183,711.43992 C 48.879053,722.25192 50.486663,744.04606 54.603933,768.47117 C 56.230073,778.11802 57.572683,786.58576 57.572683,787.28367 C 57.572693,787.98157 56.469863,788.53367 55.135183,788.53367 C 53.664953,788.53366 52.537253,789.22341 52.260183,790.28367 C 51.910223,791.62285 51.755203,791.53849 51.666433,789.84617 C 51.538883,787.41428 51.659033,787.44293 33.572683,783.09617 C 24.585463,780.93621 -4.7503468,775.53367 -7.5210668,775.53367 C -8.0273668,775.53366 -8.4714568,777.22117 -8.5210668,779.28367 L -8.6148168,783.03367 L -9.5523168,779.75242 C -10.073937,777.94367 -11.325547,775.66669 -12.302317,774.68992 C -14.003577,772.98866 -14.153247,773.09858 -15.958567,777.47117 C -18.357647,783.28191 -25.755067,791.2904 -30.927317,793.65867 C -35.804987,795.89203 -44.599517,796.05163 -49.396067,793.97117 C -54.976437,791.55075 -56.427317,789.70361 -56.427317,785.03367 C -56.427327,782.21058 -55.616557,779.63311 -53.958567,777.18992 C -52.600137,775.18819 -51.867577,773.53367 -52.333567,773.53367 C -52.799557,773.53366 -54.485607,775.97879 -56.052317,778.97117 C -59.494937,785.5465 -60.431587,785.55089 -57.521067,778.97117 C -56.368437,776.36545 -55.580637,774.06784 -55.802317,773.84617 C -57.186187,772.46227 -104.30477,777.92835 -127.42732,782.15867 C -133.98953,784.75433 -137.57496,784.26478 -140.58357,785.28367 C -140.78124,782.25091 -141.73627,779.18556 -140.48982,770.93992 C -137.42394,750.74854 -136.17332,730.15632 -137.42732,720.06492 C -139.292,705.05916 -145.90117,691.29826 -154.52107,684.47117 C -156.67299,682.76684 -158.42732,680.79169 -158.42732,680.06492 C -158.42731,677.33697 -125.98211,667.4791 -105.92732,664.12742 C -65.236567,659.76815 -18.445097,656.87937 21.728933,667.00242 C 23.111173,667.58061 23.531813,666.88015 24.103933,663.06492 C 24.485673,660.51928 25.462433,657.80017 26.260183,657.00242 C 27.121213,656.14139 28.796623,655.6602 30.822683,655.59617 z"
       id="path3029" />
    <path
       style="opacity:1;fill:#f5542a;fill-opacity:1;fill-rule:evenodd;stroke:#d61a01;stroke-width:4;stroke-linecap:butt;stroke-linejoin:miter;marker:none;marker-start:none;marker-mid:none;marker-end:none;stroke-miterlimit:4;stroke-dasharray:none;stroke-dashoffset:0;stroke-opacity:1;visibility:visible;display:inline;overflow:visible;enable-background:accumulate"
       d="M -54.427317,663.12742 C -85.096137,663.08465 -95.060897,664.03692 -118.42732,669.22117 C -128.81146,671.52509 -153.07582,678.83841 -154.27107,680.03367 C -154.53601,680.29858 -152.50488,682.89007 -149.77107,685.78367 C -143.43382,692.49131 -140.19102,698.13811 -137.27107,707.53367 C -135.17781,714.26914 -134.95434,716.86851 -135.02107,733.03367 C -135.08604,748.77406 -136.75399,767.88091 -139.05232,778.93992 C -139.6389,781.76239 -139.5757,781.82799 -136.30232,781.25242 C -134.45311,780.92727 -126.40232,779.55699 -118.42732,778.18992 C -101.4714,775.28338 -81.562497,772.9227 -65.521067,771.93992 L -54.146067,771.25242 L -47.864817,764.65867 L -41.583567,758.03367 L -44.771067,756.40867 C -46.514557,755.50328 -48.786407,753.81578 -49.833567,752.65867 C -52.170827,750.07603 -53.427317,749.95368 -53.427317,752.34617 C -53.427327,754.79616 -56.925377,758.36602 -60.083567,759.15867 C -61.501887,759.51467 -64.260527,759.32862 -66.239817,758.72117 C -69.109017,757.84057 -70.154547,757.87885 -71.396067,759.00242 C -73.398787,760.81485 -83.910667,762.52401 -93.177317,762.53367 C -104.53042,762.54551 -105.70617,760.66958 -105.23982,743.03367 L -104.92732,732.03367 L -95.677317,732.03367 C -89.277527,732.03366 -86.426317,731.68706 -86.427317,730.87742 C -86.428187,730.16363 -89.060767,729.46167 -93.177317,729.06492 C -101.81593,728.23237 -101.99076,728.16521 -104.08357,724.97117 C -105.53956,722.74905 -105.9691,718.71333 -106.64607,701.65867 C -107.09617,690.31906 -107.23217,679.60052 -106.92732,677.84617 C -106.59663,675.94316 -105.06478,673.55901 -103.14607,671.93992 L -99.958567,669.28367 C -100.00068,669.28272 -100.04154,669.28455 -100.08357,669.28367 L -103.92732,669.93992 C -111.02678,671.19445 -111.4359,671.43082 -110.52107,673.84617 C -110.06343,675.05445 -109.35619,680.61322 -108.95857,686.18992 L -108.23982,696.31492 L -112.08357,697.53367 C -114.20104,698.20666 -118.76024,700.14626 -122.20857,701.81492 C -125.6569,703.48359 -128.70086,704.60388 -128.98982,704.31492 C -129.72378,703.58097 -133.42732,687.85714 -133.42732,685.47117 C -133.42731,683.39272 -125.43419,677.64904 -117.67732,674.15867 C -115.36769,673.11938 -113.70204,671.91749 -113.95857,671.50242 C -114.21509,671.08735 -111.83633,670.30339 -108.67732,669.75242 C -106.34826,669.34621 -103.33144,669.21589 -100.08357,669.28367 L -99.927317,669.25242 L -99.958567,669.28367 C -92.639547,669.44869 -84.124117,670.68996 -79.333567,672.56492 C -66.444077,677.60968 -61.434367,682.48765 -61.427317,690.03367 C -61.423447,694.17402 -63.878807,707.32891 -64.833567,708.28367 C -65.131567,708.58168 -68.139777,707.64279 -71.489817,706.18992 C -74.839877,704.73703 -78.088567,703.53706 -78.739817,703.53367 C -79.391067,703.53028 -81.164817,702.88517 -82.677317,702.09617 C -85.197947,700.78126 -85.427317,700.82561 -85.427317,702.50242 C -85.427327,703.81805 -84.414027,704.50659 -81.771067,705.00242 C -75.423027,706.19334 -70.493407,708.6753 -68.302317,711.75242 C -66.396097,714.42943 -66.237167,715.71203 -66.646067,724.87742 L -67.083567,735.03367 L -62.364817,734.68992 C -58.602097,734.41949 -57.181957,734.77903 -55.521067,736.43992 C -54.371347,737.58968 -53.427317,738.04252 -53.427317,737.43992 C -53.427327,736.83733 -52.509177,735.04703 -51.364817,733.43992 L -49.271067,730.50242 L -51.333567,726.25242 C -53.964927,720.81673 -55.802327,707.67996 -54.927317,700.56492 C -52.969007,684.64121 -41.656947,674.25329 -29.677317,677.40867 C -27.331927,678.02644 -22.327087,678.53367 -18.552317,678.53367 C -10.046087,678.53365 -8.9106368,679.59504 -8.9585668,687.65867 C -8.9870968,692.45871 -9.4566968,693.95761 -11.552317,696.25242 C -13.778967,698.69072 -14.028877,699.70898 -13.646067,704.53367 L -13.208567,710.03367 L -11.333567,702.68992 C -7.3038868,686.82343 1.0763232,678.69512 12.228933,679.84617 L 17.510183,680.40867 L 18.166433,676.90867 C 18.942673,672.77092 18.679603,672.45947 13.822683,671.40867 C 10.369333,670.6615 10.461273,670.65155 14.822683,671.06492 C 18.380543,671.40212 19.572683,671.17682 19.572683,670.15867 C 19.572693,668.62272 13.863883,667.62865 -10.458567,664.90867 C -21.418427,663.68305 -34.261867,663.15555 -54.427317,663.12742 z"
       id="path3027" />
    <path
       style="opacity:1;fill:#f5542a;fill-opacity:1;fill-rule:evenodd;stroke:#d61a01;stroke-width:4;stroke-linecap:butt;stroke-linejoin:miter;marker:none;marker-start:none;marker-mid:none;marker-end:none;stroke-miterlimit:4;stroke-dasharray:none;stroke-dashoffset:0;stroke-opacity:1;visibility:visible;display:inline;overflow:visible;enable-background:accumulate"
       d="M 42.385183,673.03367 C 41.291903,673.01565 40.777263,673.21459 40.541433,673.59617 C 39.173643,675.80935 34.680703,692.66006 33.103933,701.53367 C 32.273213,706.20866 31.072893,716.90815 30.416433,725.28367 C 29.329223,739.15484 29.359743,740.66058 30.885183,742.34617 C 31.956483,743.52996 32.572683,745.90252 32.572683,748.93992 C 32.572693,752.89826 32.049403,754.21321 29.510183,756.75242 C 26.725803,759.53685 26.044023,759.76258 21.385183,759.31492 C 18.137943,759.00291 15.327973,759.29167 13.666433,760.15867 C 8.0290432,763.10029 0.23272322,761.50201 -5.1773168,756.28367 C -10.509567,751.14032 -12.640117,744.01362 -13.427317,728.53367 C -13.804917,721.10866 -14.174987,716.38367 -14.271067,718.03367 C -14.507137,722.08766 -18.591527,730.50887 -21.708567,733.37742 C -23.104207,734.66184 -25.900497,736.27439 -27.927317,736.97117 L -31.614817,738.25242 L -25.458567,739.47117 C -13.957307,741.73388 -8.9328468,749.77803 -9.5835668,764.90867 L -9.9273168,772.90867 L 2.5726832,774.68992 C 17.284743,776.79973 35.853933,780.6675 47.072683,783.97117 C 51.472693,785.26687 55.101753,786.38303 55.135183,786.43992 C 55.168633,786.49683 54.181403,781.02117 52.947683,774.28367 C 49.598703,755.99445 47.574043,736.55395 47.572683,722.68992 C 47.570803,703.47145 51.159873,692.82147 60.978933,683.00242 L 66.197683,677.78367 L 53.760183,675.03367 C 47.593743,673.67847 44.207323,673.0637 42.385183,673.03367 z"
       id="path3025" />
    <path
       style="opacity:1;fill:#f5542a;fill-opacity:1;fill-rule:evenodd;stroke:#d61a01;stroke-width:4;stroke-linecap:butt;stroke-linejoin:miter;marker:none;marker-start:none;marker-mid:none;marker-end:none;stroke-miterlimit:4;stroke-dasharray:none;stroke-dashoffset:0;stroke-opacity:1;visibility:visible;display:inline;overflow:visible;enable-background:accumulate"
       d="M -107.92732,700.03367 L -107.30232,711.03367 C -106.95979,717.08366 -106.62229,730.92117 -106.55232,741.78367 L -106.42732,761.53367 L -111.17732,761.43992 C -113.78983,761.38713 -118.17732,760.83394 -120.92732,760.18992 L -125.92732,759.00242 L -125.61482,748.53367 C -125.32569,739.20598 -126.11542,727.46339 -128.05232,711.97117 L -128.67732,706.90867 L -121.55232,703.72117 C -117.63761,701.97075 -112.96459,700.42324 -111.17732,700.28367 L -107.92732,700.03367 z"
       id="rect3020" />
    <path
       sodipodi:nodetypes="ccccc"
       id="path3839"
       d="M -73.991897,453.46319 C -24.089227,430.22503 81.738903,431.21748 148.7846,451.56565 C 118.4303,474.66917 127.75667,510.29535 138.91737,561.42386 C 77.541993,542.14293 12.239443,537.0572 -58.432037,555.73123 C -45.538767,503.46856 -52.511057,468.68591 -73.991897,453.46319 z"
       style="opacity:1;fill:#f04f22;fill-opacity:1;fill-rule:evenodd;stroke:#e31e00;stroke-width:4;stroke-linecap:butt;stroke-linejoin:miter;marker:none;marker-start:none;marker-mid:none;marker-end:none;stroke-miterlimit:4;stroke-dashoffset:0;stroke-opacity:1;visibility:visible;display:inline;overflow:visible;enable-background:accumulate" />
    <g
       id="g3863">
      <path
         sodipodi:nodetypes="ccccccccccccccccccccsccccccccccccccccccccccccccccccccccccccccccccccccccscccsccccccccccccccccc"
         id="rect2441"
         d="M 278.34375,461.21875 C 237.26817,461.33189 198.32634,466.91217 173.375,478.53125 C 194.85584,493.75397 201.83077,528.51856 188.9375,580.78125 C 218.36913,573.00432 246.85782,569.3824 274.53125,569.15625 C 276.20839,566.34321 278.14188,563.64359 279.6875,561.03125 C 283.52944,554.60508 295.59168,553.50083 297.90625,561.65625 C 298.89622,564.74619 297.71093,567.27709 296.125,569.65625 C 297.21203,569.71702 298.29051,569.80393 299.375,569.875 C 301.99369,566.59231 303.3478,562.1578 301.625,558.28125 C 296.04003,552.90211 286.17074,555.38423 280.65625,549.28125 C 273.53677,543.32571 276.37822,533.28326 279.78125,526.15625 C 277.96628,518.19035 274.17629,510.06964 274.46875,501.53125 C 273.8758,488.85379 281.09817,473.67178 294.875,472.09375 C 303.44587,472.6766 314.51825,471.00475 320.375,478.78125 C 325.2582,486.49383 315.73058,493.61854 317.71875,501.5625 C 318.98427,494.86311 321.52484,488.34646 325.5625,482.875 C 329.49318,474.95657 339.3705,473.55656 347.25,475.46875 C 348.69611,472.6803 349.00133,469.50854 349.34375,466.375 C 326.47886,462.92553 302.0583,461.15343 278.34375,461.21875 z M 234.6875,469.28125 C 235.27552,469.27014 235.84326,469.30016 236.40625,469.375 C 245.48293,470.56981 254.57878,473.50076 261.96875,479.03125 C 266.372,481.92685 267.07735,487.74453 266.1875,492.53125 C 264.93679,495.73798 266.06642,501.73031 261.6875,502.34375 C 258.15283,501.41813 254.66781,500.16369 251.34375,498.625 C 247.13451,497.94583 247.95818,490.09307 242.96875,491.59375 C 242.52297,495.41604 241.40937,500.77039 242.8125,503.78125 C 247.91268,505.41594 253.71533,505.86946 257.90625,509.5 C 262.52087,512.06404 261.71227,516.8112 261.21875,521.28125 C 261.23783,525.53645 260.14486,529.88296 260.9375,534.09375 C 263.5693,532.65499 269.73678,533.19107 272.59375,534.9375 C 274.0112,539.75661 275.19816,549.74273 271.65625,553.71875 C 267.3909,555.22955 265.77118,551.97285 261.5,553.46875 C 260.63962,553.64354 256.25012,555.76218 255.46875,555.25 C 252.33821,556.44381 248.88349,556.72844 245.59375,557.28125 C 243.48634,557.54712 241.39903,557.80052 239.28125,557.96875 C 235.68545,558.13025 230.85263,559.15851 228.5625,555.5625 C 226.03158,549.14584 226.66609,542.09437 226.625,535.34375 C 225.46519,532.09118 228.5263,532.24167 230.75,532.0625 C 234.64109,531.42764 240.06283,531.31704 241.28125,535.8125 C 245.08764,539.36527 247.11387,533.66 246.28125,530.4375 C 247.35794,525.0907 242.05944,523.73337 237.8125,524.3125 C 233.96155,524.55981 228.58308,524.46132 227.4375,519.8125 C 226.32693,511.35123 225.76159,502.80957 225.4375,494.28125 C 225.36746,488.16274 224.7751,482.00102 225.40625,475.90625 C 226.11012,471.54553 230.57135,469.35902 234.6875,469.28125 z M 371.6875,470.40625 C 369.8766,476.54889 367.59521,482.64303 366.40625,488.84375 C 364.56854,501.63439 362.08552,514.41066 361.5,527.34375 C 360.36666,533.95077 365.68423,540.05082 362.78125,546.46875 C 360.26284,553.40984 352.79532,557.09586 345.65625,556.1875 C 339.23111,559.00165 331.41551,558.16238 326.25,553.125 C 315.97202,544.37899 316.73412,529.69354 316.40625,517.375 C 315.56478,520.83668 313.91779,524.09738 311.5625,526.78125 C 308.70767,531.25197 303.31074,531.61485 298.71875,532.96875 C 303.5759,534.56574 310.81924,534.71913 315.25,538.84375 C 322.99301,547.87319 323.56842,560.79752 319.5,571.78125 C 342.29354,574.62342 364.53761,579.63803 386.28125,586.46875 C 375.12055,535.34024 365.80196,499.72851 396.15625,476.625 C 388.47094,474.29253 380.24934,472.22273 371.6875,470.40625 z M 216.125,473.21875 C 216.66815,473.21218 217.19222,473.37323 217.5,473.90625 C 218.32832,475.47188 218.31821,477.31042 218.53125,479.03125 C 218.79557,482.78158 219.23344,486.54925 219.21875,490.3125 C 219.20979,491.32639 219.00949,492.68967 217.8125,492.9375 C 217.25698,493.11415 216.73225,493.32446 216.1875,493.53125 C 212.49076,494.90794 208.92258,496.63359 205.1875,497.90625 C 204.24401,498.09792 202.92197,498.82079 202.15625,498 C 200.8557,493.11399 199.62777,488.21091 198.375,483.3125 C 198.70817,483.03764 199.04181,482.77485 199.375,482.5 C 201.31051,480.7868 203.5459,479.4374 205.78125,478.15625 C 208.65509,476.54425 211.54891,474.93103 214.5625,473.59375 C 215.01938,473.39283 215.58185,473.22532 216.125,473.21875 z M 341.5,497.03125 C 331.71391,495.66988 331.20461,540.13574 338.19324,535.5 C 340.03018,540.19558 341.01811,528.45702 342.26518,516.63709 C 343.24453,507.35454 345.3781,497.92236 341.5,497.03125 z M 296.0625,497.21875 C 287.85822,499.87333 290.78015,513.27475 296.84662,514.52264 C 298.39955,510.18855 301.92562,500.85055 296.0625,497.21875 z M 222.09375,497.8125 L 222.71875,508.8125 C 223.06128,514.86249 223.39878,528.7 223.46875,539.5625 L 223.59375,559.3125 L 218.84375,559.21875 C 216.23126,559.16596 211.84375,558.61277 209.09375,557.96875 L 204.09375,556.78125 L 204.4375,546.3125 C 204.72663,536.98486 203.9369,525.24222 202,509.75 L 201.375,504.6875 L 208.5,501.5 C 212.41471,499.7496 217.05648,498.20206 218.84375,498.0625 L 222.09375,497.8125 z"
         style="opacity:1;fill:#f04f22;fill-opacity:1;fill-rule:evenodd;stroke:none;stroke-width:4;stroke-linecap:butt;stroke-linejoin:miter;marker:none;marker-start:none;marker-mid:none;marker-end:none;stroke-miterlimit:4;stroke-dashoffset:0;stroke-opacity:1;visibility:visible;display:inline;overflow:visible;enable-background:accumulate" />
      <path
         sodipodi:nodetypes="ccccccccccccccccccccccccccccccccccccc"
         d="M 295.22544,589.15984 C 311.11429,582.64201 319.23903,561.81828 311.57355,546.36181 C 306.74028,540.29921 298.29338,541.17851 291.53008,539.2999 C 285.37891,532.93586 295.70523,526.4714 301.69215,527.06696 C 309.33831,523.14414 310.3848,513.43605 310.37175,505.7593 C 309.14942,498.93878 310.45328,492.62466 314.27463,487.05362 C 315.87473,478.2451 303.95943,480.46709 298.59675,479.23136 C 292.02959,478.39238 285.25626,481.37741 282.48518,487.58134 C 276.75553,499.11221 278.79691,513.20693 284.69892,524.22711 C 286.0222,531.00919 277.90984,536.91387 281.54307,543.56599 C 284.85836,549.09766 291.58782,549.80627 297.32355,550.80494 C 302.90934,551.48788 307.26868,556.49969 307.01725,562.1483 C 306.84548,571.16355 300.16254,580.40067 291.04453,581.94878 C 281.99845,582.18816 285.22235,570.40709 290.28595,567.00206 C 293.53983,560.6771 282.32625,562.36445 282.67863,567.72068 C 278.63797,572.42381 272.93401,578.80002 276.41148,585.34077 C 280.55171,591.38845 288.98444,590.45304 295.22544,589.15984 z M 292.62687,519.49889 C 272.67508,484.87434 313.8704,481.46436 300.58956,518.45911 C 298.93467,520.94188 294.56468,522.67117 292.62687,519.49889 z M 342.9715,550.63293 C 348.87755,553.23525 358.03579,548.26557 355.89903,541.17937 C 352.49974,533.59239 354.22701,524.85082 355.12649,516.85756 C 356.4672,507.12245 356.97845,497.26674 359.45169,487.70992 C 361.56954,478.37469 364.34702,469.20313 367.37642,460.12729 C 367.36781,452.03639 353.44563,454.42748 354.43655,461.75726 C 354.01429,468.65445 353.1795,477.6628 349.19051,482.74379 C 343.2521,483.65855 335.42725,478.82264 331.09338,484.99245 C 321.55691,494.62503 321.0495,509.16713 320.97757,521.90803 C 321.19723,531.04208 321.21941,541.39323 327.48552,548.71272 C 331.34574,552.89816 338.35736,554.71302 342.9715,550.63293 z M 335.14921,541.75056 C 328.18548,534.77679 330.31698,524.22628 330.08868,515.36363 C 330.03459,507.20936 330.62786,497.59334 337.58765,492.13691 C 343.88155,488.82314 350.18261,496.36263 348.99197,502.4369 C 345.0225,514.39286 348.62244,527.65068 344.06932,539.50606 C 342.42844,542.55101 337.92153,544.71713 335.14921,541.75056 z"
         style="fill:#ffd100;fill-opacity:1;stroke:#ff9703;stroke-width:2;stroke-miterlimit:4;stroke-dasharray:none;stroke-opacity:1"
         id="path3815" />
      <path
         sodipodi:nodetypes="ccccscccccsccccccccccccccccc"
         id="path3846"
         d="M 276.06632,462.58723 C 234.99074,462.70037 196.08015,468.2494 171.12882,479.86848 C 192.60966,495.0912 199.5846,529.88709 186.69132,582.14973 C 217.42143,574.02969 242.77177,570.14409 271.58892,570.22146 C 272.3834,569.00913 273.17537,567.80204 273.87017,566.62771 C 273.93983,566.5112 274.01396,566.39695 274.08892,566.28396 C 245.03061,565.97373 220.30348,569.52685 192.09757,576.61848 C 193.93903,568.0968 195.42053,559.4695 196.34757,550.83723 C 198.6983,526.81942 196.92477,499.13169 178.94132,481.21223 C 205.66961,470.3503 236.75625,467.76792 266.12882,466.77473 C 268.63895,466.7235 271.14783,466.698 273.66007,466.68098 C 298.4903,466.51273 322.17238,467.2385 346.68596,471.08366 C 347.03982,469.68487 347.53499,468.93277 347.5443,467.32443 C 324.4578,463.79723 300.03875,462.5212 276.06632,462.58723 z M 373.11573,472.72503 C 372.79531,474.03382 372.43503,475.3285 372.05323,476.63128 C 377.17966,477.7571 380.52429,478.45001 385.59757,479.80598 C 380.06272,485.33466 375.38691,492.28409 372.84757,499.86848 C 364.51917,526.84459 373.34074,555.39335 378.72257,582.02473 C 359.59995,576.22244 342.55589,571.74552 322.71305,569.19021 C 322.52094,570.504 321.43926,571.80489 321.11573,573.09646 C 343.17793,575.98141 362.95678,581.21552 384.03507,587.83723 C 372.87437,536.70872 363.55578,501.09698 393.91007,477.99348 C 386.79763,475.83488 380.98991,474.44289 373.11573,472.72503 z M 299.39959,567.69474 C 299.1053,568.86896 298.14294,569.93894 297.51015,571.16398 C 297.8736,571.24177 297.66357,571.20439 298.15988,571.29497 C 298.7239,570.2229 299.30549,568.15802 299.39959,567.69474 z"
         style="opacity:1;fill:#f04f22;fill-opacity:1;fill-rule:evenodd;stroke:#e31e00;stroke-width:4;stroke-linecap:butt;stroke-linejoin:miter;marker:none;marker-start:none;marker-mid:none;marker-end:none;stroke-miterlimit:4;stroke-dashoffset:0;stroke-opacity:1;visibility:visible;display:inline;overflow:visible;enable-background:accumulate" />
      <path
         sodipodi:nodetypes="csccc"
         style="fill:#ffd100;fill-opacity:1;stroke:#ff9703;stroke-width:1.38556695;stroke-miterlimit:4;stroke-dasharray:none;stroke-opacity:1"
         d="M 269.26075,549.18965 C 270.05231,548.247 270.64818,541.63452 269.08086,539.4326 C 268.42831,538.51585 265.50483,538.31579 264.03631,539.04879 C 262.96369,540.24424 263.04735,544.42845 263.98192,547.94313 C 264.55184,548.79518 268.19385,549.70276 269.26075,549.18965 z"
         id="path3861" />
    </g>
  </g>
</svg>
