<?xml version="1.0" encoding="UTF-8" standalone="no"?>
<!-- Created with Inkscape (http://www.inkscape.org/) -->
<svg
   xmlns:dc="http://purl.org/dc/elements/1.1/"
   xmlns:cc="http://creativecommons.org/ns#"
   xmlns:rdf="http://www.w3.org/1999/02/22-rdf-syntax-ns#"
   xmlns:svg="http://www.w3.org/2000/svg"
   xmlns="http://www.w3.org/2000/svg"
   xmlns:sodipodi="http://sodipodi.sourceforge.net/DTD/sodipodi-0.dtd"
   xmlns:inkscape="http://www.inkscape.org/namespaces/inkscape"
   width="16"
   height="16"
   id="svg2418"
   sodipodi:version="0.32"
   inkscape:version="0.46"
   sodipodi:docname="isgdico.svg"
   inkscape:output_extension="org.inkscape.output.svg.inkscape"
   version="1.0">
  <defs
     id="defs2420">
    <inkscape:perspective
       sodipodi:type="inkscape:persp3d"
       inkscape:vp_x="0 : 526.18109 : 1"
       inkscape:vp_y="0 : 1000 : 0"
       inkscape:vp_z="744.09448 : 526.18109 : 1"
       inkscape:persp3d-origin="372.04724 : 350.78739 : 1"
       id="perspective2426" />
    <inkscape:perspective
       id="perspective2435"
       inkscape:persp3d-origin="372.04724 : 350.78739 : 1"
       inkscape:vp_z="744.09448 : 526.18109 : 1"
       inkscape:vp_y="0 : 1000 : 0"
       inkscape:vp_x="0 : 526.18109 : 1"
       sodipodi:type="inkscape:persp3d" />
  </defs>
  <sodipodi:namedview
     id="base"
     pagecolor="#ffffff"
     bordercolor="#666666"
     borderopacity="1.0"
     inkscape:pageopacity="0.0"
     inkscape:pageshadow="2"
     inkscape:zoom="15.225441"
     inkscape:cx="30.239777"
     inkscape:cy="23.771397"
     inkscape:document-units="px"
     inkscape:current-layer="layer1"
     showgrid="false"
     inkscape:window-width="1280"
     inkscape:window-height="949"
     inkscape:window-x="0"
     inkscape:window-y="25" />
  <metadata
     id="metadata2423">
    <rdf:RDF>
      <cc:Work
         rdf:about="">
        <dc:format>image/svg+xml</dc:format>
        <dc:type
           rdf:resource="http://purl.org/dc/dcmitype/StillImage" />
      </cc:Work>
    </rdf:RDF>
  </metadata>
  <g
     inkscape:label="Camada 1"
     inkscape:groupmode="layer"
     id="layer1"
     transform="translate(-189.65736,-556.53991)">
    <g
       id="g3863"
       transform="matrix(7.0156803e-2,0,0,0.1171372,177.83282,503.32579)"
       inkscape:export-xdpi="90"
       inkscape:export-ydpi="90">
      <path
         sodipodi:nodetypes="ccccccccccccccccccccsccccccccccccccccccccccccccccccccccccccccccccccccccscccsccccccccccccccccc"
         id="rect2441"
         d="M 278.34375,461.21875 C 237.26817,461.33189 198.32634,466.91217 173.375,478.53125 C 194.85584,493.75397 201.83077,528.51856 188.9375,580.78125 C 218.36913,573.00432 246.85782,569.3824 274.53125,569.15625 C 276.20839,566.34321 278.14188,563.64359 279.6875,561.03125 C 283.52944,554.60508 295.59168,553.50083 297.90625,561.65625 C 298.89622,564.74619 297.71093,567.27709 296.125,569.65625 C 297.21203,569.71702 298.29051,569.80393 299.375,569.875 C 301.99369,566.59231 303.3478,562.1578 301.625,558.28125 C 296.04003,552.90211 286.17074,555.38423 280.65625,549.28125 C 273.53677,543.32571 276.37822,533.28326 279.78125,526.15625 C 277.96628,518.19035 274.17629,510.06964 274.46875,501.53125 C 273.8758,488.85379 281.09817,473.67178 294.875,472.09375 C 303.44587,472.6766 314.51825,471.00475 320.375,478.78125 C 325.2582,486.49383 315.73058,493.61854 317.71875,501.5625 C 318.98427,494.86311 321.52484,488.34646 325.5625,482.875 C 329.49318,474.95657 339.3705,473.55656 347.25,475.46875 C 348.69611,472.6803 349.00133,469.50854 349.34375,466.375 C 326.47886,462.92553 302.0583,461.15343 278.34375,461.21875 z M 234.6875,469.28125 C 235.27552,469.27014 235.84326,469.30016 236.40625,469.375 C 245.48293,470.56981 254.57878,473.50076 261.96875,479.03125 C 266.372,481.92685 267.07735,487.74453 266.1875,492.53125 C 264.93679,495.73798 266.06642,501.73031 261.6875,502.34375 C 258.15283,501.41813 254.66781,500.16369 251.34375,498.625 C 247.13451,497.94583 247.95818,490.09307 242.96875,491.59375 C 242.52297,495.41604 241.40937,500.77039 242.8125,503.78125 C 247.91268,505.41594 253.71533,505.86946 257.90625,509.5 C 262.52087,512.06404 261.71227,516.8112 261.21875,521.28125 C 261.23783,525.53645 260.14486,529.88296 260.9375,534.09375 C 263.5693,532.65499 269.73678,533.19107 272.59375,534.9375 C 274.0112,539.75661 275.19816,549.74273 271.65625,553.71875 C 267.3909,555.22955 265.77118,551.97285 261.5,553.46875 C 260.63962,553.64354 256.25012,555.76218 255.46875,555.25 C 252.33821,556.44381 248.88349,556.72844 245.59375,557.28125 C 243.48634,557.54712 241.39903,557.80052 239.28125,557.96875 C 235.68545,558.13025 230.85263,559.15851 228.5625,555.5625 C 226.03158,549.14584 226.66609,542.09437 226.625,535.34375 C 225.46519,532.09118 228.5263,532.24167 230.75,532.0625 C 234.64109,531.42764 240.06283,531.31704 241.28125,535.8125 C 245.08764,539.36527 247.11387,533.66 246.28125,530.4375 C 247.35794,525.0907 242.05944,523.73337 237.8125,524.3125 C 233.96155,524.55981 228.58308,524.46132 227.4375,519.8125 C 226.32693,511.35123 225.76159,502.80957 225.4375,494.28125 C 225.36746,488.16274 224.7751,482.00102 225.40625,475.90625 C 226.11012,471.54553 230.57135,469.35902 234.6875,469.28125 z M 371.6875,470.40625 C 369.8766,476.54889 367.59521,482.64303 366.40625,488.84375 C 364.56854,501.63439 362.08552,514.41066 361.5,527.34375 C 360.36666,533.95077 365.68423,540.05082 362.78125,546.46875 C 360.26284,553.40984 352.79532,557.09586 345.65625,556.1875 C 339.23111,559.00165 331.41551,558.16238 326.25,553.125 C 315.97202,544.37899 316.73412,529.69354 316.40625,517.375 C 315.56478,520.83668 313.91779,524.09738 311.5625,526.78125 C 308.70767,531.25197 303.31074,531.61485 298.71875,532.96875 C 303.5759,534.56574 310.81924,534.71913 315.25,538.84375 C 322.99301,547.87319 323.56842,560.79752 319.5,571.78125 C 342.29354,574.62342 364.53761,579.63803 386.28125,586.46875 C 375.12055,535.34024 365.80196,499.72851 396.15625,476.625 C 388.47094,474.29253 380.24934,472.22273 371.6875,470.40625 z M 216.125,473.21875 C 216.66815,473.21218 217.19222,473.37323 217.5,473.90625 C 218.32832,475.47188 218.31821,477.31042 218.53125,479.03125 C 218.79557,482.78158 219.23344,486.54925 219.21875,490.3125 C 219.20979,491.32639 219.00949,492.68967 217.8125,492.9375 C 217.25698,493.11415 216.73225,493.32446 216.1875,493.53125 C 212.49076,494.90794 208.92258,496.63359 205.1875,497.90625 C 204.24401,498.09792 202.92197,498.82079 202.15625,498 C 200.8557,493.11399 199.62777,488.21091 198.375,483.3125 C 198.70817,483.03764 199.04181,482.77485 199.375,482.5 C 201.31051,480.7868 203.5459,479.4374 205.78125,478.15625 C 208.65509,476.54425 211.54891,474.93103 214.5625,473.59375 C 215.01938,473.39283 215.58185,473.22532 216.125,473.21875 z M 341.5,497.03125 C 331.71391,495.66988 331.20461,540.13574 338.19324,535.5 C 340.03018,540.19558 341.01811,528.45702 342.26518,516.63709 C 343.24453,507.35454 345.3781,497.92236 341.5,497.03125 z M 296.0625,497.21875 C 287.85822,499.87333 290.78015,513.27475 296.84662,514.52264 C 298.39955,510.18855 301.92562,500.85055 296.0625,497.21875 z M 222.09375,497.8125 L 222.71875,508.8125 C 223.06128,514.86249 223.39878,528.7 223.46875,539.5625 L 223.59375,559.3125 L 218.84375,559.21875 C 216.23126,559.16596 211.84375,558.61277 209.09375,557.96875 L 204.09375,556.78125 L 204.4375,546.3125 C 204.72663,536.98486 203.9369,525.24222 202,509.75 L 201.375,504.6875 L 208.5,501.5 C 212.41471,499.7496 217.05648,498.20206 218.84375,498.0625 L 222.09375,497.8125 z"
         style="opacity:1;fill:#f04f22;fill-opacity:1;fill-rule:evenodd;stroke:none;stroke-width:4;stroke-linecap:butt;stroke-linejoin:miter;marker:none;marker-start:none;marker-mid:none;marker-end:none;stroke-miterlimit:4;stroke-dashoffset:0;stroke-opacity:1;visibility:visible;display:inline;overflow:visible;enable-background:accumulate" />
      <path
         sodipodi:nodetypes="ccccccccccccccccccccccccccccccccccccc"
         d="M 295.22544,589.15984 C 311.11429,582.64201 319.23903,561.81828 311.57355,546.36181 C 306.74028,540.29921 298.29338,541.17851 291.53008,539.2999 C 285.37891,532.93586 295.70523,526.4714 301.69215,527.06696 C 309.33831,523.14414 310.3848,513.43605 310.37175,505.7593 C 309.14942,498.93878 310.45328,492.62466 314.27463,487.05362 C 315.87473,478.2451 303.95943,480.46709 298.59675,479.23136 C 292.02959,478.39238 285.25626,481.37741 282.48518,487.58134 C 276.75553,499.11221 278.79691,513.20693 284.69892,524.22711 C 286.0222,531.00919 277.90984,536.91387 281.54307,543.56599 C 284.85836,549.09766 291.58782,549.80627 297.32355,550.80494 C 302.90934,551.48788 307.26868,556.49969 307.01725,562.1483 C 306.84548,571.16355 300.16254,580.40067 291.04453,581.94878 C 281.99845,582.18816 285.22235,570.40709 290.28595,567.00206 C 293.53983,560.6771 282.32625,562.36445 282.67863,567.72068 C 278.63797,572.42381 272.93401,578.80002 276.41148,585.34077 C 280.55171,591.38845 288.98444,590.45304 295.22544,589.15984 z M 292.62687,519.49889 C 272.67508,484.87434 313.8704,481.46436 300.58956,518.45911 C 298.93467,520.94188 294.56468,522.67117 292.62687,519.49889 z M 342.9715,550.63293 C 348.87755,553.23525 358.03579,548.26557 355.89903,541.17937 C 352.49974,533.59239 354.22701,524.85082 355.12649,516.85756 C 356.4672,507.12245 356.97845,497.26674 359.45169,487.70992 C 361.56954,478.37469 364.34702,469.20313 367.37642,460.12729 C 367.36781,452.03639 353.44563,454.42748 354.43655,461.75726 C 354.01429,468.65445 353.1795,477.6628 349.19051,482.74379 C 343.2521,483.65855 335.42725,478.82264 331.09338,484.99245 C 321.55691,494.62503 321.0495,509.16713 320.97757,521.90803 C 321.19723,531.04208 321.21941,541.39323 327.48552,548.71272 C 331.34574,552.89816 338.35736,554.71302 342.9715,550.63293 z M 335.14921,541.75056 C 328.18548,534.77679 330.31698,524.22628 330.08868,515.36363 C 330.03459,507.20936 330.62786,497.59334 337.58765,492.13691 C 343.88155,488.82314 350.18261,496.36263 348.99197,502.4369 C 345.0225,514.39286 348.62244,527.65068 344.06932,539.50606 C 342.42844,542.55101 337.92153,544.71713 335.14921,541.75056 z"
         style="fill:#ffd100;fill-opacity:1;stroke:#ff9703;stroke-width:2;stroke-miterlimit:4;stroke-dasharray:none;stroke-opacity:1"
         id="path3815" />
      <path
         sodipodi:nodetypes="ccccscccccsccccccccccccccccc"
         id="path3846"
         d="M 276.06632,462.58723 C 234.99074,462.70037 196.08015,468.2494 171.12882,479.86848 C 192.60966,495.0912 199.5846,529.88709 186.69132,582.14973 C 217.42143,574.02969 242.77177,570.14409 271.58892,570.22146 C 272.3834,569.00913 273.17537,567.80204 273.87017,566.62771 C 273.93983,566.5112 274.01396,566.39695 274.08892,566.28396 C 245.03061,565.97373 220.30348,569.52685 192.09757,576.61848 C 193.93903,568.0968 195.42053,559.4695 196.34757,550.83723 C 198.6983,526.81942 196.92477,499.13169 178.94132,481.21223 C 205.66961,470.3503 236.75625,467.76792 266.12882,466.77473 C 268.63895,466.7235 271.14783,466.698 273.66007,466.68098 C 298.4903,466.51273 322.17238,467.2385 346.68596,471.08366 C 347.03982,469.68487 347.53499,468.93277 347.5443,467.32443 C 324.4578,463.79723 300.03875,462.5212 276.06632,462.58723 z M 373.11573,472.72503 C 372.79531,474.03382 372.43503,475.3285 372.05323,476.63128 C 377.17966,477.7571 380.52429,478.45001 385.59757,479.80598 C 380.06272,485.33466 375.38691,492.28409 372.84757,499.86848 C 364.51917,526.84459 373.34074,555.39335 378.72257,582.02473 C 359.59995,576.22244 342.55589,571.74552 322.71305,569.19021 C 322.52094,570.504 321.43926,571.80489 321.11573,573.09646 C 343.17793,575.98141 362.95678,581.21552 384.03507,587.83723 C 372.87437,536.70872 363.55578,501.09698 393.91007,477.99348 C 386.79763,475.83488 380.98991,474.44289 373.11573,472.72503 z M 299.39959,567.69474 C 299.1053,568.86896 298.14294,569.93894 297.51015,571.16398 C 297.8736,571.24177 297.66357,571.20439 298.15988,571.29497 C 298.7239,570.2229 299.30549,568.15802 299.39959,567.69474 z"
         style="opacity:1;fill:#f04f22;fill-opacity:1;fill-rule:evenodd;stroke:#e31e00;stroke-width:4;stroke-linecap:butt;stroke-linejoin:miter;marker:none;marker-start:none;marker-mid:none;marker-end:none;stroke-miterlimit:4;stroke-dashoffset:0;stroke-opacity:1;visibility:visible;display:inline;overflow:visible;enable-background:accumulate" />
      <path
         sodipodi:nodetypes="csccc"
         style="fill:#ffd100;fill-opacity:1;stroke:#ff9703;stroke-width:1.38556695;stroke-miterlimit:4;stroke-dasharray:none;stroke-opacity:1"
         d="M 269.26075,549.18965 C 270.05231,548.247 270.64818,541.63452 269.08086,539.4326 C 268.42831,538.51585 265.50483,538.31579 264.03631,539.04879 C 262.96369,540.24424 263.04735,544.42845 263.98192,547.94313 C 264.55184,548.79518 268.19385,549.70276 269.26075,549.18965 z"
         id="path3861" />
    </g>
  </g>
</svg>
